<svg version="1.1" id="Layer_1" xmlns="http://www.w3.org/2000/svg" xmlns:xlink="http://www.w3.org/1999/xlink" x="0px" y="0px"
	 width="100%" viewBox="0 0 250 250" enable-background="new 0 0 250 250" xml:space="preserve">
<path fill="#FDFEFE" opacity="1.000000" stroke="none" 
	d="
M250.678772,219.771439 
	C251.000000,229.280670 250.840988,238.565643 251.093109,247.839462 
	C251.172760,250.769119 250.301743,251.097000 247.693954,251.070099 
	C233.443008,250.922913 219.189774,251.000000 204.468658,251.000000 
	C198.299973,249.623901 194.581833,245.654343 191.780945,240.931107 
	C189.801620,237.593307 188.179916,236.865982 184.924423,239.391907 
	C180.225891,243.037445 175.048325,245.988251 169.651459,248.552338 
	C167.359879,249.641098 164.950821,250.037903 162.270935,250.782623 
	C143.645767,251.000000 125.291542,251.000000 106.468658,251.000000 
	C87.854683,245.168823 75.191605,227.868317 74.697395,208.207321 
	C74.639114,205.888535 74.659012,203.567535 74.626694,200.835175 
	C74.041969,191.191772 75.230797,182.220093 78.732300,173.170013 
	C86.131180,155.855087 99.609444,146.428635 116.686058,141.358780 
	C128.269424,137.919815 140.217010,136.983231 152.198105,136.621231 
	C161.177155,136.349930 170.170959,136.599411 179.157944,136.555573 
	C185.222809,136.526001 185.533051,136.183853 185.561035,129.952606 
	C185.587921,123.961334 185.573364,117.969826 185.569870,111.564156 
	C185.543289,107.044312 185.512268,102.936211 185.604736,98.833832 
	C185.686920,95.187904 184.366119,92.806747 180.181580,92.058197 
	C160.901794,84.643799 141.674896,85.342346 122.294403,89.405785 
	C117.579063,90.394424 112.864166,91.397514 108.002953,91.373466 
	C100.407501,91.335892 98.209984,89.798813 95.341278,82.111359 
	C94.570282,78.793655 93.775391,75.909554 93.231369,72.555153 
	C93.814552,65.051064 99.479668,63.255501 105.183922,60.930161 
	C115.907532,56.661232 126.812698,55.656147 137.750153,54.442497 
	C150.933716,52.979610 163.977554,53.764828 176.999237,55.567558 
	C184.754105,56.641151 192.239700,59.020641 200.093948,61.518967 
	C203.282806,63.101700 206.355255,63.839642 209.205566,65.158951 
	C214.690170,67.697586 218.773239,71.527161 221.013809,77.692680 
	C221.810577,83.169640 221.452393,88.256546 221.462463,93.797699 
	C221.651337,100.259499 221.619736,106.259583 221.486969,112.741562 
	C221.800415,140.303436 221.532990,167.384460 221.612305,194.937531 
	C221.360275,199.336502 221.622391,203.267059 221.491119,207.617157 
	C221.447205,208.700333 221.417145,209.360870 221.486496,210.020782 
	C222.636658,220.967255 226.539200,223.803894 237.280121,221.903641 
	C241.641846,221.131989 245.779953,219.092804 250.678772,219.771439 
z"/>
<path fill="#168FC4" opacity="1.000000" stroke="none" 
	d="
M186.455917,110.668907 
	C186.886520,118.492355 186.748764,125.993111 187.076248,133.473495 
	C187.243774,137.300339 186.239594,138.534775 182.197403,138.522186 
	C167.550278,138.476547 152.882996,137.797287 138.254013,139.016907 
	C125.380051,140.090240 112.903038,142.764633 101.541687,149.249603 
	C91.999619,154.696121 84.874733,162.387894 80.321709,172.815994 
	C61.401260,169.805588 43.843918,163.392838 27.275034,154.316498 
	C18.099936,149.290436 9.183211,143.808914 1.268019,136.266357 
	C1.000000,127.979103 1.000000,119.958199 1.000000,111.468651 
	C2.916663,109.283440 5.298690,109.383972 7.616552,109.382668 
	C65.157173,109.350349 122.697807,109.351685 180.238434,109.380051 
	C182.227829,109.381035 184.246307,109.330139 186.455917,110.668907 
z"/>
<path fill="#10578E" opacity="1.000000" stroke="none" 
	d="
M75.299629,200.727081 
	C75.800133,209.738785 76.960625,218.230667 80.491425,226.283676 
	C85.569603,237.865936 94.252090,245.610214 105.919464,250.653732 
	C72.257156,251.000000 38.514160,250.955933 4.771740,251.074997 
	C1.731813,251.085709 0.877125,250.490005 0.909989,247.290604 
	C1.096073,229.174454 1.000000,211.055389 1.000000,192.468658 
	C2.888885,190.392914 5.041642,190.742416 7.150259,191.280014 
	C27.820686,196.550095 49.025047,197.710205 70.147804,199.496979 
	C71.796417,199.636414 73.473686,199.563278 75.299629,200.727081 
z"/>
<path fill="#2675A4" opacity="1.000000" stroke="none" 
	d="
M1.397749,17.304766 
	C1.000000,12.340666 1.090063,7.678659 0.951913,3.023425 
	C0.902517,1.358943 1.162485,0.598233 2.976196,0.978643 
	C3.613767,1.112369 4.302955,1.000000 4.968574,1.000000 
	C85.674896,1.000000 166.381271,1.031920 247.087357,0.894461 
	C250.672363,0.888355 251.374924,1.806491 251.075821,5.081887 
	C250.744278,8.712492 251.000000,12.396724 251.000000,16.528801 
	C248.099136,19.340570 244.639114,18.609499 241.379364,18.611341 
	C169.788727,18.651834 98.198074,18.642059 26.607428,18.641432 
	C20.447308,18.641376 14.287059,18.668236 8.127131,18.625191 
	C5.972901,18.610136 3.776705,18.749956 1.397749,17.304766 
z"/>
<path fill="#198BBE" opacity="1.000000" stroke="none" 
	d="
M186.901047,110.536560 
	C125.200218,111.000023 63.568764,111.000008 1.468657,111.000000 
	C1.000000,104.978844 1.000000,98.957695 1.000000,92.468269 
	C2.919808,90.281227 5.305195,90.388725 7.625582,90.385780 
	C37.595222,90.347755 67.571327,89.991745 97.532135,90.508995 
	C115.496552,90.819130 133.434525,89.838020 151.388992,90.329681 
	C160.690842,90.584396 170.006790,90.146278 179.772095,90.548309 
	C185.306885,91.198654 187.963013,93.613091 187.095474,99.284256 
	C186.556961,102.804535 186.979340,106.471802 186.901047,110.536560 
z"/>
<path fill="#1B79B0" opacity="1.000000" stroke="none" 
	d="
M75.703552,200.588898 
	C51.964176,199.852814 28.360312,198.302216 5.309420,192.284119 
	C4.203106,191.995270 3.000737,192.074356 1.421550,191.991058 
	C1.000000,173.645767 1.000000,155.291550 1.000000,136.468658 
	C6.366168,137.720261 9.953024,142.106781 14.465127,145.108932 
	C33.484406,157.763550 54.117256,166.385147 76.436569,171.091690 
	C77.538506,171.324066 78.548508,171.992416 79.831757,172.752075 
	C77.131767,181.836182 75.396606,190.814331 75.703552,200.588898 
z"/>
<path fill="#1590C5" opacity="1.000000" stroke="none" 
	d="
M220.324829,196.343201 
	C220.122589,168.663406 220.076080,141.295685 220.099564,113.464020 
	C220.634750,112.521751 221.167511,111.993958 221.804398,111.951897 
	C231.284912,111.325737 240.772720,110.500290 250.607025,112.700592 
	C251.000000,148.020889 251.000000,183.041794 251.000000,218.531342 
	C250.279343,219.387039 249.627274,219.057114 248.667267,218.615692 
	C241.306839,210.943787 232.921585,205.159714 224.329376,199.636230 
	C222.963928,198.758469 221.329178,198.207886 220.324829,196.343201 
z"/>
<path fill="#217DAE" opacity="1.000000" stroke="none" 
	d="
M1.397748,50.304764 
	C1.000000,46.969406 1.000000,43.938812 1.000000,40.454109 
	C3.900870,37.659431 7.360906,38.390507 10.620658,38.388668 
	C82.377937,38.348236 154.135254,38.357971 225.892563,38.358597 
	C231.886200,38.358650 237.879974,38.331539 243.873428,38.374798 
	C246.027481,38.390339 248.223480,38.250183 250.602264,39.695236 
	C251.000000,43.030594 251.000000,46.061188 251.000000,49.545891 
	C248.099136,52.340569 244.639114,51.609489 241.379364,51.611324 
	C169.622238,51.651760 97.865089,51.642029 26.107941,51.641407 
	C20.114311,51.641357 14.120546,51.668468 8.127116,51.625206 
	C5.972879,51.609657 3.776695,51.749954 1.397748,50.304764 
z"/>
<path fill="#2080B1" opacity="1.000000" stroke="none" 
	d="
M1.000000,50.454109 
	C84.020897,50.000000 167.041794,50.000000 250.531342,50.000000 
	C251.000000,53.361286 251.000000,56.722576 251.000000,60.541931 
	C248.744644,62.933567 245.992065,62.515446 243.363571,62.559059 
	C229.555908,62.788170 215.739487,62.137726 201.463226,62.999146 
	C184.646957,58.018253 168.049789,54.849281 150.835922,55.378731 
	C135.550781,55.848866 120.435677,57.189068 105.456596,62.156574 
	C101.655128,61.176628 98.149399,61.652046 94.692322,61.645008 
	C66.322006,61.587223 37.951504,61.624065 9.581097,61.595890 
	C6.952049,61.593281 4.247189,61.949722 1.389595,60.296944 
	C1.000000,56.969406 1.000000,53.938812 1.000000,50.454109 
z"/>
<path fill="#2478A8" opacity="1.000000" stroke="none" 
	d="
M1.000000,17.449980 
	C84.020897,16.999983 167.041794,16.999966 250.531342,16.999973 
	C251.000000,19.700014 251.000000,22.400026 251.000000,25.550020 
	C248.099136,28.340570 244.639114,27.609499 241.379364,27.611341 
	C169.788727,27.651834 98.198074,27.642059 26.607428,27.641432 
	C20.447308,27.641376 14.287059,27.668236 8.127131,27.625191 
	C5.972901,27.610136 3.776705,27.749956 1.397749,26.304766 
	C1.000000,23.299986 1.000000,20.599974 1.000000,17.449980 
z"/>
<path fill="#237AAA" opacity="1.000000" stroke="none" 
	d="
M1.000000,26.437500 
	C84.020897,26.000000 167.041794,26.000000 250.531342,26.000000 
	C251.000000,28.041666 251.000000,30.083334 251.000000,32.562500 
	C248.099136,35.340569 244.639114,34.609489 241.379364,34.611324 
	C169.622238,34.651760 97.865089,34.642029 26.107941,34.641407 
	C20.114311,34.641357 14.120546,34.668472 8.127116,34.625206 
	C5.972879,34.609661 3.776695,34.749954 1.397748,33.304764 
	C1.000000,30.958334 1.000000,28.916666 1.000000,26.437500 
z"/>
<path fill="#227BAC" opacity="1.000000" stroke="none" 
	d="
M1.000000,33.437500 
	C84.020897,33.000000 167.041794,33.000000 250.531342,33.000000 
	C251.000000,35.041668 251.000000,37.083332 251.000000,39.562500 
	C167.979111,40.000000 84.958206,40.000000 1.468657,40.000000 
	C1.000000,37.958332 1.000000,35.916668 1.000000,33.437500 
z"/>
<path fill="#1B87BA" opacity="1.000000" stroke="none" 
	d="
M179.931488,90.194489 
	C178.671967,93.050461 176.053757,91.949417 173.900009,91.951698 
	C116.579155,92.012436 59.258228,92.000000 1.468657,92.000000 
	C1.000000,88.638710 1.000000,85.277428 1.000000,81.458069 
	C2.910322,79.289032 5.284482,79.385406 7.596194,79.382347 
	C34.957012,79.346062 62.317860,79.348122 89.678688,79.380196 
	C91.661766,79.382523 93.676888,79.327293 95.923714,80.632156 
	C100.058243,89.812172 103.255859,91.525246 113.184128,89.551987 
	C124.938812,87.215729 136.630844,84.797783 148.750351,84.910759 
	C159.366104,85.009720 169.600861,86.699539 179.931488,90.194489 
z"/>
<path fill="#1E83B5" opacity="1.000000" stroke="none" 
	d="
M1.000000,60.460636 
	C33.564594,60.000000 66.129204,59.988567 98.693748,60.026958 
	C100.758911,60.029392 103.096054,59.289360 104.881233,61.809654 
	C100.977623,64.506607 95.352936,65.135193 94.689774,71.726761 
	C92.446945,73.700974 89.918091,73.626205 87.425415,73.628654 
	C60.990448,73.654594 34.555462,73.652740 8.120499,73.626968 
	C5.969607,73.624870 3.776788,73.748306 1.399084,72.305939 
	C1.000000,68.307091 1.000000,64.614182 1.000000,60.460636 
z"/>
<path fill="#1C85B8" opacity="1.000000" stroke="none" 
	d="
M1.000000,72.449982 
	C31.849325,72.004951 62.698650,72.009895 94.066315,72.032135 
	C95.149406,74.732101 95.714157,77.414780 96.319809,80.487267 
	C64.886238,80.918053 33.411774,80.959030 1.468657,81.000000 
	C1.000000,78.299988 1.000000,75.599968 1.000000,72.449982 
z"/>
<path fill="#1E83B5" opacity="1.000000" stroke="none" 
	d="
M201.240479,63.277710 
	C202.798615,60.775204 205.335800,60.995216 207.821869,60.996506 
	C221.902145,61.003815 235.982407,61.000015 250.531342,61.000000 
	C251.000000,66.022095 251.000000,71.044182 251.000000,76.533142 
	C250.495071,77.429123 249.956833,77.968987 249.331467,78.017860 
	C239.680695,78.772133 230.025177,79.514900 219.960297,77.366623 
	C216.487915,68.661919 208.747604,66.415115 201.240479,63.277710 
z"/>
<path fill="#188BBF" opacity="1.000000" stroke="none" 
	d="
M251.000000,112.531731 
	C241.028091,113.000000 231.056198,113.000000 220.626923,113.000046 
	C220.122894,106.975754 220.076233,100.951439 220.099640,94.463547 
	C220.634857,93.521614 221.167618,92.993858 221.804520,92.951813 
	C231.284988,92.325859 240.772766,91.500275 250.607025,93.700600 
	C251.000000,100.021156 251.000000,106.042305 251.000000,112.531731 
z"/>
<path fill="#1B87BA" opacity="1.000000" stroke="none" 
	d="
M251.000000,93.532394 
	C241.028152,93.999992 231.056290,93.999985 220.627060,93.999985 
	C220.020020,88.682594 219.870361,83.365196 219.613770,77.599731 
	C229.692123,77.101105 239.877411,77.050552 250.531342,77.000000 
	C251.000000,82.354927 251.000000,87.709862 251.000000,93.532394 
z"/>
<path fill="#155A90" opacity="1.000000" stroke="none" 
	d="
M162.468658,251.000000 
	C171.513626,246.429092 181.111298,242.003296 189.372971,234.585892 
	C192.711563,241.535110 196.963364,247.099243 203.750854,250.777176 
	C190.312439,251.000000 176.624878,251.000000 162.468658,251.000000 
z"/>
<path fill="#165C91" opacity="1.000000" stroke="none" 
	d="
M248.648972,217.810822 
	C249.466110,218.309891 249.963135,218.573776 250.730087,218.918823 
	C251.000000,219.000000 251.000000,219.500000 251.000000,219.750000 
	C246.468887,221.022675 241.975540,222.276657 237.399429,223.023621 
	C224.891113,225.065247 221.805878,222.630981 220.100891,209.395691 
	C221.565109,207.684082 223.208145,207.937576 224.811615,208.444336 
	C232.845337,210.983261 240.862106,213.573669 248.648972,217.810822 
z"/>
<path fill="#11588F" opacity="1.000000" stroke="none" 
	d="
M186.617432,200.662308 
	C187.767914,213.240494 187.634064,213.678864 176.827759,218.701553 
	C163.372635,224.955399 149.348526,228.409439 134.332581,227.094269 
	C119.603615,225.804230 112.489616,219.110596 110.743469,204.402390 
	C110.606247,203.246475 110.450272,202.092773 110.353127,200.490860 
	C111.323784,198.913193 112.644936,198.707840 113.963493,198.537811 
	C136.402283,195.644257 158.847107,195.362518 181.296921,198.412445 
	C183.103088,198.657837 184.938446,198.858841 186.617432,200.662308 
z"/>
<path fill="#1C79B0" opacity="1.000000" stroke="none" 
	d="
M187.038513,200.538910 
	C178.878799,199.202240 170.648956,198.440079 162.434662,198.088394 
	C145.383606,197.358368 128.359116,198.212463 110.895615,200.039566 
	C110.196983,191.760559 110.848129,183.652084 115.528137,176.107468 
	C117.043320,175.398972 118.210060,174.671997 119.575989,174.619904 
	C141.465073,173.784927 163.206039,174.623199 184.496918,180.448273 
	C185.141022,180.624481 185.704071,181.003387 186.584641,181.719086 
	C186.997375,188.043304 187.060913,194.060471 187.038513,200.538910 
z"/>
<path fill="#1690C5" opacity="1.000000" stroke="none" 
	d="
M187.023666,181.562531 
	C179.007111,181.341370 171.378510,179.014282 163.522797,177.813629 
	C150.452911,175.816010 137.378510,176.054611 124.273384,175.995773 
	C121.774895,175.984558 119.276405,175.973541 116.297775,175.936035 
	C120.156670,168.619339 127.512177,166.608429 135.055786,165.036667 
	C144.740570,163.018768 154.571182,164.043365 164.340805,163.869690 
	C170.811417,163.754654 177.287903,163.945572 183.757370,163.802170 
	C186.310089,163.745590 187.311203,164.488922 187.199951,167.160446 
	C187.006760,171.799759 187.125534,176.452072 187.023666,181.562531 
z"/>
<path fill="#1B79B0" opacity="1.000000" stroke="none" 
	d="
M248.840500,217.736023 
	C241.315598,216.616653 234.603409,212.444687 227.109314,210.543488 
	C225.051254,210.021362 223.150742,208.876846 220.537048,208.992584 
	C220.104782,204.977524 220.067139,200.961014 220.099304,196.487808 
	C230.608200,201.928940 240.647156,208.360611 248.840500,217.736023 
z"/>
</svg>