<svg version="1.1" id="Layer_1" xmlns="http://www.w3.org/2000/svg" xmlns:xlink="http://www.w3.org/1999/xlink" x="0px" y="0px"
	 width="100%" viewBox="0 0 240 277" enable-background="new 0 0 240 277" xml:space="preserve">
<path fill="#454546" opacity="1.000000" stroke="none" 
	d="
M128.272003,277.758362 
	C123.643097,278.000000 119.286201,278.000000 114.464645,278.000000 
	C86.254356,262.841827 59.099236,246.651306 31.700375,230.887314 
	C24.197777,226.570663 16.683294,222.274124 9.197708,217.928360 
	C6.488703,216.355667 3.447999,215.206619 1.253705,212.261200 
	C1.000000,163.979111 1.000000,115.958214 1.000000,67.468658 
	C3.013326,64.167084 6.123400,62.818329 8.991017,61.171291 
	C41.758129,42.351265 74.407448,23.327036 107.183250,4.521989 
	C109.214752,3.356420 111.330894,2.424937 113.727997,1.241659 
	C118.356903,1.000000 122.713799,1.000000 127.535355,1.000000 
	C158.069778,17.459234 187.488480,35.056561 217.234329,52.082001 
	C223.301376,55.554554 229.360764,59.043236 235.403976,62.558323 
	C237.262360,63.639275 239.267624,64.560860 240.746307,66.738815 
	C241.000000,115.020897 241.000000,163.041794 241.000000,211.531342 
	C238.986664,214.832916 235.876572,216.181641 233.008957,217.828674 
	C200.241882,236.648804 167.592575,255.673050 134.816711,274.478027 
	C132.785217,275.643585 130.669113,276.575104 128.272003,277.758362 
z"/>
<path fill="#000000" opacity="1.000000" stroke="none" 
	d="
M113.531342,1.000000 
	C112.589813,5.093178 108.417534,5.907250 105.357147,7.692939 
	C78.110435,23.590994 50.707417,39.221489 23.326277,54.888573 
	C16.168274,58.984280 8.925753,62.932274 1.361023,66.974052 
	C1.000000,46.217705 1.098113,25.434475 0.900349,4.654062 
	C0.868567,1.314579 1.923487,0.928829 4.828683,0.936635 
	C40.906479,1.033580 76.984627,1.000000 113.531342,1.000000 
z"/>
<path fill="#000000" opacity="1.000000" stroke="none" 
	d="
M1.000000,212.468658 
	C8.307970,214.379730 14.448329,218.994507 21.030010,222.711060 
	C41.737072,234.403946 62.327156,246.311508 82.782234,258.440033 
	C93.252609,264.648285 104.479729,269.619476 114.034103,277.645996 
	C77.589417,278.000000 41.178707,277.958435 4.768504,278.075531 
	C1.718114,278.085358 0.884218,277.474823 0.911317,274.285858 
	C1.085079,253.837570 1.000000,233.387085 1.000000,212.468658 
z"/>
<path fill="#000000" opacity="1.000000" stroke="none" 
	d="
M128.468658,278.000000 
	C129.410309,273.906982 133.582397,273.092712 136.642807,271.307007 
	C163.889542,255.408981 191.292587,239.778534 218.673721,224.111435 
	C225.831726,220.015732 233.074249,216.067734 240.638977,212.025955 
	C241.000000,232.782303 240.901871,253.565521 241.099640,274.345947 
	C241.131424,277.685394 240.076523,278.071167 237.171326,278.063354 
	C201.093521,277.966431 165.015381,278.000000 128.468658,278.000000 
z"/>
<path fill="#000000" opacity="1.000000" stroke="none" 
	d="
M241.000000,66.531342 
	C232.033035,63.495972 224.156342,57.981373 215.856323,53.262062 
	C197.049530,42.568684 178.255661,31.845276 159.652878,20.803284 
	C149.042389,14.505249 137.656250,9.477793 127.965897,1.354008 
	C164.410583,1.000000 200.821289,1.041535 237.231491,0.924440 
	C240.281845,0.914630 241.115784,1.525156 241.088684,4.714112 
	C240.914917,25.162411 241.000000,45.612907 241.000000,66.531342 
z"/>
<path fill="#F0F0F0" opacity="1.000000" stroke="none" 
	d="
M222.325287,208.164520 
	C214.005447,213.401306 205.857712,218.172241 197.366547,222.998932 
	C190.239578,224.184845 183.432663,224.463379 176.137817,223.484436 
	C172.372589,222.107346 171.417496,219.580765 171.487030,216.241699 
	C171.615158,210.090332 171.428757,203.934280 171.626984,197.351135 
	C171.686707,195.522491 173.270004,194.110168 171.877197,192.750015 
	C166.131760,187.139297 168.158524,180.295746 168.906769,173.293060 
	C169.356201,172.425873 169.710739,171.992615 170.479446,171.355347 
	C172.650436,170.017670 174.756424,170.122818 177.165436,169.632416 
	C182.531006,169.515945 187.463287,169.357727 192.774780,169.782562 
	C196.650925,172.431198 194.826355,175.278259 193.316223,177.766739 
	C190.982758,181.611923 187.645706,184.709961 184.796951,188.176620 
	C183.757202,189.441895 182.301636,190.393433 181.674042,192.454926 
	C186.169785,193.975845 190.716415,192.711548 195.153793,193.134018 
	C191.927444,192.214890 187.314011,194.315140 185.764984,190.320435 
	C184.368851,186.720001 188.530960,184.715851 190.641922,182.312057 
	C192.854935,179.792068 194.812836,177.141205 196.330444,174.153442 
	C197.154724,172.530624 197.860992,170.794785 200.068359,169.809647 
	C206.458221,169.335495 212.444763,169.524094 218.430054,169.568405 
	C221.326416,169.589844 223.329132,170.808151 223.376633,173.928391 
	C223.536057,184.402420 223.677170,194.878357 223.298248,205.351364 
	C223.267899,206.190491 222.852173,206.945465 222.325287,208.164520 
z"/>
<path fill="#F1F2F2" opacity="1.000000" stroke="none" 
	d="
M18.642998,72.052338 
	C22.011864,69.739830 25.140738,67.856247 28.611923,65.911736 
	C29.253216,65.941643 29.552200,66.032478 30.310894,66.218819 
	C41.537430,66.733376 52.309273,66.372162 63.077568,66.523270 
	C69.209190,66.609306 70.513817,67.754036 70.442055,73.776855 
	C70.333664,82.872147 71.088539,91.984879 69.752098,101.427551 
	C67.659416,103.445259 65.803711,102.332924 63.951813,101.778244 
	C54.565308,98.966743 48.659096,103.500168 49.001610,113.259171 
	C49.064640,115.055016 49.528252,116.870758 48.490761,118.966751 
	C47.806221,119.680046 47.302464,119.946335 46.305168,120.193634 
	C45.559811,120.252403 45.257225,120.235252 44.508286,120.118416 
	C37.520214,118.968033 30.929165,119.733681 24.365891,119.481308 
	C22.257801,119.400246 20.027397,119.742058 18.137531,117.473007 
	C17.480143,115.985031 17.008314,114.926910 17.010927,113.738976 
	C17.039194,100.894119 16.540535,88.045654 17.448341,74.744568 
	C17.867615,73.677429 18.129263,73.076714 18.642998,72.052338 
z"/>
<path fill="#F1F1F1" opacity="1.000000" stroke="none" 
	d="
M68.773705,43.302841 
	C85.316162,33.223740 101.779800,23.641310 118.589203,14.013546 
	C121.641541,14.188135 121.398254,16.368597 121.413986,18.068432 
	C121.552719,33.053448 121.575127,48.039970 121.419441,63.024605 
	C121.375061,67.295700 119.324066,69.231133 115.172333,68.930496 
	C102.032715,67.979042 88.882248,68.767761 75.740517,68.492859 
	C69.328438,68.358734 68.546310,67.676140 68.533737,61.274628 
	C68.522285,55.450016 68.293350,49.621021 68.773705,43.302841 
z"/>
<path fill="#F1F1F1" opacity="1.000000" stroke="none" 
	d="
M122.559036,14.015185 
	C139.303253,23.238958 155.541687,32.507027 172.009003,41.996811 
	C174.642609,49.686703 173.353882,57.338753 173.209061,64.907997 
	C173.145859,68.210266 170.217361,68.441551 167.625305,68.460495 
	C156.995575,68.538155 146.365540,68.486176 135.735641,68.490044 
	C132.248169,68.491318 128.759766,68.560081 125.273117,68.420654 
	C122.807152,68.322060 121.060593,67.384392 121.054428,64.604462 
	C121.018349,48.329395 120.850754,32.053967 121.147820,15.779708 
	C121.160233,15.099930 121.561775,14.533810 122.559036,14.015185 
z"/>
<path fill="#EFEFEF" opacity="1.000000" stroke="none" 
	d="
M45.441971,223.056763 
	C36.450485,218.236420 27.922699,213.416367 19.187473,208.327850 
	C18.021811,206.888901 17.101061,205.621597 17.099566,204.083755 
	C17.089437,193.670563 16.241905,183.243317 17.720907,172.387726 
	C19.084017,169.556488 21.308256,169.537445 23.487953,169.537964 
	C29.973072,169.539474 36.459656,169.354141 43.360302,169.741074 
	C46.824524,171.377777 45.410824,173.825760 44.853550,175.926392 
	C43.892376,179.549469 43.488251,183.106705 44.921818,186.676544 
	C47.127575,192.169250 51.929165,194.133774 57.371544,191.741852 
	C58.576958,191.212097 59.759766,190.208160 61.056309,191.152466 
	C62.581692,192.263489 62.583694,194.014694 62.378826,195.701859 
	C61.896629,199.672958 58.626030,202.915298 54.516899,203.630066 
	C52.893421,203.912476 51.234142,203.535522 49.504761,203.948013 
	C58.598206,205.579468 62.921169,202.154175 63.087452,193.251434 
	C63.183659,188.100479 63.044735,182.947083 63.153736,177.796448 
	C63.206226,175.316498 63.125294,172.750992 65.578232,170.678604 
	C70.236092,170.036499 68.917450,174.130707 70.529526,176.363754 
	C70.861237,180.963806 71.593773,185.136749 71.983643,189.757385 
	C71.859695,190.449402 71.786652,190.724655 71.617004,191.422455 
	C69.476852,199.549255 70.826965,207.405014 70.535797,215.185989 
	C70.417343,218.351349 70.062241,221.165009 66.574112,223.060425 
	C59.395618,224.634552 52.645447,224.329865 45.441971,223.056763 
z"/>
<path fill="#F1F1F1" opacity="1.000000" stroke="none" 
	d="
M173.236343,236.578033 
	C156.268494,246.697693 139.537399,256.415283 122.456985,266.210693 
	C121.072273,265.554749 120.637756,264.473206 120.637688,263.285492 
	C120.636887,249.745651 119.982193,236.199509 121.242775,222.231781 
	C123.453056,219.828400 125.982994,219.951080 128.453598,219.948624 
	C141.491959,219.935699 154.530518,219.840027 168.051697,220.044891 
	C172.280075,220.695709 173.730316,222.995850 173.489517,226.647781 
	C173.339081,228.929214 173.582733,231.199966 174.022156,233.918579 
	C173.933167,235.013458 173.747849,235.608658 173.236343,236.578033 
z"/>
<path fill="#F1F1F1" opacity="1.000000" stroke="none" 
	d="
M120.224396,265.933319 
	C103.368454,256.859161 86.850685,247.415329 70.102432,237.740967 
	C67.946602,233.396744 68.498344,229.036423 68.639221,224.727707 
	C68.705215,222.709274 69.669678,221.249771 72.193413,220.503815 
	C87.349281,219.466492 102.031296,220.003098 116.710014,220.074738 
	C117.709267,220.079620 118.634361,220.508621 119.888741,221.335968 
	C120.887215,222.510727 120.980881,223.503418 120.966545,224.495880 
	C120.768967,238.184540 121.528778,251.882736 120.224396,265.933319 
z"/>
<path fill="#F7F8F9" opacity="1.000000" stroke="none" 
	d="
M122.849243,13.689655 
	C121.666145,15.302181 122.014816,17.044758 122.012672,18.673195 
	C121.993568,33.149441 122.091713,47.626675 121.938576,62.101326 
	C121.900520,65.698921 122.912590,67.117966 126.719986,67.067169 
	C140.361877,66.885162 154.008209,66.928085 167.651535,67.043182 
	C170.853378,67.070190 172.115799,66.006599 172.045959,62.725651 
	C171.907944,56.241199 172.076767,49.750221 172.178299,42.740234 
	C172.405640,42.249100 172.573395,42.279675 172.887543,42.519989 
	C176.220657,46.668064 174.921051,51.337978 175.005142,55.719116 
	C175.181976,64.933830 175.071899,64.737762 184.405823,65.009811 
	C191.325302,65.211487 198.344009,63.773827 205.509476,66.320114 
	C205.820404,70.402420 202.761185,69.832954 200.600632,69.934998 
	C194.648254,70.216103 188.680084,70.013229 182.718323,70.048332 
	C175.835907,70.088860 175.831589,70.094154 174.958862,77.006355 
	C174.811966,78.169914 174.544388,79.284561 173.613937,80.615936 
	C169.612717,80.694000 170.093460,77.669945 170.065567,75.463852 
	C170.018372,71.731018 168.527039,70.670921 164.858887,70.857773 
	C155.889664,71.314674 146.897766,71.016533 137.915131,71.032021 
	C124.039505,71.055939 124.082001,71.038544 124.010094,85.169930 
	C123.990746,88.973282 124.545242,92.826881 123.192368,96.967590 
	C118.495178,99.770294 117.823807,95.667023 115.994125,92.931274 
	C115.441635,90.294289 116.449020,88.326988 117.071022,86.281509 
	C119.748184,77.477592 114.331100,70.608269 105.137398,71.169800 
	C103.651527,71.260559 102.174698,71.508568 100.293694,71.135849 
	C92.599342,71.049202 85.296577,70.996780 77.994705,71.063118 
	C72.555092,71.112541 72.122269,71.568680 72.061371,77.150459 
	C71.992493,83.463745 72.062294,89.778023 72.031059,96.091805 
	C72.019539,98.420120 72.101158,100.774010 70.133194,102.992523 
	C69.140396,103.412392 68.589149,103.279198 68.190918,102.404999 
	C69.812187,91.596092 68.829971,81.178093 68.805435,70.786354 
	C68.798386,67.801346 66.026161,68.016609 63.868881,68.012794 
	C54.255997,67.995789 44.642948,68.028732 35.030262,67.981773 
	C33.231976,67.972992 31.435070,67.681137 29.318462,67.253357 
	C31.420877,65.266518 34.168995,64.912735 37.054527,64.929619 
	C43.372616,64.966568 49.691223,64.949074 56.009594,64.937569 
	C68.003502,64.915718 66.829216,65.720314 66.968353,53.765610 
	C67.008331,50.330910 66.223732,46.736877 68.607010,43.184975 
	C68.855347,42.800259 68.900841,42.815445 68.876678,42.810806 
	C71.328430,48.213020 69.697769,53.912388 69.926933,59.463665 
	C70.237404,66.984612 70.006294,66.996132 77.562332,66.996712 
	C90.200706,66.997681 102.839165,66.972595 115.477402,67.014496 
	C118.045799,67.023010 120.047386,66.841805 120.024841,63.406898 
	C119.921204,47.610493 119.952736,31.813215 119.910797,16.016315 
	C119.909546,15.544482 119.631783,15.073383 119.208954,14.285076 
	C119.987213,12.587976 121.230690,12.471336 122.849243,13.689655 
z"/>
<path fill="#F0F0F0" opacity="1.000000" stroke="none" 
	d="
M68.509308,42.867668 
	C68.901329,49.260544 68.792397,55.727097 69.053459,62.178680 
	C69.201691,65.841972 67.948929,67.123299 64.231758,67.062088 
	C52.802834,66.873886 41.368866,66.992332 29.468128,66.989197 
	C28.992205,66.797462 28.985014,66.608116 28.966028,66.134789 
	C42.023914,58.212234 55.093594,50.573654 68.509308,42.867668 
z"/>
<path fill="#F0F0F0" opacity="1.000000" stroke="none" 
	d="
M206.278961,67.197319 
	C196.841751,67.013641 187.735260,66.811699 178.642624,67.079872 
	C174.413071,67.204628 172.635864,66.114029 172.916992,61.570744 
	C173.284225,55.636257 173.014999,49.662388 173.026764,43.217590 
	C184.537048,49.309605 196.040161,55.889484 207.756958,62.731544 
	C208.750076,64.211227 208.530685,65.393692 207.586761,66.837173 
	C207.090439,67.200180 206.852890,67.285843 206.278961,67.197319 
z"/>
<path fill="#FAFAFA" opacity="1.000000" stroke="none" 
	d="
M222.443878,208.563766 
	C222.101547,197.691391 221.927200,186.750870 222.067108,175.814362 
	C222.113953,172.152786 220.949783,170.779861 217.228409,170.938034 
	C211.602890,171.177124 205.959366,170.991852 199.882523,170.988159 
	C198.319412,170.308075 198.596878,169.473709 199.542419,168.311478 
	C204.534637,166.018005 209.411743,167.234406 214.171204,166.960632 
	C219.231461,166.669586 219.873917,166.222321 219.912231,161.088409 
	C219.997681,149.638382 219.998352,138.187164 219.911896,126.737152 
	C219.873856,121.700745 219.259247,121.128014 214.004181,121.084473 
	C203.217957,120.995079 192.430817,121.081345 181.644165,121.039948 
	C179.335114,121.031082 176.972504,121.255630 174.485901,119.699837 
	C173.988724,119.122444 173.853806,118.840462 173.878830,118.116058 
	C176.050323,115.695534 178.628830,115.971016 181.102066,115.958519 
	C191.923248,115.903839 202.744873,115.984161 213.565903,115.916557 
	C219.372772,115.880280 219.863617,115.383980 219.917557,109.648689 
	C219.988022,102.157501 219.907944,94.665344 219.954468,87.173813 
	C219.967834,85.021629 219.779053,82.822441 221.218704,80.458740 
	C222.002106,79.662376 222.578857,79.457611 223.676300,79.596039 
	C226.058685,81.482635 226.003662,83.840179 226.021652,86.153954 
	C226.080704,93.752869 226.210754,101.357635 225.975433,108.948853 
	C225.855606,112.813683 226.824371,115.691582 230.752991,117.701057 
	C231.149002,118.162186 231.206390,118.331345 231.174667,118.753189 
	C226.630371,121.000893 225.815948,124.576118 225.944153,129.138992 
	C226.233017,139.419571 226.194214,149.717667 225.953461,160.000595 
	C225.862030,163.905533 226.800613,166.760147 230.756622,168.719055 
	C231.148972,169.445297 231.220642,169.895859 231.186493,170.676331 
	C226.405624,173.145004 225.799561,177.066101 225.985901,181.669220 
	C226.239853,187.942688 226.039429,194.234802 226.052200,200.518784 
	C226.056656,202.710907 225.856110,204.812698 224.358246,207.067657 
	C223.696793,207.815811 223.215683,208.156494 222.443878,208.563766 
z"/>
<path fill="#F2F2F2" opacity="1.000000" stroke="none" 
	d="
M231.195129,168.539001 
	C224.005310,168.987885 224.001541,168.987885 223.999878,162.064850 
	C223.996948,149.821686 224.226059,137.572266 223.888184,125.338440 
	C223.751770,120.400047 225.039703,118.096519 230.637726,119.005127 
	C231.161377,135.365005 231.237167,151.724136 231.195129,168.539001 
z"/>
<path fill="#F2F2F2" opacity="1.000000" stroke="none" 
	d="
M18.784004,73.792557 
	C19.001944,88.022957 19.001451,102.036385 19.001289,116.517555 
	C17.070688,119.892319 14.514989,119.908607 11.301031,118.282806 
	C10.847771,104.807533 10.790970,91.619720 10.653094,78.432755 
	C10.612939,74.592178 14.130882,74.563072 16.545769,72.882950 
	C17.519686,72.942268 18.087223,73.161934 18.784004,73.792557 
z"/>
<path fill="#A9D6FE" opacity="1.000000" stroke="none" 
	d="
M11.210068,156.139221 
	C10.852303,147.836426 10.795826,139.844864 10.846983,131.390305 
	C12.467146,129.427673 14.356359,129.135574 16.777195,129.274658 
	C17.447386,129.375015 17.709143,129.439087 18.359846,129.598846 
	C20.744234,130.391891 22.447292,131.569412 24.320980,133.190063 
	C25.637249,134.618317 26.074286,136.135376 27.122303,137.743988 
	C29.557875,145.754257 27.669867,150.500732 19.902046,155.960785 
	C18.759521,156.445465 17.999548,156.783081 16.837627,157.268097 
	C14.665205,157.736618 12.967325,157.716904 11.210068,156.139221 
z"/>
<path fill="#F1F1F1" opacity="1.000000" stroke="none" 
	d="
M231.208084,117.537109 
	C224.006271,117.980721 224.004150,117.980721 224.000000,111.089256 
	C223.993927,101.008537 223.991241,90.927826 223.980225,80.372040 
	C224.019363,77.032272 226.260086,76.547096 228.693375,75.881660 
	C232.639542,75.813210 231.292587,78.593826 231.305527,80.196281 
	C231.404800,92.490501 231.339050,104.786049 231.208084,117.537109 
z"/>
<path fill="#F2F2F2" opacity="1.000000" stroke="none" 
	d="
M18.747463,171.627930 
	C19.001120,183.715118 18.996412,195.414764 18.985867,207.586884 
	C12.592813,206.183487 9.810119,202.417419 10.499712,195.324585 
	C11.251874,187.588196 10.699229,179.724930 10.829731,171.460434 
	C13.522282,169.066788 16.042952,168.964828 18.747463,171.627930 
z"/>
<path fill="#F1F1F1" opacity="1.000000" stroke="none" 
	d="
M224.530396,207.359253 
	C224.118607,197.417297 224.308121,187.349213 223.894028,177.306000 
	C223.689926,172.356140 225.071747,170.105484 230.633087,171.004776 
	C231.174515,181.101212 231.313538,191.196060 231.340683,201.291214 
	C231.351990,205.496872 227.141052,205.366364 224.530396,207.359253 
z"/>
<path fill="#060C46" opacity="1.000000" stroke="none" 
	d="
M228.948761,75.566162 
	C227.934158,77.628448 226.198456,78.559700 224.186646,79.652435 
	C223.525986,79.934708 223.078629,79.972450 222.323822,80.154205 
	C217.618805,83.147202 213.873764,81.173676 209.882233,78.417465 
	C208.579330,76.811272 207.554916,75.509811 206.712738,73.609589 
	C205.659256,71.413673 205.493042,69.585121 206.644653,67.370056 
	C207.108658,65.879486 207.409897,64.760399 207.840881,63.317520 
	C215.264160,66.504944 222.445938,70.206512 228.948761,75.566162 
z"/>
<path fill="#EEEEEE" opacity="1.000000" stroke="none" 
	d="
M173.342010,236.912521 
	C173.001221,236.546738 173.002869,236.113419 173.005646,235.355087 
	C171.899445,231.226624 172.719406,227.342255 172.541733,223.499420 
	C172.458572,221.700500 173.713028,221.428925 175.598709,221.786194 
	C182.812851,222.305527 189.625320,221.379715 196.704803,222.784027 
	C189.243561,227.651428 181.463989,232.248199 173.342010,236.912521 
z"/>
<path fill="#EEEEEE" opacity="1.000000" stroke="none" 
	d="
M45.184166,223.326416 
	C51.560093,220.750885 58.360428,222.608521 65.497787,222.004776 
	C68.724182,220.752899 69.556259,222.053635 69.501266,224.632294 
	C69.420258,228.430801 69.626961,232.232590 69.076233,236.435608 
	C60.974262,232.426346 53.182159,228.011353 45.184166,223.326416 
z"/>
<path fill="#FAFAFA" opacity="1.000000" stroke="none" 
	d="
M120.047668,266.524902 
	C119.919785,251.846832 119.953339,237.390686 119.979485,222.465744 
	C118.743332,220.766266 118.007538,219.297729 118.021439,217.544922 
	C118.086014,209.402954 117.386009,201.244568 118.570892,192.630020 
	C118.845856,191.117004 119.344940,190.285980 120.770699,189.691574 
	C123.127815,190.277039 123.824455,191.882477 123.875214,193.550278 
	C124.133560,202.039505 124.349815,210.534576 123.762360,219.020935 
	C123.704224,219.860809 123.205879,220.579453 122.354919,221.618835 
	C122.036354,236.435989 122.044785,250.875046 122.080437,265.801300 
	C121.628792,267.079132 120.941391,267.005951 120.047668,266.524902 
z"/>
<path fill="#F2F2F2" opacity="1.000000" stroke="none" 
	d="
M10.811239,156.299194 
	C12.616789,155.844131 14.324800,155.860291 16.458725,155.855957 
	C17.798719,156.007477 18.736839,156.113449 19.760147,157.153885 
	C21.456146,161.269852 21.513815,164.989975 19.571749,169.052307 
	C16.769547,170.611206 14.257194,170.045792 11.344754,169.263367 
	C10.867179,164.920868 10.790440,160.845657 10.811239,156.299194 
z"/>
<path fill="#F1F2F2" opacity="1.000000" stroke="none" 
	d="
M18.428238,130.749039 
	C15.960741,130.935837 13.900121,130.926590 11.397058,130.922318 
	C10.873962,127.252121 10.793309,123.576958 10.825747,119.453323 
	C13.567185,118.170135 16.185577,118.234848 19.151222,119.375259 
	C21.363436,122.424278 21.136557,125.416855 20.289808,128.878159 
	C19.803270,129.834824 19.377485,130.253311 18.428238,130.749039 
z"/>
<path fill="#FAFAFA" opacity="1.000000" stroke="none" 
	d="
M10.838356,169.325211 
	C13.332145,168.992554 15.720370,168.988998 18.555332,168.981323 
	C19.626833,168.446777 20.200943,167.673004 21.006865,167.597687 
	C29.135666,166.837997 37.277786,165.879486 45.676353,168.526886 
	C46.348316,169.470627 46.375362,170.084076 45.655708,170.901566 
	C36.690086,171.185760 28.153234,170.461548 19.324383,171.748611 
	C16.641865,171.363190 14.273250,170.744034 11.362843,171.002655 
	C10.873658,170.554031 10.803226,170.104187 10.838356,169.325211 
z"/>
<path fill="#FAFAFA" opacity="1.000000" stroke="none" 
	d="
M68.910255,237.013641 
	C68.839531,233.124329 68.930687,229.407562 68.977562,225.690216 
	C68.998207,224.053223 69.074417,222.326599 66.373184,222.035172 
	C68.486046,220.443115 69.030830,218.154083 69.063698,215.276825 
	C69.157585,207.060059 68.380722,198.822952 69.759308,190.308380 
	C72.655807,192.746033 71.939735,196.122162 71.870209,199.422562 
	C71.717140,206.687134 71.495674,213.966034 73.136490,221.557587 
	C70.538124,221.908371 69.963028,223.371399 69.990181,225.520218 
	C70.036453,229.182434 69.959618,232.846222 69.903229,237.009872 
	C69.554741,237.514709 69.282127,237.406570 68.910255,237.013641 
z"/>
<path fill="#FAFAFA" opacity="1.000000" stroke="none" 
	d="
M19.454323,120.181625 
	C16.640947,119.363129 14.270300,118.747574 11.358084,119.004211 
	C10.881112,118.836746 10.823386,118.668625 10.850568,118.247765 
	C13.401630,118.043007 15.870001,118.109375 18.606285,117.051811 
	C22.885796,119.077515 27.067274,117.611191 31.097410,117.967323 
	C35.507034,118.357002 39.975788,117.450699 44.690887,118.742310 
	C44.184856,120.242355 42.831085,120.555588 41.545780,120.641548 
	C34.327232,121.124313 27.098883,121.693153 19.454323,120.181625 
z"/>
<path fill="#FAFAFA" opacity="1.000000" stroke="none" 
	d="
M18.990120,73.611435 
	C18.432991,73.776917 17.863544,73.544312 17.102009,73.063080 
	C17.371868,72.458527 17.833817,72.102600 18.589375,71.685043 
	C18.914589,72.153397 18.946194,72.683372 18.990120,73.611435 
z"/>
<path fill="#4D4D4D" opacity="1.000000" stroke="none" 
	d="
M200.054657,168.643188 
	C199.596176,169.414902 199.465591,169.933365 199.388275,170.720596 
	C197.481766,178.998688 191.300186,184.091400 185.828751,190.247803 
	C189.892532,191.421051 193.653152,190.564087 197.327118,190.842651 
	C198.604568,190.939499 200.082306,190.603378 200.180786,192.653564 
	C200.286316,194.850922 198.911804,194.983521 197.279938,194.974747 
	C192.127335,194.947052 186.974197,194.988663 181.822083,194.930588 
	C180.751862,194.918518 179.358582,195.473892 178.745621,194.039078 
	C178.142715,192.627838 178.834412,191.507980 179.812103,190.474976 
	C183.238449,186.854904 186.697876,183.262543 190.014236,179.543289 
	C192.007095,177.308319 193.730988,174.842697 194.287018,171.405304 
	C193.797119,170.718796 193.399490,170.337769 192.885590,169.512115 
	C191.545410,164.775146 188.369705,164.755661 184.816467,165.418884 
	C182.727692,165.808762 180.230133,166.651871 179.272720,163.852020 
	C178.284180,160.961212 180.211777,159.111298 182.536850,157.879379 
	C187.016129,155.506134 191.632904,155.596176 195.762192,158.446960 
	C199.066559,160.728210 201.964981,163.634094 200.054657,168.643188 
z"/>
<path fill="#535353" opacity="1.000000" stroke="none" 
	d="
M177.130890,170.722321 
	C175.354218,172.484329 173.452606,171.681030 171.366486,172.039062 
	C170.832062,172.253616 170.674377,172.368210 170.364868,172.732697 
	C170.147644,177.253067 170.035202,181.523499 170.033127,185.794006 
	C170.031708,188.697754 170.107330,191.648911 174.353745,191.281433 
	C175.600540,191.173523 176.053116,191.907257 176.155182,193.066376 
	C176.318695,194.923660 175.049103,195.197815 173.361633,195.596375 
	C172.833496,195.973892 172.642120,196.186264 172.059067,196.574020 
	C166.300629,196.040070 163.899261,193.657974 163.230560,188.159317 
	C162.748840,184.198166 163.151535,180.201645 162.884888,175.855270 
	C162.700089,175.016403 162.524445,174.569199 162.038025,173.887985 
	C161.130829,172.899521 160.496399,172.152023 160.025940,170.849060 
	C162.106735,166.277115 162.482803,160.552048 169.248505,160.068420 
	C172.442322,161.196259 170.260239,165.208389 173.570801,166.206573 
	C175.298233,166.468597 176.509293,166.932846 177.508362,168.460999 
	C177.737335,169.393204 177.655563,169.923325 177.130890,170.722321 
z"/>
<path fill="#FAFAFA" opacity="1.000000" stroke="none" 
	d="
M171.650787,196.069733 
	C172.150482,195.699585 172.325714,195.642822 172.762909,195.673798 
	C173.018204,202.735321 173.053253,209.709579 172.979660,216.682693 
	C172.957245,218.806503 173.108902,220.682678 175.757263,221.744629 
	C173.683350,221.916672 172.950516,223.213287 172.999573,225.359528 
	C173.066101,228.270447 173.010681,231.184158 173.007172,234.563385 
	C171.076035,232.311508 172.353607,229.220352 172.006454,226.317688 
	C171.800827,224.598297 172.507217,222.451859 169.382996,222.031525 
	C170.392639,215.063477 169.830429,208.028152 170.004684,201.028717 
	C170.046021,199.368484 170.250397,197.750824 171.650787,196.069733 
z"/>
<path fill="#FAFAFA" opacity="1.000000" stroke="none" 
	d="
M177.322968,171.011566 
	C176.798630,170.562973 176.753006,170.110718 176.795197,169.326935 
	C182.344345,165.607986 187.949432,166.279175 194.060532,168.650925 
	C194.551056,169.388733 194.587006,169.878860 194.444458,170.697250 
	C188.777893,171.019653 183.289795,171.013794 177.322968,171.011566 
z"/>
<path fill="#EBEBEB" opacity="1.000000" stroke="none" 
	d="
M170.373001,172.872269 
	C170.303925,172.691193 170.394775,172.399780 170.737686,172.123688 
	C170.882950,172.379990 170.730667,172.587631 170.373001,172.872269 
z"/>
<path fill="#54A8F8" opacity="1.000000" stroke="none" 
	d="
M67.935745,101.789871 
	C68.342491,102.264076 68.499878,102.510811 68.937515,102.814072 
	C69.542732,103.152946 69.970398,103.345963 70.698166,103.727905 
	C71.841835,104.829597 72.499252,105.848648 73.152092,107.314240 
	C73.975029,110.472260 73.925079,113.238029 72.681839,116.294739 
	C72.342575,117.377914 72.036064,118.063477 71.452087,119.032097 
	C70.979660,119.767448 70.663223,120.152351 70.071312,120.796860 
	C69.336601,121.666870 68.860191,122.265274 67.954002,122.991776 
	C62.342239,126.031113 57.014622,126.554047 51.293137,123.247726 
	C49.729671,122.016151 48.590984,120.930466 48.246483,118.881271 
	C47.878868,117.223953 47.466785,115.969711 47.162621,114.689819 
	C45.880295,109.293884 47.723286,104.020767 51.908119,101.009247 
	C56.470760,97.725830 61.742451,97.930382 67.935745,101.789871 
z"/>
<path fill="#EFEFEF" opacity="1.000000" stroke="none" 
	d="
M19.005333,120.469864 
	C23.421013,117.905540 28.101797,119.354134 32.649593,119.056480 
	C36.442028,118.808258 40.263676,119.006371 44.542465,119.006790 
	C45.270081,119.050781 45.527618,119.094788 46.169472,119.215576 
	C46.536842,119.794731 46.536785,120.415085 46.185841,120.705116 
	C39.582642,126.162186 32.994156,131.653091 24.336250,134.324493 
	C22.464340,133.331558 20.942280,132.458755 19.196568,131.348114 
	C18.832546,130.918076 18.692177,130.725906 18.778671,130.258133 
	C19.005228,126.962219 19.004919,123.941910 19.005333,120.469864 
z"/>
<path fill="#4F4F4F" opacity="1.000000" stroke="none" 
	d="
M23.999794,134.519592 
	C31.352253,129.409073 38.718113,124.613785 46.318878,119.555428 
	C46.941723,119.142883 47.329662,118.993423 47.979454,118.666977 
	C49.393341,118.986725 50.352169,119.692764 50.959026,121.183655 
	C51.283604,123.011154 50.347641,123.988693 49.264313,124.754784 
	C42.933006,129.232040 36.501896,133.563202 29.909498,137.648880 
	C28.915289,138.265045 27.801264,138.593155 26.266060,138.164856 
	C24.951298,137.146576 24.144556,136.196609 23.999794,134.519592 
z"/>
<path fill="#F0F0F0" opacity="1.000000" stroke="none" 
	d="
M68.880310,120.375122 
	C68.885201,119.595779 69.019447,119.334099 69.436859,119.007156 
	C71.604507,117.955460 73.647972,117.484848 75.870247,117.490791 
	C88.817574,117.525414 101.765327,117.460686 114.712479,117.533539 
	C120.489380,117.566040 121.509583,118.474121 121.446358,124.168411 
	C121.282501,138.926254 122.101280,153.694443 120.803391,168.817169 
	C120.055183,169.851395 119.264328,170.699661 118.565697,170.424042 
	C113.108398,168.270981 107.963341,170.467346 102.667641,171.163101 
	C100.731705,171.417435 99.962395,171.743958 99.942909,173.588074 
	C99.843559,182.989838 99.786736,192.390579 100.376152,201.798965 
	C101.405037,199.458145 100.890533,196.948853 101.503563,194.600418 
	C101.949677,192.891418 102.997849,190.830688 104.811142,191.957092 
	C109.834297,195.077438 114.357147,192.838821 119.391571,191.486694 
	C119.824776,201.387070 119.905289,211.223740 119.978935,221.528671 
	C104.632614,221.997940 89.293152,221.998932 73.487488,222.001053 
	C70.740097,220.827606 69.870285,219.108490 69.932869,216.411285 
	C70.129868,207.921814 70.010132,199.425003 70.021843,190.461487 
	C70.268982,189.967178 70.507294,189.942429 71.102318,189.873856 
	C72.710869,189.576736 73.802582,190.069885 74.716606,190.782684 
	C77.757385,193.153961 80.981728,193.344208 84.601334,192.255936 
	C88.218353,191.168427 89.891266,192.761826 89.344246,196.521515 
	C88.806511,200.217361 86.564590,202.442337 82.973030,203.364838 
	C80.858971,203.907837 78.689468,203.594177 76.431351,203.786728 
	C84.674622,206.189804 90.708969,202.042984 91.087036,193.639832 
	C91.371307,187.321548 91.159401,180.989746 91.168922,174.663940 
	C91.171913,172.679031 90.590706,172.016953 88.359962,171.121292 
	C83.211418,169.054092 78.424126,169.491287 73.016998,170.736359 
	C69.543144,170.164383 68.521782,168.104233 68.548851,165.292130 
	C68.691452,150.477310 68.030754,135.655716 68.880310,120.375122 
z"/>
<path fill="#4F4F4F" opacity="1.000000" stroke="none" 
	d="
M73.581467,170.011475 
	C78.374664,167.191483 82.794312,166.018173 87.227692,169.866058 
	C88.190018,170.701279 88.831062,170.877182 89.119049,169.292572 
	C89.425903,167.604141 90.850082,167.954346 91.909515,168.138458 
	C93.585503,168.429733 93.065414,169.916656 93.066093,170.962402 
	C93.071068,178.605637 93.264702,186.260468 92.913651,193.889313 
	C92.447617,204.016876 84.131317,209.225281 74.639893,205.635101 
	C73.285858,205.122940 71.584595,204.766022 72.223427,202.615295 
	C72.917320,200.279175 74.356499,201.408829 75.769707,201.766022 
	C84.453239,203.960770 88.390778,200.971634 88.032616,192.049347 
	C82.114616,195.806961 76.578148,196.245895 71.703262,190.042877 
	C69.694603,185.964264 69.245445,181.932938 69.906433,177.373917 
	C68.446602,173.470383 70.357071,171.560501 73.581467,170.011475 
z"/>
<path fill="#4D4D4D" opacity="1.000000" stroke="none" 
	d="
M45.091782,171.438507 
	C45.540951,171.064316 45.792294,170.912140 46.037399,170.419617 
	C46.796062,167.352142 49.043304,165.939590 51.541126,165.865463 
	C56.558414,165.716553 61.530666,166.543991 66.497528,168.484344 
	C66.737366,169.390961 66.664017,169.909912 66.171432,170.706863 
	C64.922165,178.462234 65.879471,185.964355 65.378525,193.429489 
	C64.688866,203.706940 58.397800,208.393951 48.439529,205.948502 
	C46.742523,205.531754 43.902409,205.569763 44.883987,202.433472 
	C45.788883,199.542160 47.652576,201.766846 48.935814,202.060211 
	C57.132950,203.934204 61.354950,200.294479 60.534325,191.600372 
	C56.158436,195.111496 51.578053,196.233795 46.817673,192.716034 
	C42.589890,189.591812 40.871094,182.885956 42.714401,176.752563 
	C43.233120,175.026596 44.205029,173.436813 45.091782,171.438507 
z"/>
<path fill="#F7F8F9" opacity="1.000000" stroke="none" 
	d="
M66.260635,171.098602 
	C65.853958,170.557022 65.802032,170.107529 65.845848,169.328110 
	C67.398369,166.908218 66.862068,164.505844 66.903275,162.233490 
	C67.143745,148.971954 66.637283,135.704819 67.181793,121.986343 
	C67.569405,121.085739 67.951729,120.643265 68.586899,120.051895 
	C70.558662,121.513496 69.975357,123.627098 69.981964,125.557091 
	C70.026299,138.527420 70.069443,151.498535 69.953728,164.467987 
	C69.929710,167.159912 70.477150,169.002197 73.679611,169.683533 
	C72.412704,171.899139 70.909454,173.903687 70.025688,176.676193 
	C66.533958,176.322815 69.324509,172.212006 66.260635,171.098602 
z"/>
<path fill="#F0F0F0" opacity="1.000000" stroke="none" 
	d="
M171.665298,195.600830 
	C171.981522,202.508133 171.935593,209.260605 172.022934,216.011353 
	C172.052704,218.313126 171.666580,220.262146 169.225632,221.723877 
	C153.638550,222.000900 138.298706,221.999557 122.493393,221.997589 
	C121.602859,211.518341 122.757416,201.008713 121.118042,190.241486 
	C120.526955,189.543152 120.087837,189.108932 120.188721,188.645218 
	C121.387466,183.134933 120.290611,177.617203 120.501389,171.721527 
	C122.285789,169.527618 124.250938,169.405151 126.749481,170.235046 
	C129.758255,173.369003 128.796280,176.988525 128.953888,180.374451 
	C129.083618,183.161301 128.936279,185.957840 128.989899,188.026581 
	C129.661697,182.904404 127.817101,176.893280 130.469620,170.849792 
	C132.470932,169.205505 134.408173,169.108093 136.819962,169.791473 
	C140.042114,172.184662 138.296692,174.826431 137.669327,177.221207 
	C136.606598,181.277893 136.677078,185.052490 139.166718,188.601227 
	C141.907181,192.507477 146.150436,194.667740 149.628738,193.853317 
	C154.026245,192.823700 157.475082,188.742813 158.003876,183.819702 
	C158.269852,181.343353 158.147476,178.867722 157.686905,176.405716 
	C157.354568,174.629196 156.863831,172.830582 157.970947,170.779114 
	C159.023880,170.179428 159.787140,170.178467 160.875717,170.766708 
	C161.942520,171.314163 162.680450,171.631714 163.718170,172.034729 
	C164.190521,172.260086 164.363037,172.399979 164.775604,172.770966 
	C165.113846,177.749176 165.133423,182.499634 165.334366,187.242432 
	C165.504379,191.254913 166.493439,194.809631 171.665298,195.600830 
z"/>
<path fill="#F1F1F1" opacity="1.000000" stroke="none" 
	d="
M121.493271,99.199265 
	C122.458366,90.875793 122.045593,82.879951 121.900345,74.910019 
	C121.819534,70.475609 122.917229,68.745987 127.705658,68.889877 
	C139.009079,69.229546 150.335770,68.792763 161.639343,69.129707 
	C164.843002,69.225212 168.514465,66.291679 171.079712,69.254814 
	C173.321487,71.844307 171.578400,75.692741 172.063278,78.943611 
	C172.135574,79.428299 172.335159,79.894005 172.737915,80.684235 
	C173.143738,81.196388 173.287491,81.392799 173.487854,81.949570 
	C173.339920,83.900932 172.211594,84.925018 171.188110,85.964676 
	C167.686279,89.521873 168.095718,94.044601 167.881668,98.801224 
	C161.223358,105.332008 153.366684,109.515823 145.194946,113.855835 
	C139.902390,112.848602 135.350861,109.861694 129.618042,110.926514 
	C125.291351,108.016541 122.399429,104.440506 121.493271,99.199265 
z"/>
<path fill="#EFF0F1" opacity="1.000000" stroke="none" 
	d="
M70.421600,104.202370 
	C69.824745,103.844673 69.571541,103.621078 69.224396,103.161888 
	C71.036568,97.933868 69.703911,92.754204 69.952728,87.668755 
	C70.196251,82.691429 70.001846,77.693077 70.017921,72.704018 
	C70.023460,70.985939 70.090233,69.046684 72.418831,69.115181 
	C81.828384,69.391937 91.287155,67.934288 100.920235,70.231750 
	C101.239975,71.080795 101.307335,71.683296 101.001671,72.020523 
	C96.981964,76.455170 96.091827,81.865196 95.929825,87.894119 
	C88.014557,94.478340 79.956398,100.287590 70.421600,104.202370 
z"/>
<path fill="#0968C1" opacity="1.000000" stroke="none" 
	d="
M95.241440,88.032433 
	C93.681854,80.981544 94.514618,75.121017 100.965683,70.806389 
	C108.666756,68.353935 113.718307,69.545364 117.358742,74.396706 
	C121.001900,79.251671 120.721153,84.494324 116.298042,91.318497 
	C115.888313,93.343575 114.589996,94.144569 112.997482,95.168709 
	C106.898552,97.777519 101.925323,96.029610 96.987350,92.205917 
	C95.727341,90.972618 95.134705,89.833466 95.241440,88.032433 
z"/>
<path fill="#EFEFEF" opacity="1.000000" stroke="none" 
	d="
M173.292877,82.286301 
	C173.009033,81.867088 173.006714,81.693672 173.002197,81.260117 
	C173.242447,66.014023 170.873444,68.255486 185.915848,67.983513 
	C192.383224,67.866570 198.871033,68.556946 205.630432,67.287132 
	C205.942581,67.023148 206.374878,67.006577 206.591141,67.002579 
	C207.120514,68.701157 207.433609,70.403748 207.800049,72.471840 
	C207.399719,75.290649 205.345993,76.253151 203.524414,77.372475 
	C198.859253,80.239128 194.637817,83.872696 188.958618,85.668495 
	C183.869751,83.267227 178.719818,82.910301 173.292877,82.286301 
z"/>
<path fill="#4F4F4F" opacity="1.000000" stroke="none" 
	d="
M112.723785,94.039436 
	C113.783722,93.075775 114.692268,92.443207 115.863205,91.731689 
	C117.768280,93.887833 119.410980,96.122917 121.328224,98.599770 
	C123.978424,102.375687 126.354073,105.909828 128.883133,109.751190 
	C129.172363,112.236069 127.604012,112.554512 125.620407,112.792984 
	C122.647285,111.793419 121.758720,109.288948 120.055077,107.032318 
	C117.097504,102.803551 113.394081,99.431030 112.723785,94.039436 
z"/>
<path fill="#F2F2F2" opacity="1.000000" stroke="none" 
	d="
M194.560211,168.494385 
	C188.955124,168.931824 183.395126,168.965012 177.359070,168.996796 
	C176.060257,167.894348 174.846832,167.990997 173.333923,167.869659 
	C171.565720,166.583511 171.487350,164.947083 171.499222,163.258530 
	C171.596863,149.369522 171.332474,135.479294 171.743164,121.112671 
	C172.079071,120.007011 172.461044,119.489517 173.480743,119.043404 
	C188.085693,119.004189 202.203476,119.139709 216.315643,118.918083 
	C220.512878,118.852180 222.203903,119.825157 222.102570,124.411171 
	C221.812851,137.524002 221.852051,150.650040 222.086258,163.765091 
	C222.161621,167.986313 220.702393,169.295486 216.637253,169.068649 
	C211.338882,168.772995 206.013245,168.966171 200.213058,168.922729 
	C197.642761,159.107391 189.894943,155.260056 181.942703,160.077927 
	C180.689178,160.837402 179.161026,161.491302 180.002213,163.468399 
	C181.069717,165.977524 182.358612,164.084503 183.511581,163.600845 
	C189.522980,161.079010 192.627609,162.320328 194.560211,168.494385 
z"/>
<path fill="#F1F1F1" opacity="1.000000" stroke="none" 
	d="
M209.749115,76.183456 
	C213.231506,79.165955 216.839340,80.682640 221.588684,80.252228 
	C222.010605,91.254662 221.886429,102.213051 222.065628,113.166466 
	C222.125488,116.825203 220.961426,118.107925 217.233109,118.063240 
	C203.124542,117.894188 189.012695,117.996941 174.430908,118.000168 
	C173.669708,118.074471 173.379715,118.146599 172.735703,117.944778 
	C170.825241,113.994995 171.627289,110.183708 171.870438,106.025223 
	C173.005325,103.923630 174.681015,104.018440 176.339325,103.967766 
	C186.487915,103.657616 189.824844,100.266869 189.916840,90.219032 
	C189.921356,89.725586 189.996719,89.237320 190.200867,88.387695 
	C195.841202,82.728500 202.030762,78.497574 209.749115,76.183456 
z"/>
<path fill="#EEEEEE" opacity="1.000000" stroke="none" 
	d="
M172.767456,117.843269 
	C173.043594,118.005798 173.502167,118.005608 173.730942,118.003983 
	C173.962936,118.169456 173.966141,118.336571 173.969711,118.754501 
	C173.684967,119.139786 173.443375,119.329605 173.121414,119.771324 
	C172.842712,120.114090 172.687866,120.260315 172.224304,120.322159 
	C171.786011,120.067848 171.656433,119.897911 171.464417,119.413239 
	C171.445175,118.888992 171.488327,118.679474 171.721375,118.211563 
	C172.104614,117.862358 172.297974,117.771553 172.767456,117.843269 
z"/>
<path fill="#F1F1F1" opacity="1.000000" stroke="none" 
	d="
M66.865356,121.640152 
	C69.312904,122.789597 68.985138,124.898888 68.987556,126.861534 
	C69.002869,139.310898 69.024445,151.760452 68.963577,164.209549 
	C68.954689,166.026764 69.780113,168.438889 66.350647,168.969421 
	C65.395988,168.686035 64.525803,167.978149 64.352684,168.120148 
	C60.839630,171.001465 57.763802,168.048294 54.498367,167.534515 
	C51.610023,167.080093 49.030239,168.119110 46.439999,170.075104 
	C44.046543,168.175400 41.449821,169.088242 39.089493,169.042236 
	C32.708035,168.917892 26.322653,168.995087 19.470446,168.984772 
	C19.001959,165.294846 19.001852,161.612473 19.002203,157.470245 
	C18.620750,156.622681 18.472382,156.160095 18.778111,155.310120 
	C24.577660,150.990067 28.280548,146.172714 25.968521,138.380753 
	C34.106590,132.614487 42.277328,127.240829 50.757973,121.668213 
	C56.181297,124.034554 61.324245,124.984314 66.865356,121.640152 
z"/>
<path fill="#FAFAFA" opacity="1.000000" stroke="none" 
	d="
M18.704424,155.016449 
	C18.999454,155.444839 19.000269,155.892014 19.001871,156.674789 
	C18.429518,156.784225 17.856377,156.558060 17.083939,156.083679 
	C17.393162,155.568741 17.901686,155.302002 18.704424,155.016449 
z"/>
<path fill="#FAFAFA" opacity="1.000000" stroke="none" 
	d="
M18.805889,130.104309 
	C19.001459,130.170227 18.997381,130.357941 18.983110,130.827942 
	C18.972916,131.110245 18.493031,131.050552 18.257196,130.997818 
	C18.160799,130.660248 18.355759,130.420593 18.805889,130.104309 
z"/>
<path fill="#4F4F4F" opacity="1.000000" stroke="none" 
	d="
M210.005692,75.987267 
	C203.994354,80.126968 197.865051,84.000671 191.404999,87.973289 
	C189.190735,88.391006 188.899063,87.087952 188.821732,85.348099 
	C195.056519,81.027069 201.143845,77.074692 207.542282,72.979828 
	C208.531509,73.798653 209.209625,74.759956 210.005692,75.987267 
z"/>
<path fill="#4B4B4B" opacity="1.000000" stroke="none" 
	d="
M120.526352,171.873596 
	C123.142296,177.820526 123.414963,183.459091 120.888306,189.553253 
	C120.507484,190.309738 120.189430,190.684708 119.807816,191.305054 
	C114.742714,196.246002 109.387871,196.977707 103.175056,192.212753 
	C103.175056,196.391296 103.185295,199.811935 103.170013,203.232483 
	C103.163933,204.593552 103.156548,205.858795 101.174835,205.931091 
	C99.142662,206.005249 98.622871,205.053192 98.620255,203.247864 
	C98.604401,192.298233 98.541916,181.348679 98.484451,170.399155 
	C98.468773,167.411835 101.341446,167.244675 101.892761,168.565628 
	C103.413849,172.210175 104.553772,170.096191 106.267021,169.066833 
	C110.392151,166.588425 114.461853,166.844757 118.610321,170.006409 
	C119.753990,170.266281 120.262108,170.758255 120.526352,171.873596 
z"/>
<path fill="#F0F0F0" opacity="1.000000" stroke="none" 
	d="
M171.671478,118.713326 
	C172.004272,119.048798 172.003418,119.504417 172.001709,119.732224 
	C173.118500,129.022629 172.229767,138.121567 172.480896,147.200485 
	C172.581680,150.843643 172.524643,154.492249 172.482330,158.137726 
	C172.467834,159.387314 172.899567,160.918304 170.557022,161.156647 
	C166.967880,160.430603 164.584549,161.361176 165.385696,164.904526 
	C166.246460,168.711456 160.965775,167.215302 161.290009,170.620636 
	C160.221573,171.066650 159.238571,171.136673 157.770599,171.295074 
	C156.816986,171.567245 156.233200,171.775467 155.848801,171.537094 
	C150.343948,168.123718 144.873398,169.280350 139.061890,171.474976 
	C136.607712,171.245941 134.488983,171.123154 131.921600,171.000412 
	C127.679741,168.678818 129.804825,164.825165 128.979065,161.874176 
	C128.612778,164.403839 129.404755,167.438141 126.524765,169.715790 
	C122.631920,170.398209 120.910744,169.152084 120.969864,165.345566 
	C121.156677,153.315887 120.800911,141.281982 121.315048,128.846039 
	C123.635918,126.278603 125.398773,127.968590 127.135605,129.105408 
	C135.952866,134.876663 142.382660,132.615555 145.412430,122.618935 
	C145.945801,120.859032 146.545883,119.165825 148.604065,117.945679 
	C156.457626,117.683121 163.936050,116.620178 171.671478,118.713326 
z"/>
<path fill="#FAFAFA" opacity="1.000000" stroke="none" 
	d="
M170.080292,161.398407 
	C172.865448,160.118378 171.944626,157.778946 171.956116,155.982574 
	C172.030945,144.290939 171.995483,132.598587 171.998062,120.433250 
	C172.000000,119.960022 172.498764,119.968803 172.748169,119.968338 
	C172.995590,135.605057 172.993637,151.242249 172.990601,167.334366 
	C167.360931,168.086304 171.147491,163.757935 170.080292,161.398407 
z"/>
<path fill="#F0F0F0" opacity="1.000000" stroke="none" 
	d="
M165.021942,172.717300 
	C164.732376,172.885101 164.487427,172.713516 164.149384,172.303726 
	C164.354752,172.224304 164.691498,172.328445 165.021942,172.717300 
z"/>
<path fill="#F0F0F1" opacity="1.000000" stroke="none" 
	d="
M112.490784,93.772858 
	C115.547989,97.575241 118.220810,101.442146 120.976738,105.640198 
	C122.792404,118.133034 122.467613,118.497551 109.898544,118.497559 
	C99.273247,118.497559 88.647911,118.482994 78.022682,118.509651 
	C75.849609,118.515099 73.709297,118.455147 71.294060,117.278625 
	C71.754799,114.163094 72.194916,111.289589 71.924896,107.931023 
	C71.861916,105.982292 72.882500,105.082565 73.998199,104.391052 
	C80.712402,100.229614 87.140198,95.628380 93.871803,91.496239 
	C94.718597,90.976456 95.660416,90.660378 97.062271,90.754570 
	C101.837753,94.111862 106.570900,95.886681 112.490784,93.772858 
z"/>
<path fill="#F7F8F9" opacity="1.000000" stroke="none" 
	d="
M70.696335,117.187561 
	C85.707100,119.086395 100.585022,117.564240 115.421738,117.937523 
	C118.657959,118.018944 120.184074,116.309189 120.043205,112.945663 
	C119.954895,110.836937 119.579445,108.645729 120.789749,106.280426 
	C122.464272,107.868317 123.868706,109.765289 125.559540,111.896019 
	C125.739517,117.232445 123.337959,122.025963 123.613510,127.539307 
	C121.764961,129.007202 122.013435,130.748489 122.011330,132.381622 
	C121.997452,143.154282 122.053535,153.927383 121.970016,164.699432 
	C121.948975,167.413559 122.407471,169.347076 126.102470,169.008377 
	C127.155563,169.281784 127.410271,169.767044 126.880264,170.727875 
	C124.677032,170.966431 122.856972,170.948837 120.852661,172.085892 
	C120.030182,171.712875 119.567551,171.179459 119.021797,170.393188 
	C119.839371,168.484192 120.013466,166.699814 120.010071,164.843445 
	C119.985161,151.237076 119.868248,137.628662 120.076340,124.025429 
	C120.137085,120.054298 118.824814,118.884438 114.929420,118.929588 
	C100.163879,119.100716 85.394852,118.970192 70.129181,118.924408 
	C69.915596,118.392517 70.199966,117.888710 70.696335,117.187561 
z"/>
<path fill="#4D4D4D" opacity="1.000000" stroke="none" 
	d="
M97.309441,90.466202 
	C89.162994,96.237488 80.890335,101.715752 72.285660,107.362137 
	C71.372444,106.594864 70.791245,105.659485 70.143997,104.396179 
	C78.251839,98.704117 86.425735,93.339973 94.945221,87.809387 
	C95.921616,88.486359 96.552422,89.329773 97.309441,90.466202 
z"/>
<path fill="#EBEBEB" opacity="1.000000" stroke="none" 
	d="
M74.428879,183.450928 
	C74.061119,180.361359 74.389191,177.737686 75.672516,175.342209 
	C77.334679,172.239578 79.893951,170.675400 83.472565,171.648895 
	C87.521133,172.750214 88.967155,176.585892 88.329216,183.863678 
	C88.003853,187.575424 86.361450,190.385269 82.519974,190.837311 
	C77.550674,191.422073 75.445175,188.165939 74.428879,183.450928 
z"/>
<path fill="#EBEBEB" opacity="1.000000" stroke="none" 
	d="
M49.923752,172.985764 
	C56.479755,169.962585 60.610546,172.480301 60.899837,179.267670 
	C60.949245,180.426880 60.942459,181.591339 60.900444,182.751144 
	C60.717384,187.804672 58.130604,190.924667 54.123531,190.959488 
	C50.343628,190.992310 47.478939,188.073532 46.956699,183.462006 
	C46.535103,179.739166 46.855907,176.148666 49.923752,172.985764 
z"/>
<path fill="#4B4B4B" opacity="1.000000" stroke="none" 
	d="
M138.561554,171.696808 
	C145.546448,166.183899 150.508011,166.092957 157.004395,171.211182 
	C160.128357,175.617081 160.817017,180.292267 159.892136,185.201996 
	C158.720520,191.421417 153.736694,195.534775 147.638290,195.506500 
	C141.506989,195.478073 136.875153,191.335800 135.809647,184.856155 
	C135.054840,180.266052 135.681732,175.928314 138.561554,171.696808 
z"/>
<path fill="#434343" opacity="1.000000" stroke="none" 
	d="
M126.602509,171.450562 
	C126.563087,170.547897 126.627686,170.103867 126.595100,169.333923 
	C126.583702,165.527939 126.690704,162.048233 126.745735,158.567688 
	C126.770782,156.983688 126.762253,155.602005 129.025925,155.614975 
	C131.324982,155.628143 131.235916,157.086655 131.239059,158.624939 
	C131.246841,162.445053 131.255966,166.265152 131.368744,170.542862 
	C131.396469,177.818939 131.338135,184.637726 131.229935,191.455704 
	C131.205002,193.027145 131.686142,194.945297 128.962677,194.910156 
	C126.237404,194.874985 126.784187,192.925003 126.769661,191.384903 
	C126.708450,184.893372 126.720970,178.401154 126.602509,171.450562 
z"/>
<path fill="#062956" opacity="1.000000" stroke="none" 
	d="
M188.653107,84.835350 
	C189.508560,85.878754 190.047943,86.778061 190.830780,87.874786 
	C191.844498,92.174583 192.270081,96.211929 189.877899,100.031487 
	C186.562653,105.324883 180.871613,107.108711 173.421051,104.877853 
	C172.895798,105.004303 172.773911,105.194321 172.315048,105.430244 
	C170.551025,105.187149 169.635223,104.172409 168.495941,102.914185 
	C167.658310,101.730026 167.153381,100.758232 167.118866,99.282974 
	C165.828903,92.450554 166.254517,86.523209 172.810577,82.309769 
	C178.628632,79.982979 183.824997,80.358910 188.653107,84.835350 
z"/>
<path fill="#1B5288" opacity="1.000000" stroke="none" 
	d="
M123.660080,128.079193 
	C121.180054,122.443192 121.872543,117.430595 125.696899,112.485847 
	C126.793068,111.581749 127.740204,111.033707 128.861938,110.272034 
	C134.598831,108.270454 139.676910,109.035118 144.492920,113.040100 
	C146.018661,113.371338 146.800781,114.162964 147.686829,115.358475 
	C148.212616,116.249535 148.407959,116.899948 148.423477,117.927704 
	C148.234406,118.438713 148.090912,118.613091 147.625458,118.892670 
	C147.412506,127.020096 144.777237,131.692047 139.014206,133.693604 
	C133.445007,135.627838 128.448715,133.839615 123.660080,128.079193 
z"/>
<path fill="#4F4F4F" opacity="1.000000" stroke="none" 
	d="
M147.204956,116.382523 
	C146.244263,115.393402 145.619766,114.575577 144.909744,113.455170 
	C152.036026,108.497154 159.247849,103.841721 166.796051,99.071243 
	C167.742722,99.766914 168.353027,100.577621 169.021637,101.695152 
	C169.495636,103.585754 168.467239,104.546333 167.412247,105.281349 
	C161.877533,109.137428 156.156586,112.711166 150.395569,116.217644 
	C149.545654,116.734955 148.547119,116.905708 147.204956,116.382523 
z"/>
<path fill="#FAFAFA" opacity="1.000000" stroke="none" 
	d="
M171.756195,104.532051 
	C172.341522,104.268433 172.524307,104.307800 172.862396,104.580734 
	C173.017456,108.901131 173.017242,112.987976 173.030304,117.540314 
	C172.873688,118.010864 172.703766,118.015930 171.890152,117.701706 
	C169.322342,113.183220 169.301651,109.000282 171.756195,104.532051 
z"/>
<path fill="#FAFAFA" opacity="1.000000" stroke="none" 
	d="
M147.821808,119.000443 
	C147.303482,118.997864 147.076630,118.565025 147.094788,118.321358 
	C155.035599,114.557396 163.096283,115.265907 171.588989,117.634766 
	C171.977997,117.977997 172.000061,118.000000 172.011978,118.011734 
	C172.021683,118.194168 172.019455,118.364876 172.010742,118.792191 
	C164.116226,119.033539 156.228195,119.018288 147.821808,119.000443 
z"/>
<path fill="#EBEBEB" opacity="1.000000" stroke="none" 
	d="
M104.434341,188.241425 
	C102.623482,184.043808 102.679596,180.096054 104.008797,176.216797 
	C105.012970,173.286148 107.268524,171.502487 110.383652,171.418716 
	C113.545090,171.333679 115.666977,173.179169 116.892250,176.017044 
	C118.121880,178.865021 118.285919,181.842285 117.576096,184.832275 
	C115.893875,191.918228 110.117844,193.570145 104.434341,188.241425 
z"/>
<path fill="#EBEBEB" opacity="1.000000" stroke="none" 
	d="
M154.784973,176.848419 
	C155.666183,180.213379 155.719635,183.184341 154.735367,186.086960 
	C153.968628,188.348114 152.665436,190.290298 150.331528,191.205490 
	C146.321289,192.778030 143.565628,191.000839 141.658295,187.599182 
	C138.817871,182.533447 140.168823,174.716919 144.342819,172.244019 
	C147.916840,170.126602 151.031799,171.009430 153.501740,174.248779 
	C153.996582,174.897766 154.279068,175.708694 154.784973,176.848419 
z"/>
<path fill="#EEEEEE" opacity="1.000000" stroke="none" 
	d="
M171.981628,117.509720 
	C164.042114,118.001541 156.106247,118.025085 147.641647,118.063164 
	C147.007019,117.778831 146.879517,117.485252 146.804443,117.178841 
	C146.767715,117.028961 146.828491,116.855194 146.856949,116.451736 
	C154.130692,111.654556 161.392624,107.097885 168.867249,102.271591 
	C169.996216,102.596474 170.912491,103.190971 171.993759,104.007263 
	C172.100937,108.499847 172.043106,112.770645 171.981628,117.509720 
z"/>
</svg>