<svg version="1.1" id="Layer_1" xmlns="http://www.w3.org/2000/svg" xmlns:xlink="http://www.w3.org/1999/xlink" x="0px" y="0px"
	 width="100%" viewBox="0 0 820 1093" enable-background="new 0 0 820 1093" xml:space="preserve">
<path fill="#F6F6F6" opacity="1.000000" stroke="none" 
	d="
M492.000000,1094.000000 
	C328.000000,1094.000000 164.500000,1094.000000 1.000000,1094.000000 
	C1.000000,729.666687 1.000000,365.333344 1.000000,1.000000 
	C274.333344,1.000000 547.666687,1.000000 821.000000,1.000000 
	C821.000000,365.333344 821.000000,729.666687 821.000000,1094.000000 
	C711.500000,1094.000000 602.000000,1094.000000 492.000000,1094.000000 
M317.381226,677.986755 
	C317.272003,678.321716 317.162781,678.656738 316.592682,679.568665 
	C315.736603,681.433167 314.876190,683.295654 314.025269,685.162476 
	C312.550568,688.397949 311.081787,691.636169 309.036102,695.275696 
	C308.048828,697.285278 307.538116,699.827515 305.991119,701.211487 
	C299.562469,706.962952 298.859436,715.272095 295.348724,723.010742 
	C295.236206,723.668213 295.123688,724.325745 294.744476,725.273804 
	C294.744476,725.273804 294.796021,725.664856 294.300629,726.189209 
	C285.103271,747.216736 279.948242,769.291443 276.982269,792.809265 
	C276.339844,800.405334 274.899841,808.036011 275.228210,815.589905 
	C275.831207,829.462646 273.029205,843.403259 277.119354,857.286133 
	C278.924805,863.414307 277.902435,870.375610 278.393433,877.682922 
	C279.604248,884.769592 280.866943,891.848022 281.994751,898.947876 
	C282.339569,901.118469 281.345459,903.887268 284.943451,904.962158 
	C285.578979,906.955139 286.214508,908.948120 286.827789,911.842590 
	C287.701660,914.576660 284.849243,918.253479 289.008514,920.642456 
	C289.008514,920.642456 289.327393,920.992249 289.161957,921.812744 
	C289.746429,923.751160 290.336212,925.687927 290.914215,927.628296 
	C291.879700,930.869568 292.756592,934.140015 293.817413,937.349670 
	C295.499115,942.438232 297.033691,947.601257 299.133636,952.517883 
	C300.981873,956.845154 303.602844,960.835999 305.731262,965.051758 
	C308.239380,970.019653 310.247284,975.273560 313.111969,980.016968 
	C315.236389,983.534607 318.722504,986.212097 320.988525,989.666382 
	C323.964325,994.202576 326.299255,999.155945 328.995056,1003.881287 
	C329.713440,1005.140564 330.557922,1006.449463 331.660522,1007.347839 
	C337.970001,1012.489014 340.532623,1020.881958 347.464813,1025.459473 
	C347.581665,1025.536621 347.677551,1025.762817 347.661926,1025.906250 
	C347.223419,1029.926758 350.704987,1030.977295 352.998871,1032.877075 
	C356.685089,1035.930054 360.692169,1038.633911 364.139801,1041.928833 
	C371.483307,1048.947144 378.497528,1056.308716 385.778015,1063.394775 
	C387.572937,1065.141846 389.871552,1066.371460 391.961639,1067.855225 
	C392.881592,1066.303101 393.313751,1065.405029 393.895996,1064.618042 
	C399.203064,1057.445435 404.574524,1050.320312 409.851471,1043.125732 
	C415.517242,1035.401245 420.984039,1027.528320 426.754242,1019.883667 
	C432.426910,1012.368042 438.531952,1005.177246 444.158539,997.628662 
	C452.350189,986.638794 460.147797,975.354736 468.364899,964.384460 
	C476.386475,953.675049 484.746155,943.219360 492.910706,932.616333 
	C495.834198,928.819580 498.609344,924.908997 501.472778,921.065674 
	C507.690735,912.719788 513.899536,904.367004 520.154358,896.048889 
	C525.617554,888.783386 531.167297,881.583008 536.626709,874.314697 
	C542.972839,865.865845 549.337036,857.428650 555.548523,848.881226 
	C559.320740,843.690430 562.818970,838.300598 567.035950,832.579041 
	C573.345703,824.525146 579.770386,816.557617 585.916199,808.380493 
	C588.950378,804.343506 591.469849,799.919739 594.868896,795.344238 
	C600.490662,787.603333 606.117798,779.866333 611.731506,772.119568 
	C613.906677,769.117859 616.051636,766.094238 618.797546,762.756714 
	C623.190857,756.942078 627.584106,751.127441 632.662903,745.144104 
	C633.141724,744.113647 633.620483,743.083130 634.045898,742.056335 
	C634.045898,742.056335 634.085205,742.096436 634.671265,741.772522 
	C641.153625,733.463013 647.726562,725.222229 654.091797,716.823975 
	C659.957275,709.085144 665.518555,701.116028 671.362854,693.360718 
	C677.209900,685.601807 683.337158,678.053467 689.152222,670.271362 
	C692.056030,666.385376 694.537231,662.183655 697.760376,657.759766 
	C703.068359,650.822815 708.359619,643.872986 713.688721,636.952271 
	C719.615417,629.255615 725.671326,621.656555 731.498779,613.885925 
	C738.682251,604.307190 745.688232,594.595276 753.235718,584.433655 
	C756.226685,580.323425 759.154846,576.165710 762.220581,572.112000 
	C770.521301,561.136719 778.880493,550.205627 787.207031,539.214111 
	C787.207031,539.214111 787.198364,539.171448 787.749512,538.856628 
	C787.802917,538.244568 787.856323,537.632446 788.203369,536.494812 
	C788.467102,535.993469 788.730835,535.492065 789.425171,534.639954 
	C789.834961,534.092529 790.244690,533.545044 791.250305,532.582520 
	C791.539978,532.203491 791.829651,531.824463 792.331360,531.479797 
	C792.331360,531.479797 792.445984,531.118591 793.053955,530.819580 
	C793.392212,530.265259 793.730469,529.710876 794.605469,528.750671 
	C795.871460,527.256470 797.229187,525.829895 798.388306,524.256958 
	C804.840210,515.501892 810.396790,506.413239 809.867065,494.882019 
	C809.746460,492.258240 810.703735,489.565216 810.456726,486.971497 
	C810.054810,482.750122 809.359558,478.503235 808.221436,474.425293 
	C807.536377,471.970764 805.778076,469.815765 803.985229,467.005890 
	C801.420715,462.237091 798.481018,457.844574 792.684875,455.409576 
	C784.474060,449.500641 774.974121,447.935760 765.249390,447.894745 
	C729.160156,447.742584 693.069946,447.818512 656.980103,447.835297 
	C652.331665,447.837463 647.683350,447.995605 642.104919,447.921722 
	C591.788269,447.896912 541.471680,447.872101 491.237030,447.176636 
	C491.787781,446.161804 492.256409,445.091309 492.901001,444.140015 
	C539.195801,375.813171 553.421204,300.785187 538.572144,220.158432 
	C526.426880,154.212326 493.537994,99.723274 444.045746,54.961746 
	C438.934479,50.339027 433.433899,46.146709 428.005951,41.665485 
	C426.927643,42.989124 426.385498,43.610271 425.891418,44.267551 
	C407.074249,69.298744 388.247711,94.322906 369.450500,119.369026 
	C254.472778,272.569550 139.562286,425.820648 24.406199,578.886963 
	C15.822083,590.297119 9.810169,601.841736 11.845556,616.473877 
	C12.072937,618.108459 11.581910,619.867859 11.936422,621.454956 
	C12.755565,625.121948 13.176191,629.136719 15.015104,632.273865 
	C24.573196,648.579407 38.321625,657.198425 57.969494,657.135254 
	C148.942581,656.843018 239.917252,657.043823 330.781158,657.737061 
	C329.462250,660.052490 328.143341,662.367981 326.262604,665.126404 
	C323.805115,669.055786 321.347626,672.985168 318.954163,676.974731 
	C318.954163,676.974731 318.953003,676.886841 318.418152,677.026306 
	C318.223389,677.328186 318.028625,677.630066 317.936310,677.940002 
	C317.936310,677.940002 317.920776,677.838440 317.381226,677.986755 
z"/>
<path fill="#2683FD" opacity="1.000000" stroke="none" 
	d="
M330.891357,657.068054 
	C239.917252,657.043823 148.942581,656.843018 57.969494,657.135254 
	C38.321625,657.198425 24.573196,648.579407 15.015104,632.273865 
	C13.176191,629.136719 12.755565,625.121948 11.936422,621.454956 
	C11.581910,619.867859 12.072937,618.108459 11.845556,616.473877 
	C9.810169,601.841736 15.822083,590.297119 24.406199,578.886963 
	C139.562286,425.820648 254.472778,272.569550 369.450500,119.369026 
	C388.247711,94.322906 407.074249,69.298744 425.891418,44.267551 
	C426.385498,43.610271 426.927643,42.989124 428.005951,41.665485 
	C433.433899,46.146709 438.934479,50.339027 444.045746,54.961746 
	C493.537994,99.723274 526.426880,154.212326 538.572144,220.158432 
	C553.421204,300.785187 539.195801,375.813171 492.901001,444.140015 
	C492.256409,445.091309 491.787781,446.161804 490.891357,447.688110 
	C485.188110,455.133728 479.800568,462.044922 474.478760,469.006409 
	C460.930908,486.728333 447.342285,504.419861 433.910736,522.229736 
	C426.778748,531.686462 419.939697,541.364136 412.668365,551.108398 
	C411.853668,552.485474 411.338989,553.696106 410.583313,555.054993 
	C409.889709,555.796143 409.437134,556.389160 408.683350,557.131348 
	C406.058624,560.242981 403.725494,563.197876 401.413452,566.169250 
	C395.370636,573.935120 389.257751,581.648132 383.320648,589.494080 
	C376.446289,598.578613 369.729675,607.782532 362.694885,617.122437 
	C361.626343,618.226074 360.807556,619.141907 359.817474,620.131470 
	C359.758301,620.479065 359.870453,620.752808 359.841675,621.327271 
	C353.598389,629.499268 347.586273,637.442871 341.357178,645.212463 
	C338.063538,649.320618 334.392151,653.125977 330.891357,657.068054 
z"/>
<path fill="#2683FC" opacity="1.000000" stroke="none" 
	d="
M566.440247,833.000122 
	C562.818970,838.300598 559.320740,843.690430 555.548523,848.881226 
	C549.337036,857.428650 542.972839,865.865845 536.626709,874.314697 
	C531.167297,881.583008 525.617554,888.783386 520.154358,896.048889 
	C513.899536,904.367004 507.690735,912.719788 501.472778,921.065674 
	C498.609344,924.908997 495.834198,928.819580 492.910706,932.616333 
	C484.746155,943.219360 476.386475,953.675049 468.364899,964.384460 
	C460.147797,975.354736 452.350189,986.638794 444.158539,997.628662 
	C438.531952,1005.177246 432.426910,1012.368042 426.754242,1019.883667 
	C420.984039,1027.528320 415.517242,1035.401245 409.851471,1043.125732 
	C404.574524,1050.320312 399.203064,1057.445435 393.895996,1064.618042 
	C393.313751,1065.405029 392.881592,1066.303101 391.961639,1067.855225 
	C389.871552,1066.371460 387.572937,1065.141846 385.778015,1063.394775 
	C378.497528,1056.308716 371.483307,1048.947144 364.139801,1041.928833 
	C360.692169,1038.633911 356.685089,1035.930054 352.998871,1032.877075 
	C350.704987,1030.977295 347.223419,1029.926758 347.661926,1025.906250 
	C347.677551,1025.762817 347.581665,1025.536621 347.464813,1025.459473 
	C340.532623,1020.881958 337.970001,1012.489014 331.660522,1007.347839 
	C330.557922,1006.449463 329.713440,1005.140564 328.995056,1003.881287 
	C326.299255,999.155945 323.964325,994.202576 320.988525,989.666382 
	C318.722504,986.212097 315.236389,983.534607 313.111969,980.016968 
	C310.247284,975.273560 308.239380,970.019653 305.731262,965.051758 
	C303.602844,960.835999 300.981873,956.845154 299.133636,952.517883 
	C297.033691,947.601257 295.499115,942.438232 293.817413,937.349670 
	C292.756592,934.140015 291.879700,930.869568 290.914215,927.628296 
	C290.336212,925.687927 289.746429,923.751160 289.584839,921.461670 
	C292.719238,920.449829 295.454681,919.873657 298.138214,919.113953 
	C311.758789,915.258362 325.474792,911.693115 338.940979,907.354553 
	C348.570953,904.251892 357.752716,899.778931 367.330139,896.486511 
	C377.306580,893.056946 387.557434,890.434875 397.617310,887.236511 
	C413.295197,882.251953 428.923584,877.110718 444.553162,871.975464 
	C456.574890,868.025574 468.546967,863.923828 480.583374,860.019775 
	C483.874512,858.952271 487.415985,858.633301 490.672943,857.488220 
	C500.288422,854.107849 509.791168,850.407898 519.392883,846.987000 
	C525.435181,844.834290 531.580811,842.972778 537.671448,840.954590 
	C544.176270,838.799194 550.625793,836.461548 557.190308,834.508728 
	C560.160400,833.625305 563.350159,833.480164 566.440247,833.000122 
z"/>
<path fill="#136BE6" opacity="1.000000" stroke="none" 
	d="
M752.770874,584.940918 
	C745.688232,594.595276 738.682251,604.307190 731.498779,613.885925 
	C725.671326,621.656555 719.615417,629.255615 713.688721,636.952271 
	C708.359619,643.872986 703.068359,650.822815 697.144836,657.767517 
	C691.527893,653.692627 685.478821,654.023621 680.303284,657.804871 
	C677.923462,659.543640 674.650635,660.237488 671.673035,660.940674 
	C666.740723,662.105469 661.557373,662.395996 656.772217,663.953308 
	C648.569763,666.622742 640.644531,670.132629 632.498352,672.991882 
	C628.664246,674.337708 624.447327,674.617249 620.649231,676.036499 
	C612.392517,679.121765 604.448181,683.099182 596.092407,685.849731 
	C584.454712,689.680664 572.486755,692.500000 560.802429,696.201416 
	C555.477051,697.888428 550.629272,701.065247 545.318298,702.820435 
	C538.559937,705.053955 531.488281,706.321960 524.666870,708.386719 
	C515.955078,711.023682 507.339539,713.985718 498.724030,716.929138 
	C496.334290,717.745544 494.183655,719.373230 491.761383,719.958130 
	C487.552277,720.974487 483.088684,721.050415 478.974915,722.312866 
	C475.629181,723.339600 472.770660,725.876831 469.460785,727.115356 
	C464.561676,728.948425 459.447845,730.203979 454.437225,731.743713 
	C448.540375,733.555664 442.626587,735.319702 436.772766,737.262939 
	C426.111969,740.802002 415.489044,744.455261 404.852112,748.066040 
	C397.728241,750.484375 390.631866,752.987244 383.476044,755.306702 
	C379.105133,756.723450 374.585938,757.691711 370.239685,759.173279 
	C364.838562,761.014526 359.576935,763.261230 354.198700,765.174377 
	C350.216156,766.591064 346.149536,767.773865 342.109772,769.026733 
	C336.204041,770.858215 330.230286,772.490540 324.392975,774.517151 
	C317.722046,776.833252 311.208313,779.600220 304.548859,781.952026 
	C300.883545,783.246399 296.960510,783.828796 293.329651,785.198547 
	C287.888550,787.251221 282.602264,789.714233 277.250153,792.002747 
	C279.948242,769.291443 285.103271,747.216736 294.652557,726.295349 
	C296.075531,726.801941 298.033081,727.650208 298.089691,727.538147 
	C300.233429,723.294800 304.726166,724.261230 308.127136,723.020752 
	C314.432068,720.721008 320.846741,718.700134 327.282440,716.787598 
	C332.783844,715.152710 338.489258,714.152954 343.902252,712.285950 
	C349.791748,710.254517 355.354523,707.283997 361.227722,705.195190 
	C370.293945,701.970825 379.501923,699.144836 388.651947,696.156433 
	C395.155273,694.032349 401.647308,691.872009 408.171143,689.812561 
	C417.266388,686.941406 426.433075,684.288513 435.477997,681.269104 
	C440.623230,679.551453 445.492035,676.996155 450.650726,675.330261 
	C463.966156,671.030701 477.379791,667.035950 490.740906,662.876831 
	C495.930511,661.261353 501.132294,659.663574 506.242096,657.818481 
	C512.086914,655.708008 517.754456,653.086548 523.646667,651.132202 
	C531.088684,648.663635 538.717224,646.763184 546.196716,644.400574 
	C554.926331,641.642944 563.560425,638.583801 572.279968,635.792969 
	C575.868286,634.644531 579.674561,634.137207 583.203308,632.849487 
	C594.234985,628.823608 605.074951,624.249084 616.193054,620.490051 
	C626.111633,617.136597 636.389465,614.854980 646.346558,611.603455 
	C656.419861,608.314026 666.270020,604.347168 676.263550,600.805908 
	C683.061462,598.396912 689.892395,596.058777 696.793701,593.970459 
	C702.450378,592.258667 708.357056,591.324158 713.934204,589.408386 
	C726.459778,585.105713 738.840454,580.382019 751.313599,575.923462 
	C752.206665,575.604187 753.372070,576.046753 754.410889,576.135071 
	C754.306396,577.199829 754.287231,578.281616 754.078674,579.325623 
	C753.702515,581.209351 753.213074,583.070374 752.770874,584.940918 
M695.806091,652.412048 
	C695.801697,652.792664 695.797302,653.173279 695.792847,653.553894 
	C695.950745,653.555603 696.245911,653.568054 696.246704,653.557556 
	C696.276245,653.178772 696.278381,652.797913 695.806091,652.412048 
z"/>
<path fill="#1974EE" opacity="1.000000" stroke="none" 
	d="
M277.116211,792.406006 
	C282.602264,789.714233 287.888550,787.251221 293.329651,785.198547 
	C296.960510,783.828796 300.883545,783.246399 304.548859,781.952026 
	C311.208313,779.600220 317.722046,776.833252 324.392975,774.517151 
	C330.230286,772.490540 336.204041,770.858215 342.109772,769.026733 
	C346.149536,767.773865 350.216156,766.591064 354.198700,765.174377 
	C359.576935,763.261230 364.838562,761.014526 370.239685,759.173279 
	C374.585938,757.691711 379.105133,756.723450 383.476044,755.306702 
	C390.631866,752.987244 397.728241,750.484375 404.852112,748.066040 
	C415.489044,744.455261 426.111969,740.802002 436.772766,737.262939 
	C442.626587,735.319702 448.540375,733.555664 454.437225,731.743713 
	C459.447845,730.203979 464.561676,728.948425 469.460785,727.115356 
	C472.770660,725.876831 475.629181,723.339600 478.974915,722.312866 
	C483.088684,721.050415 487.552277,720.974487 491.761383,719.958130 
	C494.183655,719.373230 496.334290,717.745544 498.724030,716.929138 
	C507.339539,713.985718 515.955078,711.023682 524.666870,708.386719 
	C531.488281,706.321960 538.559937,705.053955 545.318298,702.820435 
	C550.629272,701.065247 555.477051,697.888428 560.802429,696.201416 
	C572.486755,692.500000 584.454712,689.680664 596.092407,685.849731 
	C604.448181,683.099182 612.392517,679.121765 620.649231,676.036499 
	C624.447327,674.617249 628.664246,674.337708 632.498352,672.991882 
	C640.644531,670.132629 648.569763,666.622742 656.772217,663.953308 
	C661.557373,662.395996 666.740723,662.105469 671.673035,660.940674 
	C674.650635,660.237488 677.923462,659.543640 680.303284,657.804871 
	C685.478821,654.023621 691.527893,653.692627 696.869507,657.949951 
	C694.537231,662.183655 692.056030,666.385376 689.152222,670.271362 
	C683.337158,678.053467 677.209900,685.601807 671.362854,693.360718 
	C665.518555,701.116028 659.957275,709.085144 654.091797,716.823975 
	C647.726562,725.222229 641.153625,733.463013 634.359436,741.560974 
	C636.339233,737.514587 638.630798,733.679810 641.604553,728.703430 
	C638.014282,729.139282 635.645264,729.037170 633.550598,729.745911 
	C622.078003,733.627747 610.694824,737.772766 599.237732,741.701538 
	C589.097290,745.178833 578.923157,748.561707 568.721130,751.853943 
	C560.805664,754.408386 552.807068,756.704590 544.883789,759.235840 
	C542.711548,759.929749 540.746155,761.281006 538.568420,761.945862 
	C527.752319,765.247986 516.855103,768.289612 506.075989,771.705261 
	C501.770844,773.069519 497.783234,775.420410 493.495636,776.858887 
	C486.560028,779.185852 479.469940,781.048096 472.494049,783.260864 
	C466.431854,785.183838 460.485962,787.481873 454.398254,789.313416 
	C449.212524,790.873596 443.756500,791.607117 438.670959,793.413025 
	C429.097168,796.812561 419.781097,800.938171 410.206177,804.334045 
	C404.807465,806.248779 399.029266,807.069580 393.560577,808.816711 
	C386.543488,811.058533 379.723389,813.915100 372.712494,816.178833 
	C364.733765,818.755127 356.508301,820.606323 348.623108,823.424622 
	C335.975800,827.944885 323.645996,833.370239 310.940765,837.706116 
	C301.946991,840.775452 292.572388,842.747192 283.333435,845.072327 
	C278.447388,846.302002 276.807343,849.499939 278.838287,853.858826 
	C279.579041,855.448669 279.980011,857.368530 279.932404,859.121460 
	C279.797577,864.084717 279.350616,869.039429 279.015686,874.321777 
	C278.724487,875.416931 278.444183,876.187805 278.163879,876.958679 
	C277.902435,870.375610 278.924805,863.414307 277.119354,857.286133 
	C273.029205,843.403259 275.831207,829.462646 275.228210,815.589905 
	C274.899841,808.036011 276.339844,800.405334 277.116211,792.406006 
z"/>
<path fill="#0B60DB" opacity="1.000000" stroke="none" 
	d="
M359.988770,620.057678 
	C360.807556,619.141907 361.626343,618.226074 362.941650,617.401611 
	C366.547333,616.694275 369.685150,615.989502 372.751526,615.051147 
	C373.986115,614.673401 374.989838,613.527222 376.225647,613.169556 
	C384.117249,610.885864 392.049896,608.744629 399.956818,606.513062 
	C403.131592,605.617004 406.316620,604.727600 409.423859,603.628540 
	C414.459137,601.847534 419.408691,599.824280 424.443329,598.041504 
	C427.847717,596.836060 431.377472,595.983887 434.778564,594.770203 
	C442.717682,591.937195 450.543793,588.772522 458.542358,586.124817 
	C470.403442,582.198547 482.417877,578.736023 494.282959,574.821350 
	C502.429535,572.133545 510.373718,568.833374 518.515747,566.130371 
	C529.748901,562.401062 541.094971,559.013245 552.368164,555.402466 
	C556.598816,554.047424 560.721008,552.349060 564.963684,551.036743 
	C570.774414,549.239380 576.725525,547.875732 582.481995,545.928772 
	C588.430542,543.916870 594.050354,540.707642 600.110718,539.298523 
	C613.171997,536.261475 626.015564,532.763184 638.206970,527.091797 
	C640.596008,525.980408 643.020447,524.876099 645.532898,524.110901 
	C656.214294,520.857422 667.006714,517.952454 677.618835,514.491821 
	C686.187195,511.697662 694.493286,508.107239 703.028992,505.202942 
	C712.631470,501.935608 722.357117,499.029358 732.037292,495.992096 
	C735.345093,494.954224 738.694580,494.048248 741.995361,492.989441 
	C749.155823,490.692413 756.311218,488.377625 763.441956,485.990021 
	C769.080078,484.102203 774.732056,482.235199 780.281189,480.106750 
	C787.972778,477.156525 795.478333,473.601562 804.337646,474.165344 
	C806.048828,477.860748 808.117310,481.290070 808.648804,484.942993 
	C809.203003,488.752106 808.648682,492.849335 807.901672,496.688843 
	C806.959778,501.529846 805.331970,506.237335 803.827515,510.685425 
	C802.481750,510.056671 801.177917,509.252533 800.158936,509.522675 
	C796.663330,510.449615 793.290283,511.826355 789.829651,512.899780 
	C777.223206,516.810059 764.188538,519.694092 752.096252,524.810730 
	C739.348633,530.204651 726.401001,534.404724 713.088135,537.997314 
	C701.145142,541.220276 689.557617,545.750610 677.781006,549.605835 
	C674.343201,550.731262 670.684021,551.229858 667.318848,552.518494 
	C658.366333,555.946594 649.637695,559.994324 640.584473,563.111511 
	C635.177612,564.973145 629.115112,564.939026 623.719482,566.823059 
	C611.632874,571.043457 599.869507,576.186157 587.800476,580.461914 
	C578.647827,583.704407 569.301086,586.473755 559.904724,588.934021 
	C549.092285,591.765076 539.110779,596.954163 527.905212,598.897644 
	C520.317322,600.213684 513.267090,604.435303 505.854797,607.007202 
	C496.707886,610.181030 487.428253,612.971252 478.218567,615.966064 
	C472.107880,617.953186 466.031158,620.044983 459.918365,622.025513 
	C448.481018,625.731018 436.989410,629.273560 425.595093,633.106018 
	C417.038910,635.983826 408.619110,639.264526 400.098022,642.250183 
	C396.991699,643.338562 393.775574,644.119507 390.596283,644.992188 
	C386.636414,646.079224 382.560669,646.834412 378.714935,648.229187 
	C368.530823,651.922729 358.462952,655.935486 348.309967,659.716797 
	C342.835754,661.755615 337.327179,663.733093 331.732391,665.396118 
	C330.294098,665.823669 328.470795,664.956055 326.824402,664.683472 
	C328.143341,662.367981 329.462250,660.052490 330.836243,657.402588 
	C334.392151,653.125977 338.063538,649.320618 341.357178,645.212463 
	C347.586273,637.442871 353.598389,629.499268 359.846313,621.084961 
	C359.991943,620.541931 359.988770,620.057678 359.988770,620.057678 
z"/>
<path fill="#1066E0" opacity="1.000000" stroke="none" 
	d="
M753.003296,584.687256 
	C753.213074,583.070374 753.702515,581.209351 754.078674,579.325623 
	C754.287231,578.281616 754.306396,577.199829 754.410889,576.135071 
	C753.372070,576.046753 752.206665,575.604187 751.313599,575.923462 
	C738.840454,580.382019 726.459778,585.105713 713.934204,589.408386 
	C708.357056,591.324158 702.450378,592.258667 696.793701,593.970459 
	C689.892395,596.058777 683.061462,598.396912 676.263550,600.805908 
	C666.270020,604.347168 656.419861,608.314026 646.346558,611.603455 
	C636.389465,614.854980 626.111633,617.136597 616.193054,620.490051 
	C605.074951,624.249084 594.234985,628.823608 583.203308,632.849487 
	C579.674561,634.137207 575.868286,634.644531 572.279968,635.792969 
	C563.560425,638.583801 554.926331,641.642944 546.196716,644.400574 
	C538.717224,646.763184 531.088684,648.663635 523.646667,651.132202 
	C517.754456,653.086548 512.086914,655.708008 506.242096,657.818481 
	C501.132294,659.663574 495.930511,661.261353 490.740906,662.876831 
	C477.379791,667.035950 463.966156,671.030701 450.650726,675.330261 
	C445.492035,676.996155 440.623230,679.551453 435.477997,681.269104 
	C426.433075,684.288513 417.266388,686.941406 408.171143,689.812561 
	C401.647308,691.872009 395.155273,694.032349 388.651947,696.156433 
	C379.501923,699.144836 370.293945,701.970825 361.227722,705.195190 
	C355.354523,707.283997 349.791748,710.254517 343.902252,712.285950 
	C338.489258,714.152954 332.783844,715.152710 327.282440,716.787598 
	C320.846741,718.700134 314.432068,720.721008 308.127136,723.020752 
	C304.726166,724.261230 300.233429,723.294800 298.089691,727.538147 
	C298.033081,727.650208 296.075531,726.801941 294.900269,726.033203 
	C294.796021,725.664856 294.744476,725.273804 295.138611,724.907104 
	C295.638214,723.874695 295.743652,723.209045 295.849121,722.543396 
	C298.859436,715.272095 299.562469,706.962952 305.991119,701.211487 
	C307.538116,699.827515 308.048828,697.285278 309.707703,695.080994 
	C315.113556,692.615601 319.639557,689.220581 324.623383,688.297607 
	C336.690552,686.062866 347.897369,681.508728 359.275757,677.327881 
	C361.258209,676.599426 363.150848,675.601624 365.163666,674.985107 
	C374.245911,672.202942 383.425323,669.721130 392.438416,666.734741 
	C402.412811,663.429749 412.218353,659.618774 422.146759,656.170166 
	C429.471039,653.626099 436.885773,651.343750 444.239807,648.883728 
	C453.797424,645.686584 463.280762,642.256226 472.896729,639.247864 
	C481.801910,636.461853 490.921478,634.352661 499.797424,631.483765 
	C510.078156,628.160889 520.172913,624.266907 530.394165,620.753967 
	C535.699829,618.930420 541.126953,617.463379 546.458130,615.710266 
	C553.120972,613.519226 559.705933,611.087097 566.391052,608.968933 
	C572.360535,607.077576 578.549683,605.822083 584.411560,603.661011 
	C594.136841,600.075500 603.548767,595.619080 613.331238,592.215149 
	C623.523438,588.668762 634.024780,586.020142 644.338318,582.809692 
	C649.975159,581.055054 655.479370,578.878784 661.087280,577.025513 
	C665.583801,575.539490 670.160156,574.297058 674.676514,572.868835 
	C680.770081,570.941956 686.837830,568.933838 692.920654,566.972961 
	C699.766602,564.766113 706.674988,562.736267 713.449829,560.329834 
	C720.740051,557.740417 727.803711,554.488098 735.150269,552.088135 
	C747.803894,547.954468 760.663391,544.448975 773.303345,540.276489 
	C777.989502,538.729614 782.393921,537.202576 787.216431,539.256958 
	C778.880493,550.205627 770.521301,561.136719 762.220581,572.112000 
	C759.154846,576.165710 756.226685,580.323425 753.003296,584.687256 
z"/>
<path fill="#0254CD" opacity="1.000000" stroke="none" 
	d="
M408.984528,556.982117 
	C409.437134,556.389160 409.889709,555.796143 410.963501,555.027832 
	C412.045929,553.548950 412.507172,552.245544 412.968414,550.942078 
	C419.939697,541.364136 426.778748,531.686462 433.910736,522.229736 
	C447.342285,504.419861 460.930908,486.728333 474.478760,469.006409 
	C479.800568,462.044922 485.188110,455.133728 490.850342,448.023438 
	C541.471680,447.872101 591.788269,447.896912 642.878540,448.273315 
	C645.466064,448.745453 647.279846,448.967682 649.093994,448.971222 
	C673.404724,449.018768 697.715393,449.035736 722.016541,449.443542 
	C721.725891,450.923035 721.709167,452.787292 721.120544,452.989929 
	C717.525940,454.227020 714.732361,458.914062 709.973145,455.721466 
	C709.273010,455.251801 707.183105,455.435181 706.947754,455.912994 
	C704.836304,460.201477 701.566956,460.824158 696.943848,461.567505 
	C689.256531,462.803497 681.938049,466.346954 674.472168,468.941315 
	C666.157898,471.830414 657.103149,471.958008 649.215637,476.786194 
	C644.426331,479.717834 638.347473,480.455841 633.233032,482.964539 
	C626.415344,486.308746 619.554382,488.418060 612.174072,488.006256 
	C609.400574,489.734131 606.455994,491.003845 603.439453,492.070129 
	C600.362793,493.157654 597.145935,493.871063 594.122375,495.078644 
	C591.923645,495.956726 590.069519,497.847382 587.835266,498.458710 
	C581.236023,500.264374 574.509155,501.597504 567.862915,503.239838 
	C564.521179,504.065552 561.048706,504.752808 557.988464,506.232788 
	C553.760742,508.277405 549.885498,511.044067 545.810303,513.417480 
	C545.145386,513.804688 544.189880,513.997437 543.434082,513.875366 
	C537.790710,512.963379 532.406799,512.708435 528.234802,517.763916 
	C527.610046,518.520935 526.135681,518.611389 525.031494,518.931091 
	C522.683655,519.610840 520.307739,520.195312 517.967102,520.897949 
	C514.595764,521.909973 511.260254,523.042908 507.881561,524.028625 
	C505.192657,524.813110 501.450867,524.589355 499.956177,526.336060 
	C496.637512,530.214355 492.173035,529.746460 488.189606,530.953430 
	C483.870605,532.262146 479.311859,532.784363 475.001221,534.114685 
	C467.496857,536.430542 460.930634,541.697449 452.466766,541.095825 
	C451.332764,541.015137 450.142792,542.118164 448.938385,542.564270 
	C442.198730,545.060425 435.607635,548.276001 428.648926,549.764160 
	C422.868164,551.000549 417.312683,551.491150 413.553192,556.816711 
	C412.467010,558.355408 410.626251,560.717285 408.984528,556.982117 
z"/>
<path fill="#1D79F4" opacity="1.000000" stroke="none" 
	d="
M279.026581,873.997559 
	C279.350616,869.039429 279.797577,864.084717 279.932404,859.121460 
	C279.980011,857.368530 279.579041,855.448669 278.838287,853.858826 
	C276.807343,849.499939 278.447388,846.302002 283.333435,845.072327 
	C292.572388,842.747192 301.946991,840.775452 310.940765,837.706116 
	C323.645996,833.370239 335.975800,827.944885 348.623108,823.424622 
	C356.508301,820.606323 364.733765,818.755127 372.712494,816.178833 
	C379.723389,813.915100 386.543488,811.058533 393.560577,808.816711 
	C399.029266,807.069580 404.807465,806.248779 410.206177,804.334045 
	C419.781097,800.938171 429.097168,796.812561 438.670959,793.413025 
	C443.756500,791.607117 449.212524,790.873596 454.398254,789.313416 
	C460.485962,787.481873 466.431854,785.183838 472.494049,783.260864 
	C479.469940,781.048096 486.560028,779.185852 493.495636,776.858887 
	C497.783234,775.420410 501.770844,773.069519 506.075989,771.705261 
	C516.855103,768.289612 527.752319,765.247986 538.568420,761.945862 
	C540.746155,761.281006 542.711548,759.929749 544.883789,759.235840 
	C552.807068,756.704590 560.805664,754.408386 568.721130,751.853943 
	C578.923157,748.561707 589.097290,745.178833 599.237732,741.701538 
	C610.694824,737.772766 622.078003,733.627747 633.550598,729.745911 
	C635.645264,729.037170 638.014282,729.139282 641.604553,728.703430 
	C638.630798,733.679810 636.339233,737.514587 634.066406,741.722900 
	C634.085205,742.096436 634.045898,742.056335 633.701904,742.099976 
	C632.897827,743.200012 632.437622,744.256409 631.977417,745.312805 
	C627.584106,751.127441 623.190857,756.942078 618.066772,762.895935 
	C612.365417,764.591431 607.354736,766.031311 602.432068,767.726685 
	C589.733582,772.099976 577.138062,776.781982 564.377136,780.961182 
	C555.349548,783.917664 546.018127,785.950073 537.002197,788.937622 
	C522.653198,793.692383 508.473541,798.956055 494.176117,803.869995 
	C491.091827,804.930115 487.710236,805.134949 484.640717,806.226318 
	C475.981537,809.305115 467.651245,813.992371 458.753662,815.556824 
	C445.425598,817.900452 433.726471,824.513916 420.817108,827.787048 
	C411.615692,830.120056 402.810577,833.973694 393.727356,836.826416 
	C383.245941,840.118347 372.595978,842.876099 362.128082,846.207764 
	C354.548279,848.620239 347.168762,851.655396 339.658508,854.294861 
	C329.908722,857.721558 320.124298,861.050171 310.341522,864.381958 
	C306.182465,865.798401 302.010071,867.182861 297.807373,868.462402 
	C291.564087,870.363159 285.288452,872.157776 279.026581,873.997559 
z"/>
<path fill="#217EF8" opacity="1.000000" stroke="none" 
	d="
M566.738098,832.789551 
	C563.350159,833.480164 560.160400,833.625305 557.190308,834.508728 
	C550.625793,836.461548 544.176270,838.799194 537.671448,840.954590 
	C531.580811,842.972778 525.435181,844.834290 519.392883,846.987000 
	C509.791168,850.407898 500.288422,854.107849 490.672943,857.488220 
	C487.415985,858.633301 483.874512,858.952271 480.583374,860.019775 
	C468.546967,863.923828 456.574890,868.025574 444.553162,871.975464 
	C428.923584,877.110718 413.295197,882.251953 397.617310,887.236511 
	C387.557434,890.434875 377.306580,893.056946 367.330139,896.486511 
	C357.752716,899.778931 348.570953,904.251892 338.940979,907.354553 
	C325.474792,911.693115 311.758789,915.258362 298.138214,919.113953 
	C295.454681,919.873657 292.719238,920.449829 289.667542,921.051453 
	C289.327393,920.992249 289.008514,920.642456 288.950134,919.998840 
	C288.211151,916.550537 287.530609,913.745789 286.850037,910.941101 
	C286.214508,908.948120 285.578979,906.955139 284.912994,904.148071 
	C282.792389,895.584473 282.873810,895.181335 290.155640,892.458740 
	C294.602386,890.796143 299.255310,889.694214 303.769501,888.200989 
	C321.441528,882.355530 339.090240,876.439636 356.760132,870.587708 
	C360.028564,869.505310 363.409424,868.748169 366.642609,867.576477 
	C372.339020,865.511963 377.882843,863.003235 383.634247,861.119141 
	C391.570587,858.519226 399.675629,856.438721 407.644501,853.932556 
	C419.898651,850.078552 432.112762,846.095337 444.317169,842.085754 
	C455.380249,838.451111 466.444733,834.814270 477.440033,830.981812 
	C487.993774,827.303162 498.394440,823.178711 508.984589,819.613159 
	C517.489746,816.749695 526.224915,814.576172 534.772583,811.830505 
	C545.581238,808.358582 556.291199,804.580444 567.066711,801.003601 
	C575.125671,798.328430 583.199219,795.689087 591.340637,793.285583 
	C592.008240,793.088562 593.248169,794.830139 594.222168,795.670959 
	C591.469849,799.919739 588.950378,804.343506 585.916199,808.380493 
	C579.770386,816.557617 573.345703,824.525146 566.738098,832.789551 
z"/>
<path fill="#1F7CF6" opacity="1.000000" stroke="none" 
	d="
M594.545532,795.507568 
	C593.248169,794.830139 592.008240,793.088562 591.340637,793.285583 
	C583.199219,795.689087 575.125671,798.328430 567.066711,801.003601 
	C556.291199,804.580444 545.581238,808.358582 534.772583,811.830505 
	C526.224915,814.576172 517.489746,816.749695 508.984589,819.613159 
	C498.394440,823.178711 487.993774,827.303162 477.440033,830.981812 
	C466.444733,834.814270 455.380249,838.451111 444.317169,842.085754 
	C432.112762,846.095337 419.898651,850.078552 407.644501,853.932556 
	C399.675629,856.438721 391.570587,858.519226 383.634247,861.119141 
	C377.882843,863.003235 372.339020,865.511963 366.642609,867.576477 
	C363.409424,868.748169 360.028564,869.505310 356.760132,870.587708 
	C339.090240,876.439636 321.441528,882.355530 303.769501,888.200989 
	C299.255310,889.694214 294.602386,890.796143 290.155640,892.458740 
	C282.873810,895.181335 282.792389,895.584473 284.909637,903.752014 
	C281.345459,903.887268 282.339569,901.118469 281.994751,898.947876 
	C280.866943,891.848022 279.604248,884.769592 278.278625,877.320801 
	C278.444183,876.187805 278.724487,875.416931 279.015686,874.321777 
	C285.288452,872.157776 291.564087,870.363159 297.807373,868.462402 
	C302.010071,867.182861 306.182465,865.798401 310.341522,864.381958 
	C320.124298,861.050171 329.908722,857.721558 339.658508,854.294861 
	C347.168762,851.655396 354.548279,848.620239 362.128082,846.207764 
	C372.595978,842.876099 383.245941,840.118347 393.727356,836.826416 
	C402.810577,833.973694 411.615692,830.120056 420.817108,827.787048 
	C433.726471,824.513916 445.425598,817.900452 458.753662,815.556824 
	C467.651245,813.992371 475.981537,809.305115 484.640717,806.226318 
	C487.710236,805.134949 491.091827,804.930115 494.176117,803.869995 
	C508.473541,798.956055 522.653198,793.692383 537.002197,788.937622 
	C546.018127,785.950073 555.349548,783.917664 564.377136,780.961182 
	C577.138062,776.781982 589.733582,772.099976 602.432068,767.726685 
	C607.354736,766.031311 612.365417,764.591431 617.773193,763.057861 
	C616.051636,766.094238 613.906677,769.117859 611.731506,772.119568 
	C606.117798,779.866333 600.490662,787.603333 594.545532,795.507568 
z"/>
<path fill="#0D63DE" opacity="1.000000" stroke="none" 
	d="
M787.211731,539.235535 
	C782.393921,537.202576 777.989502,538.729614 773.303345,540.276489 
	C760.663391,544.448975 747.803894,547.954468 735.150269,552.088135 
	C727.803711,554.488098 720.740051,557.740417 713.449829,560.329834 
	C706.674988,562.736267 699.766602,564.766113 692.920654,566.972961 
	C686.837830,568.933838 680.770081,570.941956 674.676514,572.868835 
	C670.160156,574.297058 665.583801,575.539490 661.087280,577.025513 
	C655.479370,578.878784 649.975159,581.055054 644.338318,582.809692 
	C634.024780,586.020142 623.523438,588.668762 613.331238,592.215149 
	C603.548767,595.619080 594.136841,600.075500 584.411560,603.661011 
	C578.549683,605.822083 572.360535,607.077576 566.391052,608.968933 
	C559.705933,611.087097 553.120972,613.519226 546.458130,615.710266 
	C541.126953,617.463379 535.699829,618.930420 530.394165,620.753967 
	C520.172913,624.266907 510.078156,628.160889 499.797424,631.483765 
	C490.921478,634.352661 481.801910,636.461853 472.896729,639.247864 
	C463.280762,642.256226 453.797424,645.686584 444.239807,648.883728 
	C436.885773,651.343750 429.471039,653.626099 422.146759,656.170166 
	C412.218353,659.618774 402.412811,663.429749 392.438416,666.734741 
	C383.425323,669.721130 374.245911,672.202942 365.163666,674.985107 
	C363.150848,675.601624 361.258209,676.599426 359.275757,677.327881 
	C347.897369,681.508728 336.690552,686.062866 324.623383,688.297607 
	C319.639557,689.220581 315.113556,692.615601 309.994934,694.879761 
	C311.081787,691.636169 312.550568,688.397949 314.025269,685.162476 
	C314.876190,683.295654 315.736603,681.433167 317.034821,679.145508 
	C317.624908,678.427734 317.772858,678.133057 317.920776,677.838440 
	C317.920776,677.838440 317.936310,677.940002 318.137146,677.840759 
	C318.542969,677.456604 318.747986,677.171692 318.953003,676.886841 
	C318.953003,676.886841 318.954163,676.974731 319.354889,676.971008 
	C322.353790,676.534058 325.065063,676.433899 327.526337,675.597717 
	C332.503967,673.906860 337.300812,671.689270 342.258606,669.932739 
	C345.993866,668.609436 349.895752,667.764160 353.666260,666.531128 
	C360.049866,664.443420 366.380402,662.194153 372.747803,660.056213 
	C379.855927,657.669739 387.005371,655.403687 394.086365,652.940186 
	C397.339417,651.808411 400.398712,650.100586 403.674194,649.056519 
	C410.681488,646.822876 417.799164,644.937439 424.820557,642.745789 
	C430.604340,640.940552 436.272491,638.760986 442.068939,637.001099 
	C448.218658,635.134033 454.578674,633.906860 460.631317,631.785339 
	C468.979584,628.859192 477.009094,625.011475 485.384979,622.179138 
	C499.232666,617.496338 513.253784,613.327454 527.189148,608.902405 
	C531.417419,607.559692 535.618652,606.127563 539.803772,604.655457 
	C542.083313,603.853638 544.252686,602.711914 546.561584,602.026184 
	C550.183472,600.950562 553.960693,600.365417 557.532227,599.158630 
	C567.941345,595.641602 578.239319,591.793701 588.662048,588.319031 
	C596.450378,585.722595 604.428528,583.692505 612.204468,581.062622 
	C619.362427,578.641724 626.268555,575.462402 633.456665,573.148315 
	C643.144531,570.029480 653.070862,567.650085 662.753662,564.516846 
	C670.232178,562.096741 677.423340,558.799255 684.870300,556.268311 
	C692.732178,553.596436 700.772522,551.454407 708.685852,548.927368 
	C716.963745,546.283997 725.171509,543.421692 733.431824,540.722107 
	C742.021362,537.914917 750.661194,535.260437 759.233032,532.401123 
	C765.269775,530.387451 771.201111,528.058228 777.233887,526.031677 
	C781.205322,524.697510 785.214294,523.243774 789.323181,522.647827 
	C791.371399,522.350708 794.990662,518.066406 795.721191,524.208313 
	C794.984558,526.003113 794.526611,527.579773 794.068726,529.156494 
	C793.730469,529.710876 793.392212,530.265259 792.688721,531.013062 
	C792.323486,531.206604 792.119324,531.445435 792.119385,531.445435 
	C791.829651,531.824463 791.539978,532.203491 790.695679,532.817017 
	C789.758911,533.697937 789.376709,534.344299 788.994507,534.990601 
	C788.730835,535.492065 788.467102,535.993469 787.825745,536.955688 
	C787.364868,538.001465 787.281616,538.586487 787.198364,539.171448 
	C787.198364,539.171448 787.207031,539.214111 787.211731,539.235535 
z"/>
<path fill="#0C62DD" opacity="1.000000" stroke="none" 
	d="
M796.000000,523.990234 
	C794.990662,518.066406 791.371399,522.350708 789.323181,522.647827 
	C785.214294,523.243774 781.205322,524.697510 777.233887,526.031677 
	C771.201111,528.058228 765.269775,530.387451 759.233032,532.401123 
	C750.661194,535.260437 742.021362,537.914917 733.431824,540.722107 
	C725.171509,543.421692 716.963745,546.283997 708.685852,548.927368 
	C700.772522,551.454407 692.732178,553.596436 684.870300,556.268311 
	C677.423340,558.799255 670.232178,562.096741 662.753662,564.516846 
	C653.070862,567.650085 643.144531,570.029480 633.456665,573.148315 
	C626.268555,575.462402 619.362427,578.641724 612.204468,581.062622 
	C604.428528,583.692505 596.450378,585.722595 588.662048,588.319031 
	C578.239319,591.793701 567.941345,595.641602 557.532227,599.158630 
	C553.960693,600.365417 550.183472,600.950562 546.561584,602.026184 
	C544.252686,602.711914 542.083313,603.853638 539.803772,604.655457 
	C535.618652,606.127563 531.417419,607.559692 527.189148,608.902405 
	C513.253784,613.327454 499.232666,617.496338 485.384979,622.179138 
	C477.009094,625.011475 468.979584,628.859192 460.631317,631.785339 
	C454.578674,633.906860 448.218658,635.134033 442.068939,637.001099 
	C436.272491,638.760986 430.604340,640.940552 424.820557,642.745789 
	C417.799164,644.937439 410.681488,646.822876 403.674194,649.056519 
	C400.398712,650.100586 397.339417,651.808411 394.086365,652.940186 
	C387.005371,655.403687 379.855927,657.669739 372.747803,660.056213 
	C366.380402,662.194153 360.049866,664.443420 353.666260,666.531128 
	C349.895752,667.764160 345.993866,668.609436 342.258606,669.932739 
	C337.300812,671.689270 332.503967,673.906860 327.526337,675.597717 
	C325.065063,676.433899 322.353790,676.534058 319.322876,676.940918 
	C321.347626,672.985168 323.805115,669.055786 326.543518,664.904907 
	C328.470795,664.956055 330.294098,665.823669 331.732391,665.396118 
	C337.327179,663.733093 342.835754,661.755615 348.309967,659.716797 
	C358.462952,655.935486 368.530823,651.922729 378.714935,648.229187 
	C382.560669,646.834412 386.636414,646.079224 390.596283,644.992188 
	C393.775574,644.119507 396.991699,643.338562 400.098022,642.250183 
	C408.619110,639.264526 417.038910,635.983826 425.595093,633.106018 
	C436.989410,629.273560 448.481018,625.731018 459.918365,622.025513 
	C466.031158,620.044983 472.107880,617.953186 478.218567,615.966064 
	C487.428253,612.971252 496.707886,610.181030 505.854797,607.007202 
	C513.267090,604.435303 520.317322,600.213684 527.905212,598.897644 
	C539.110779,596.954163 549.092285,591.765076 559.904724,588.934021 
	C569.301086,586.473755 578.647827,583.704407 587.800476,580.461914 
	C599.869507,576.186157 611.632874,571.043457 623.719482,566.823059 
	C629.115112,564.939026 635.177612,564.973145 640.584473,563.111511 
	C649.637695,559.994324 658.366333,555.946594 667.318848,552.518494 
	C670.684021,551.229858 674.343201,550.731262 677.781006,549.605835 
	C689.557617,545.750610 701.145142,541.220276 713.088135,537.997314 
	C726.401001,534.404724 739.348633,530.204651 752.096252,524.810730 
	C764.188538,519.694092 777.223206,516.810059 789.829651,512.899780 
	C793.290283,511.826355 796.663330,510.449615 800.158936,509.522675 
	C801.177917,509.252533 802.481750,510.056671 803.821777,511.051758 
	C801.325745,515.820190 798.662842,519.905212 796.000000,523.990234 
z"/>
<path fill="#1766D7" opacity="1.000000" stroke="none" 
	d="
M722.026123,449.060333 
	C697.715393,449.035736 673.404724,449.018768 649.093994,448.971222 
	C647.279846,448.967682 645.466064,448.745453 643.343506,448.353210 
	C647.683350,447.995605 652.331665,447.837463 656.980103,447.835297 
	C693.069946,447.818512 729.160156,447.742584 765.249390,447.894745 
	C774.974121,447.935760 784.474060,449.500641 792.776367,455.774750 
	C792.867859,456.139923 792.761780,456.253021 792.409790,456.165833 
	C783.483765,451.887024 774.409119,449.286194 764.901062,449.084534 
	C750.615662,448.781647 736.318359,449.040405 722.026123,449.060333 
z"/>
<path fill="#1766D7" opacity="1.000000" stroke="none" 
	d="
M795.721191,524.208313 
	C798.662842,519.905212 801.325745,515.820190 803.994263,511.368774 
	C805.331970,506.237335 806.959778,501.529846 807.901672,496.688843 
	C808.648682,492.849335 809.203003,488.752106 808.648804,484.942993 
	C808.117310,481.290070 806.048828,477.860748 804.333130,473.741089 
	C803.979797,471.459656 803.949219,469.770325 804.066406,467.944305 
	C804.214233,467.807617 804.502136,467.526154 804.502136,467.526154 
	C805.778076,469.815765 807.536377,471.970764 808.221436,474.425293 
	C809.359558,478.503235 810.054810,482.750122 810.456726,486.971497 
	C810.703735,489.565216 809.746460,492.258240 809.867065,494.882019 
	C810.396790,506.413239 804.840210,515.501892 798.388306,524.256958 
	C797.229187,525.829895 795.871460,527.256470 794.337097,528.953613 
	C794.526611,527.579773 794.984558,526.003113 795.721191,524.208313 
z"/>
<path fill="#1766D7" opacity="1.000000" stroke="none" 
	d="
M792.920898,456.083435 
	C798.481018,457.844574 801.420715,462.237091 804.243652,467.266022 
	C804.502136,467.526154 804.214233,467.807617 803.687378,467.907104 
	C802.134705,467.162537 800.280884,466.364563 800.230957,465.466217 
	C800.046692,462.152771 798.439270,460.573395 795.471619,459.500732 
	C794.326599,459.086853 793.651184,457.374023 792.761780,456.253021 
	C792.761780,456.253021 792.867859,456.139923 792.920898,456.083435 
z"/>
<path fill="#2683FC" opacity="1.000000" stroke="none" 
	d="
M286.838928,911.391846 
	C287.530609,913.745789 288.211151,916.550537 288.913757,919.764954 
	C284.849243,918.253479 287.701660,914.576660 286.838928,911.391846 
z"/>
<path fill="#1974EE" opacity="1.000000" stroke="none" 
	d="
M632.320190,745.228455 
	C632.437622,744.256409 632.897827,743.200012 633.728638,742.098145 
	C633.620483,743.083130 633.141724,744.113647 632.320190,745.228455 
z"/>
<path fill="#1766D7" opacity="1.000000" stroke="none" 
	d="
M789.209839,534.815308 
	C789.376709,534.344299 789.758911,533.697937 790.397766,533.024536 
	C790.244690,533.545044 789.834961,534.092529 789.209839,534.815308 
z"/>
<path fill="#136BE6" opacity="1.000000" stroke="none" 
	d="
M295.598907,722.777100 
	C295.743652,723.209045 295.638214,723.874695 295.271973,724.761780 
	C295.123688,724.325745 295.236206,723.668213 295.598907,722.777100 
z"/>
<path fill="#1066E0" opacity="1.000000" stroke="none" 
	d="
M787.473877,539.014038 
	C787.281616,538.586487 787.364868,538.001465 787.678894,537.218445 
	C787.856323,537.632446 787.802917,538.244568 787.473877,539.014038 
z"/>
<path fill="#0B60DB" opacity="1.000000" stroke="none" 
	d="
M318.685547,676.956543 
	C318.747986,677.171692 318.542969,677.456604 318.085907,677.836792 
	C318.028625,677.630066 318.223389,677.328186 318.685547,676.956543 
z"/>
<path fill="#0B60DB" opacity="1.000000" stroke="none" 
	d="
M317.651001,677.912598 
	C317.772858,678.133057 317.624908,678.427734 317.265259,678.857056 
	C317.162781,678.656738 317.272003,678.321716 317.651001,677.912598 
z"/>
<path fill="#1766D7" opacity="1.000000" stroke="none" 
	d="
M792.225342,531.462646 
	C792.119324,531.445435 792.323486,531.206604 792.384766,531.162598 
	C792.445984,531.118591 792.331360,531.479797 792.225342,531.462646 
z"/>
<path fill="#065AD4" opacity="1.000000" stroke="none" 
	d="
M792.409790,456.165833 
	C793.651184,457.374023 794.326599,459.086853 795.471619,459.500732 
	C798.439270,460.573395 800.046692,462.152771 800.230957,465.466217 
	C800.280884,466.364563 802.134705,467.162537 803.539551,468.043793 
	C803.949219,469.770325 803.979797,471.459656 804.015015,473.573273 
	C795.478333,473.601562 787.972778,477.156525 780.281189,480.106750 
	C774.732056,482.235199 769.080078,484.102203 763.441956,485.990021 
	C756.311218,488.377625 749.155823,490.692413 741.995361,492.989441 
	C738.694580,494.048248 735.345093,494.954224 732.037292,495.992096 
	C722.357117,499.029358 712.631470,501.935608 703.028992,505.202942 
	C694.493286,508.107239 686.187195,511.697662 677.618835,514.491821 
	C667.006714,517.952454 656.214294,520.857422 645.532898,524.110901 
	C643.020447,524.876099 640.596008,525.980408 638.206970,527.091797 
	C626.015564,532.763184 613.171997,536.261475 600.110718,539.298523 
	C594.050354,540.707642 588.430542,543.916870 582.481995,545.928772 
	C576.725525,547.875732 570.774414,549.239380 564.963684,551.036743 
	C560.721008,552.349060 556.598816,554.047424 552.368164,555.402466 
	C541.094971,559.013245 529.748901,562.401062 518.515747,566.130371 
	C510.373718,568.833374 502.429535,572.133545 494.282959,574.821350 
	C482.417877,578.736023 470.403442,582.198547 458.542358,586.124817 
	C450.543793,588.772522 442.717682,591.937195 434.778564,594.770203 
	C431.377472,595.983887 427.847717,596.836060 424.443329,598.041504 
	C419.408691,599.824280 414.459137,601.847534 409.423859,603.628540 
	C406.316620,604.727600 403.131592,605.617004 399.956818,606.513062 
	C392.049896,608.744629 384.117249,610.885864 376.225647,613.169556 
	C374.989838,613.527222 373.986115,614.673401 372.751526,615.051147 
	C369.685150,615.989502 366.547333,616.694275 363.191406,617.213745 
	C369.729675,607.782532 376.446289,598.578613 383.320648,589.494080 
	C389.257751,581.648132 395.370636,573.935120 401.413452,566.169250 
	C403.725494,563.197876 406.058624,560.242981 408.683350,557.131348 
	C410.626251,560.717285 412.467010,558.355408 413.553192,556.816711 
	C417.312683,551.491150 422.868164,551.000549 428.648926,549.764160 
	C435.607635,548.276001 442.198730,545.060425 448.938385,542.564270 
	C450.142792,542.118164 451.332764,541.015137 452.466766,541.095825 
	C460.930634,541.697449 467.496857,536.430542 475.001221,534.114685 
	C479.311859,532.784363 483.870605,532.262146 488.189606,530.953430 
	C492.173035,529.746460 496.637512,530.214355 499.956177,526.336060 
	C501.450867,524.589355 505.192657,524.813110 507.881561,524.028625 
	C511.260254,523.042908 514.595764,521.909973 517.967102,520.897949 
	C520.307739,520.195312 522.683655,519.610840 525.031494,518.931091 
	C526.135681,518.611389 527.610046,518.520935 528.234802,517.763916 
	C532.406799,512.708435 537.790710,512.963379 543.434082,513.875366 
	C544.189880,513.997437 545.145386,513.804688 545.810303,513.417480 
	C549.885498,511.044067 553.760742,508.277405 557.988464,506.232788 
	C561.048706,504.752808 564.521179,504.065552 567.862915,503.239838 
	C574.509155,501.597504 581.236023,500.264374 587.835266,498.458710 
	C590.069519,497.847382 591.923645,495.956726 594.122375,495.078644 
	C597.145935,493.871063 600.362793,493.157654 603.439453,492.070129 
	C606.455994,491.003845 609.400574,489.734131 612.174072,488.006256 
	C619.554382,488.418060 626.415344,486.308746 633.233032,482.964539 
	C638.347473,480.455841 644.426331,479.717834 649.215637,476.786194 
	C657.103149,471.958008 666.157898,471.830414 674.472168,468.941315 
	C681.938049,466.346954 689.256531,462.803497 696.943848,461.567505 
	C701.566956,460.824158 704.836304,460.201477 706.947754,455.912994 
	C707.183105,455.435181 709.273010,455.251801 709.973145,455.721466 
	C714.732361,458.914062 717.525940,454.227020 721.120544,452.989929 
	C721.709167,452.787292 721.725891,450.923035 722.016541,449.443542 
	C736.318359,449.040405 750.615662,448.781647 764.901062,449.084534 
	C774.409119,449.286194 783.483765,451.887024 792.409790,456.165833 
z"/>
<path fill="#065AD4" opacity="1.000000" stroke="none" 
	d="
M412.668365,551.108398 
	C412.507172,552.245544 412.045929,553.548950 411.204529,554.879639 
	C411.338989,553.696106 411.853668,552.485474 412.668365,551.108398 
z"/>
<path fill="#065AD4" opacity="1.000000" stroke="none" 
	d="
M359.817474,620.131470 
	C359.988770,620.057678 359.991943,620.541931 359.987274,620.784241 
	C359.870453,620.752808 359.758301,620.479065 359.817474,620.131470 
z"/>
<path fill="#1974EE" opacity="1.000000" stroke="none" 
	d="
M696.045166,652.414673 
	C696.278381,652.797913 696.276245,653.178772 696.246704,653.557556 
	C696.245911,653.568054 695.950745,653.555603 695.792847,653.553894 
	C695.797302,653.173279 695.801697,652.792664 696.045166,652.414673 
z"/>
</svg>