<?xml version="1.0" encoding="iso-8859-1"?>
<!-- Uploaded to: SVG Repo, www.svgrepo.com, Generator: SVG Repo Mixer Tools -->
<svg height="800px" width="800px" version="1.1" id="Layer_1" xmlns="http://www.w3.org/2000/svg" xmlns:xlink="http://www.w3.org/1999/xlink" 
	 viewBox="0 0 512 512" xml:space="preserve">
<path style="fill:#555359;" d="M325.433,180.641H186.567c-9.354,0-16.936-7.583-16.936-16.936V70.564
	c0-9.354,7.583-16.936,16.936-16.936h138.866c9.354,0,16.936,7.583,16.936,16.936v93.142
	C342.369,173.058,334.787,180.641,325.433,180.641z M203.502,146.77h104.995V87.5H203.502V146.77z"/>
<path style="fill:#424045;" d="M325.433,53.627h-69.434v33.871h52.498v59.271h-52.498v33.871h69.434
	c9.354,0,16.936-7.583,16.936-16.936V70.564C342.369,61.21,334.787,53.627,325.433,53.627z"/>
<path style="fill:#653902;" d="M500.71,145.684c0-9.354-7.583-16.936-16.936-16.936H28.226c-9.354,0-16.936,7.583-16.936,16.936
	v295.753c0,9.354,7.583,16.936,16.936,16.936h455.549c9.354,0,16.936-7.583,16.936-16.936L500.71,145.684L500.71,145.684z"/>
<g>
	<path style="fill:#4F2D02;" d="M500.71,145.684c0-9.354-7.583-16.936-16.936-16.936H255.999v329.624h227.774
		c9.354,0,16.936-7.583,16.936-16.936V145.684H500.71z"/>
	<path style="fill:#4F2D02;" d="M500.71,167.624c-1.995-0.778-4.158-1.22-6.427-1.22H17.717c-2.27,0-4.432,0.443-6.427,1.22V270.34
		l236.073,131.816c2.684,1.499,5.659,2.249,8.637,2.249c2.976,0,5.953-0.749,8.637-2.249L500.71,270.34V167.624z"/>
</g>
<path style="fill:#874D00;" d="M512,141.217c0-9.785-7.932-17.717-17.717-17.717H17.717C7.932,123.5,0,131.432,0,141.217v69.515
	c0,6.421,3.474,12.338,9.08,15.469l238.283,133.051c2.684,1.499,5.66,2.249,8.637,2.249c2.978,0,5.953-0.749,8.637-2.249
	L502.92,226.202c5.606-3.131,9.08-9.048,9.08-15.469V141.217z"/>
<path style="fill:#653902;" d="M512,141.217c0-9.785-7.932-17.717-17.717-17.717H255.999v238h0.001c2.978,0,5.953-0.749,8.637-2.249
	L502.92,226.202c5.606-3.131,9.08-9.048,9.08-15.469V141.217z"/>
<path style="fill:#FFB655;" d="M276.543,383.295h-41.086c-5.49,0-9.94-4.45-9.94-9.94v-51.79c0-5.49,4.45-9.94,9.94-9.94h41.086
	c5.49,0,9.94,4.45,9.94,9.94v51.79C286.483,378.845,282.032,383.295,276.543,383.295z"/>
<path style="fill:#EBA74E;" d="M276.431,311.625h-20.431v71.67h20.431c5.551,0,10.051-4.5,10.051-10.051v-51.566
	C286.483,316.126,281.983,311.625,276.431,311.625z"/>
</svg>