<svg version="1.1" id="Layer_1" xmlns="http://www.w3.org/2000/svg" xmlns:xlink="http://www.w3.org/1999/xlink" x="0px" y="0px"
	 width="100%" viewBox="0 0 736 853" enable-background="new 0 0 736 853" xml:space="preserve">
<path fill="#000000" opacity="1.000000" stroke="none" 
	d="
M737.000000,640.000000 
	C737.000000,711.306885 737.000000,782.613708 737.000000,853.960327 
	C491.784149,853.960327 246.568283,853.960327 1.000000,853.960327 
	C1.000000,782.977783 1.000000,711.954956 1.291120,640.188660 
	C18.806622,649.319641 36.064331,659.136536 53.247501,669.082153 
	C78.378624,683.628052 103.422867,698.324158 128.566574,712.848206 
	C150.865723,725.729065 173.290924,738.391724 195.586105,751.279297 
	C221.857208,766.465088 248.026413,781.826965 274.279663,797.043701 
	C304.653442,814.648926 335.055237,832.206055 365.515564,849.660767 
	C367.004883,850.514160 369.643127,851.019531 370.951965,850.280334 
	C388.518982,840.359192 405.941895,830.182983 423.405945,820.079407 
	C439.592590,810.714905 455.777924,801.347961 471.978149,792.006958 
	C488.037018,782.747498 504.122070,773.533447 520.180359,764.272949 
	C536.518433,754.850952 552.842896,745.405151 569.164307,735.954224 
	C585.349548,726.582092 601.505859,717.159912 617.707153,707.815735 
	C636.178162,697.162537 654.700806,686.598877 673.171387,675.945129 
	C689.372559,666.600342 705.497803,657.123291 721.732178,647.836853 
	C726.692627,644.999451 731.903687,642.600037 737.000000,640.000000 
z"/>
<path fill="#3674A8" opacity="1.000000" stroke="none" 
	d="
M737.000000,639.531372 
	C731.903687,642.600037 726.692627,644.999451 721.732178,647.836853 
	C705.497803,657.123291 689.372559,666.600342 673.171387,675.945129 
	C654.700806,686.598877 636.178162,697.162537 617.707153,707.815735 
	C601.505859,717.159912 585.349548,726.582092 569.164307,735.954224 
	C552.842896,745.405151 536.518433,754.850952 520.180359,764.272949 
	C504.122070,773.533447 488.037018,782.747498 471.978149,792.006958 
	C455.777924,801.347961 439.592590,810.714905 423.405945,820.079407 
	C405.941895,830.182983 388.518982,840.359192 370.951965,850.280334 
	C369.643127,851.019531 367.004883,850.514160 365.515564,849.660767 
	C335.055237,832.206055 304.653442,814.648926 274.279663,797.043701 
	C248.026413,781.826965 221.857208,766.465088 195.586105,751.279297 
	C173.290924,738.391724 150.865723,725.729065 128.566574,712.848206 
	C103.422867,698.324158 78.378624,683.628052 53.247501,669.082153 
	C36.064331,659.136536 18.806622,649.319641 1.291120,639.722595 
	C1.000000,497.979095 1.000000,355.958221 1.293908,213.744293 
	C8.827017,209.346649 16.048395,205.110977 23.308598,200.942947 
	C50.632095,185.256668 78.006393,169.658493 105.289185,153.901794 
	C133.991058,137.325500 162.573669,120.542694 191.275513,103.966354 
	C218.558426,88.209488 245.951294,72.643150 273.253296,56.919212 
	C303.256622,39.639519 333.222534,22.294645 363.155060,4.892743 
	C364.676758,4.008073 365.729126,2.316099 367.000000,1.000000 
	C368.066681,1.000000 369.133331,1.000000 370.265198,1.257236 
	C371.450470,2.446145 372.463409,3.564152 373.707703,4.279941 
	C383.515411,9.921837 393.404999,15.421699 403.198700,21.087528 
	C436.547852,40.380653 469.845154,59.763477 503.206085,79.036140 
	C532.167603,95.767227 561.211609,112.355415 590.176636,129.080414 
	C617.722717,144.986069 645.220581,160.975342 672.726318,176.950668 
	C688.744629,186.254074 704.688477,195.687134 720.768616,204.882019 
	C726.011963,207.880234 731.580322,210.310165 737.000000,213.000000 
	C737.000000,355.020905 737.000000,497.041779 737.000000,639.531372 
M533.477173,132.572952 
	C521.363098,125.601074 509.231110,118.660027 497.138214,111.651619 
	C457.129364,88.464622 417.038147,65.416489 377.231903,41.886421 
	C370.799225,38.083946 366.161865,38.528461 360.025757,42.129498 
	C324.716888,62.850903 289.163177,83.154648 253.737503,103.677704 
	C240.066071,111.597946 226.512909,119.722290 212.377411,127.976921 
	C211.888443,128.271912 211.399475,128.566895 210.246231,129.096939 
	C205.165359,132.068466 200.084473,135.039993 194.335388,138.216339 
	C179.775253,146.550690 165.173920,154.814056 150.664368,163.235565 
	C127.390823,176.743835 104.178032,190.356796 80.285088,204.168762 
	C66.534187,212.008026 52.929649,220.122101 38.964756,227.559555 
	C32.857197,230.812317 30.801327,234.845367 30.812855,241.753235 
	C31.019766,365.742889 30.962864,489.732971 30.967529,613.722961 
	C30.967604,615.721985 30.694157,617.805115 31.166521,619.694397 
	C31.569244,621.305176 32.506180,623.280762 33.822987,624.080933 
	C40.618458,628.210205 47.630764,631.980957 54.532795,635.937134 
	C66.316277,642.691223 78.078850,649.481873 89.841148,656.272888 
	C101.766647,663.158142 113.670372,670.081177 125.604630,676.951172 
	C132.641876,681.002258 139.754929,684.922302 146.771942,689.007629 
	C159.074051,696.170105 171.282990,703.493530 183.616714,710.600708 
	C194.531982,716.890503 205.606415,722.903870 216.532333,729.175537 
	C227.308990,735.361633 237.972595,741.744324 248.713425,747.993286 
	C258.028595,753.412659 267.389435,758.753479 276.717590,764.150696 
	C290.926575,772.371887 305.126465,780.608887 319.326874,788.844910 
	C327.203125,793.413086 335.038300,798.053345 342.954651,802.550781 
	C350.593201,806.890320 358.249329,811.209900 366.050812,815.242004 
	C367.556274,816.020142 370.168274,816.147095 371.592926,815.355774 
	C382.924286,809.061768 394.098969,802.485168 405.309021,795.973389 
	C427.726807,782.950989 450.078674,769.814026 472.563812,756.909058 
	C502.546539,739.700867 532.673584,722.744141 562.654480,705.532776 
	C581.104065,694.941284 599.363586,684.019348 617.767578,673.347778 
	C643.642639,658.344238 669.552063,643.399536 695.488647,628.502502 
	C706.908752,621.943176 706.955505,622.024536 706.955505,608.639771 
	C706.955505,486.649597 706.955688,364.659454 706.954102,242.669296 
	C706.954102,240.669571 707.375916,238.531784 706.807007,236.705765 
	C706.126038,234.520233 705.068115,231.900604 703.325500,230.711685 
	C699.647766,228.202454 695.327454,226.661026 691.431763,224.440216 
	C679.590027,217.689758 667.824829,210.805038 655.611084,203.445465 
	C654.112610,202.413635 652.674866,201.277420 651.106567,200.365707 
	C629.424072,187.760788 607.751038,175.138977 586.018066,162.621506 
	C571.057129,154.004517 556.006836,145.542679 540.504761,136.602661 
	C539.371948,136.011948 538.239075,135.421234 536.672302,134.402740 
	C535.780640,133.938522 534.888916,133.474289 533.477173,132.572952 
z"/>
<path fill="#000000" opacity="1.000000" stroke="none" 
	d="
M737.000000,212.531342 
	C731.580322,210.310165 726.011963,207.880234 720.768616,204.882019 
	C704.688477,195.687134 688.744629,186.254074 672.726318,176.950668 
	C645.220581,160.975342 617.722717,144.986069 590.176636,129.080414 
	C561.211609,112.355415 532.167603,95.767227 503.206085,79.036140 
	C469.845154,59.763477 436.547852,40.380653 403.198700,21.087528 
	C393.404999,15.421699 383.515411,9.921837 373.707703,4.279941 
	C372.463409,3.564152 371.450470,2.446145 370.665192,1.257236 
	C492.907623,1.000000 614.815247,1.000000 737.000000,1.000000 
	C737.000000,71.353989 737.000000,141.708328 737.000000,212.531342 
z"/>
<path fill="#000000" opacity="1.000000" stroke="none" 
	d="
M366.531342,1.000000 
	C365.729126,2.316099 364.676758,4.008073 363.155060,4.892743 
	C333.222534,22.294645 303.256622,39.639519 273.253296,56.919212 
	C245.951294,72.643150 218.558426,88.209488 191.275513,103.966354 
	C162.573669,120.542694 133.991058,137.325500 105.289185,153.901794 
	C78.006393,169.658493 50.632095,185.256668 23.308598,200.942947 
	C16.048395,205.110977 8.827017,209.346649 1.293908,213.275635 
	C1.000000,142.386841 1.000000,71.773682 1.000000,1.000000 
	C122.687515,1.000000 244.375092,1.000000 366.531342,1.000000 
z"/>
<path fill="#428BCA" opacity="1.000000" stroke="none" 
	d="
M656.029846,203.972580 
	C667.824829,210.805038 679.590027,217.689758 691.431763,224.440216 
	C695.327454,226.661026 699.647766,228.202454 703.325500,230.711685 
	C705.068115,231.900604 706.126038,234.520233 706.807007,236.705765 
	C707.375916,238.531784 706.954102,240.669571 706.954102,242.669296 
	C706.955688,364.659454 706.955505,486.649597 706.955505,608.639771 
	C706.955505,622.024536 706.908752,621.943176 695.488647,628.502502 
	C669.552063,643.399536 643.642639,658.344238 617.767578,673.347778 
	C599.363586,684.019348 581.104065,694.941284 562.654480,705.532776 
	C532.673584,722.744141 502.546539,739.700867 472.563812,756.909058 
	C450.078674,769.814026 427.726807,782.950989 405.309021,795.973389 
	C394.098969,802.485168 382.924286,809.061768 371.592926,815.355774 
	C370.168274,816.147095 367.556274,816.020142 366.050812,815.242004 
	C358.249329,811.209900 350.593201,806.890320 342.954651,802.550781 
	C335.038300,798.053345 327.203125,793.413086 319.326874,788.844910 
	C305.126465,780.608887 290.926575,772.371887 276.717590,764.150696 
	C267.389435,758.753479 258.028595,753.412659 248.713425,747.993286 
	C237.972595,741.744324 227.308990,735.361633 216.532333,729.175537 
	C205.606415,722.903870 194.531982,716.890503 183.616714,710.600708 
	C171.282990,703.493530 159.074051,696.170105 146.771942,689.007629 
	C139.754929,684.922302 132.641876,681.002258 125.604630,676.951172 
	C113.670372,670.081177 101.766647,663.158142 89.841148,656.272888 
	C78.078850,649.481873 66.316277,642.691223 54.532795,635.937134 
	C47.630764,631.980957 40.618458,628.210205 33.822987,624.080933 
	C32.506180,623.280762 31.569244,621.305176 31.166521,619.694397 
	C30.694157,617.805115 30.967604,615.721985 30.967529,613.722961 
	C30.962864,489.732971 31.019766,365.742889 30.812855,241.753235 
	C30.801327,234.845367 32.857197,230.812317 38.964756,227.559555 
	C52.929649,220.122101 66.534187,212.008026 80.777527,204.356171 
	C83.511444,207.697571 85.752937,210.851562 88.112854,214.327698 
	C91.820862,219.766556 95.410431,224.883286 99.062675,230.331680 
	C100.084763,231.775208 101.044174,232.887054 102.260681,234.182968 
	C103.678604,235.577805 104.839439,236.788605 106.061539,238.347198 
	C107.750603,240.462585 109.378387,242.230179 111.273643,244.190277 
	C113.694801,246.586502 115.848495,248.790207 118.120483,251.315063 
	C120.493515,253.423752 122.748253,255.211258 125.249924,257.177551 
	C126.331917,258.235596 127.166992,259.114868 128.124146,260.311951 
	C129.832062,261.752716 131.417892,262.875671 133.173340,264.161316 
	C133.567017,264.543182 133.786636,264.766724 134.123962,265.312317 
	C135.831573,266.752686 137.417038,267.875336 139.001251,268.998993 
	C139.000000,269.000000 139.001816,268.996918 139.117859,269.313995 
	C140.522339,271.492004 141.810760,273.352936 142.991074,275.532257 
	C140.724915,279.383514 138.233414,282.759155 136.477936,286.481873 
	C132.771606,294.341583 129.346771,302.356232 129.969894,311.472046 
	C129.955841,311.560364 129.928375,311.737091 129.823318,312.126770 
	C129.641052,313.816284 129.433945,315.123383 129.506775,316.414734 
	C130.223221,329.120300 135.454529,340.183838 142.756760,350.205566 
	C149.871323,359.969757 157.917877,369.052216 165.106522,378.766022 
	C170.129349,385.553192 174.396606,392.899506 179.089630,400.248199 
	C179.408463,400.981445 179.638992,401.462616 179.907135,402.337524 
	C180.468689,405.617615 181.314438,408.487640 181.462265,411.393127 
	C182.200897,425.911713 174.641479,436.394897 164.208771,445.148438 
	C157.166885,451.056915 149.121887,451.806824 140.907867,447.544556 
	C137.586243,445.820953 134.553116,443.541443 131.391129,441.487579 
	C131.393570,441.460236 131.443039,441.442230 131.178131,441.168274 
	C121.895996,430.360596 117.984993,417.897675 117.043716,404.298523 
	C116.975868,403.318207 116.674545,402.339722 116.380272,401.391876 
	C114.861923,396.501434 112.681129,395.886597 109.035507,399.603729 
	C102.884247,405.875641 98.152405,413.204742 96.315285,421.788910 
	C95.078094,427.569885 95.819687,433.573700 100.000656,438.763611 
	C100.023170,439.406067 100.036751,439.773163 100.118652,440.475403 
	C104.764740,449.661346 112.070946,455.399963 121.708519,457.001251 
	C138.890274,459.856110 155.789597,457.725220 172.336929,452.325317 
	C204.106262,441.958069 225.672684,400.411499 201.551880,366.472260 
	C192.630569,353.919464 182.207199,342.436798 172.523438,330.422089 
	C168.387619,325.290771 163.732803,320.425323 160.482147,314.767761 
	C155.277328,305.709137 157.445160,296.164886 161.015625,286.980957 
	C163.300522,288.060394 165.295700,288.911530 167.133362,290.023010 
	C188.125900,302.720459 210.163345,313.094208 233.606262,320.470093 
	C236.986740,321.533691 240.003952,323.751862 243.165451,325.813507 
	C239.446518,340.743134 235.751419,355.295013 232.040924,370.083130 
	C232.025513,370.319366 231.999741,370.792175 231.769943,371.117493 
	C231.332703,372.733459 231.125259,374.024078 230.925568,375.461670 
	C230.943573,375.803528 230.953659,375.998413 230.688446,376.494446 
	C229.601898,380.218994 228.790482,383.642334 227.983643,387.252930 
	C227.988205,387.440125 227.998474,387.814545 227.742889,388.065948 
	C227.313873,389.245850 227.140442,390.174377 226.973816,391.249237 
	C226.980621,391.395599 226.993408,391.688354 226.750702,392.000854 
	C225.653976,396.369110 224.906113,400.450806 223.924637,404.475525 
	C221.626266,413.900299 219.215927,423.297760 216.852859,432.668091 
	C216.854797,432.629852 216.835358,432.555756 216.839661,432.943756 
	C214.899750,439.649780 212.955551,445.967804 210.799713,452.973541 
	C220.007904,452.336212 228.447281,451.861633 236.851715,451.032990 
	C237.912567,450.928406 239.323181,449.106110 239.661987,447.836823 
	C241.291306,441.732635 242.434128,435.498383 244.069580,429.396057 
	C248.573975,412.588989 252.590347,395.611053 258.034180,379.107880 
	C262.810364,364.628693 272.037354,353.042572 286.154175,346.178009 
	C288.060303,345.251160 291.171234,344.547577 292.569427,345.477325 
	C293.912415,346.370331 294.519440,349.674316 294.118896,351.648834 
	C292.735077,358.470886 290.770386,365.175140 289.019836,372.181213 
	C289.008606,372.609558 289.004456,372.780884 288.885132,373.302948 
	C286.163452,385.157959 283.556976,396.662292 280.961365,408.324219 
	C280.972229,408.481812 280.994446,408.796967 280.782349,409.119019 
	C280.380157,412.636993 280.190063,415.832916 280.005341,419.287292 
	C280.014465,419.717987 280.018250,419.890289 279.977112,420.472565 
	C278.207367,427.506409 279.569824,433.793732 282.030762,440.284851 
	C282.063507,440.820587 282.077698,441.034821 282.246094,441.532745 
	C285.628082,447.624817 290.931915,450.215759 297.049438,448.826202 
	C302.361237,447.619690 307.938416,445.497498 312.216614,442.231903 
	C323.121521,433.907990 329.785431,422.007843 336.606354,410.371918 
	C337.466949,408.903778 338.354340,407.451416 339.229309,405.991730 
	C340.156342,408.332092 339.975159,410.318726 340.191803,412.260986 
	C340.742706,417.199921 340.951111,422.259521 342.235565,427.017334 
	C345.075104,437.535095 353.929413,441.829803 363.925385,437.385345 
	C368.228333,435.472168 372.480927,432.649963 375.686951,429.236359 
	C381.799316,422.728363 387.144012,415.499359 392.895996,409.086060 
	C393.044586,409.946655 393.104523,410.290833 393.170410,411.009399 
	C392.027283,416.960114 390.878235,422.536407 389.528748,429.085510 
	C398.954956,428.312469 407.305267,427.695953 415.632019,426.848297 
	C416.552155,426.754639 417.917145,425.449127 418.092316,424.520172 
	C419.281555,418.213135 420.206757,411.856323 421.171143,405.549103 
	C421.125061,405.582642 421.200165,405.665680 421.480713,405.377502 
	C423.863037,396.188263 425.784546,387.239929 428.105743,378.396454 
	C432.346893,362.238190 438.220642,346.754456 448.421753,332.992554 
	C456.699585,332.025299 464.537384,331.059082 472.325928,330.493164 
	C471.850861,333.263062 471.425079,335.632690 470.997284,338.153625 
	C470.995270,338.304962 470.992920,338.607605 470.696777,338.855713 
	C466.896759,353.974518 462.974213,368.763702 460.057129,383.748657 
	C458.484650,391.826447 457.847229,400.271362 458.181122,408.494019 
	C458.755463,422.637909 470.491364,429.288391 483.195862,423.009338 
	C487.291718,420.985016 491.504425,418.275940 494.337891,414.799622 
	C501.446533,406.078186 507.816010,396.752625 514.433899,387.634521 
	C515.515625,386.144165 516.352966,384.476410 517.303223,382.890686 
	C517.558167,383.020020 517.813171,383.149353 518.068115,383.278687 
	C518.068115,386.573792 518.068115,389.868927 518.278931,393.514496 
	C518.787170,394.320343 519.084717,394.775757 519.669067,395.499817 
	C520.152283,396.192719 520.534302,396.624359 520.517761,397.040100 
	C520.157043,406.124817 526.995728,413.315399 535.963745,413.146240 
	C543.877563,412.997009 551.156616,410.901215 556.748535,405.023712 
	C562.002197,399.501770 566.923279,393.662964 571.974487,387.949219 
	C573.088684,386.688873 574.134644,385.368256 575.809204,383.358795 
	C576.022827,385.208923 576.289917,385.891632 576.139465,386.464813 
	C574.121338,394.154724 572.212036,401.881714 569.835999,409.461670 
	C569.384583,410.901642 567.174316,412.350372 565.522339,412.751312 
	C560.052734,414.078552 554.462036,414.900665 548.927551,415.967529 
	C536.849487,418.295776 524.756958,420.603180 515.000916,429.328613 
	C514.577271,429.839935 514.292297,430.236969 513.690491,430.791809 
	C511.300812,434.122650 508.955017,437.153412 507.210724,440.497833 
	C503.343658,447.912445 505.081299,456.910797 511.304626,462.905090 
	C511.856689,463.373840 512.285278,463.685181 512.893860,464.308899 
	C526.355530,472.313934 540.120300,470.758026 553.394836,465.451508 
	C572.945801,457.635986 585.042847,442.459412 592.089050,422.945526 
	C592.920898,420.641785 593.443359,417.545380 595.169067,416.362549 
	C602.862488,411.089203 610.941040,406.377625 619.017700,401.228394 
	C619.425049,400.756042 619.695068,400.518372 620.295410,400.155029 
	C628.355042,394.244171 636.035706,388.391815 643.860596,382.738892 
	C645.189148,381.779114 647.136414,381.675751 648.797852,381.176697 
	C648.897766,383.172241 649.744629,385.545044 648.961853,387.094635 
	C646.286743,392.390503 643.628418,397.881470 639.897827,402.422424 
	C628.911621,415.795074 617.582397,428.897522 606.074280,441.827118 
	C590.864685,458.915405 573.020569,472.599152 552.312500,482.535767 
	C533.419373,491.601501 513.001892,494.078217 492.647705,496.937592 
	C442.694031,503.955109 392.317627,504.828613 342.048828,507.218353 
	C315.792877,508.466553 289.479431,508.814026 263.272644,510.693085 
	C241.396973,512.261597 219.638763,515.468079 197.629166,517.959900 
	C197.429794,517.970581 197.030884,517.989136 196.613586,518.012329 
	C149.637131,525.388550 105.043922,538.849915 63.024307,560.497131 
	C94.174744,560.010864 122.833473,568.325928 149.576645,583.428711 
	C176.200897,598.464233 197.914795,618.853088 214.133804,646.047974 
	C214.982635,643.614868 215.502426,642.266113 215.926346,640.887939 
	C220.081543,627.378845 226.438965,614.987183 235.011124,603.767944 
	C252.370285,581.048584 275.489197,566.089294 301.402069,555.044861 
	C343.544128,537.083313 388.266266,530.329712 433.294708,524.945190 
	C460.798157,521.656250 488.353882,518.721497 515.771545,514.822144 
	C540.922729,511.245056 563.140198,500.598755 582.231079,483.758698 
	C610.954651,458.421631 636.640442,430.253662 658.789124,399.032043 
	C664.771179,390.599548 669.037048,380.806519 673.090088,371.215149 
	C674.852417,367.044708 674.792786,361.729706 674.286072,357.073273 
	C673.697021,351.660767 669.122375,349.658569 664.232971,351.974579 
	C660.948425,353.530426 657.544128,355.088287 654.724792,357.317322 
	C649.163330,361.714142 643.893250,366.492279 638.643738,371.267822 
	C630.057617,379.078644 621.778809,387.239746 612.979431,394.797974 
	C608.746277,398.434082 603.620667,401.031311 598.899231,404.098969 
	C598.542053,403.787354 598.184937,403.475769 597.827759,403.164185 
	C604.773132,376.968597 611.544556,350.725128 618.739624,324.598328 
	C622.166138,312.155975 625.999695,299.734741 635.965942,290.090363 
	C628.085083,290.542328 620.378357,291.347351 612.712341,292.438202 
	C603.753418,293.713043 599.283142,300.115875 596.360718,307.792450 
	C594.386169,312.979309 592.871643,318.354492 591.375122,323.707977 
	C583.952637,350.261169 570.268616,373.401154 552.931702,393.554047 
	C551.209229,393.068207 549.279785,392.524017 546.310547,391.686554 
	C545.754089,389.309937 544.352783,385.982666 544.330078,382.646027 
	C544.289490,376.683502 544.438354,370.582855 545.636658,364.772736 
	C550.439514,341.484741 557.263855,318.947540 572.179810,299.731262 
	C572.970398,298.712677 573.539856,296.381409 572.973755,295.717865 
	C572.121155,294.718506 570.146790,294.194519 568.698730,294.282501 
	C565.413452,294.482239 562.158264,295.178467 559.018555,295.313019 
	C562.663879,292.354797 565.986511,289.425812 569.733154,287.215637 
	C585.319946,278.020905 599.906250,267.523682 613.270020,254.806702 
	C618.294312,249.972092 623.481262,245.691315 627.709351,240.612320 
	C635.440491,231.325531 642.604614,221.566711 650.253479,211.783676 
	C652.344421,209.032608 654.187134,206.502579 656.029846,203.972580 
M424.147522,767.309631 
	C422.026611,767.540405 419.905701,767.771179 416.996582,768.087708 
	C419.648132,772.561707 421.550659,775.771851 423.453186,778.981995 
	C424.023163,778.668213 424.593109,778.354370 425.163086,778.040588 
	C424.370056,776.400940 423.620575,774.738464 422.774567,773.126648 
	C421.235992,770.195129 421.419159,767.865540 425.449951,767.303589 
	C428.500244,768.693726 431.550537,770.083801 435.032990,771.670898 
	C435.032990,770.815735 435.386200,769.118408 434.974396,768.906250 
	C432.683960,767.726379 430.207886,766.906860 427.446411,765.827698 
	C428.399628,764.644348 429.292816,763.535400 430.533722,761.994873 
	C426.591827,762.059387 425.413177,764.127686 424.147522,767.309631 
M451.069885,760.660034 
	C449.027283,763.564331 447.355774,762.487488 445.774445,760.181213 
	C444.540833,758.382080 443.278656,756.602600 442.029205,754.814331 
	C441.416382,755.301636 440.803528,755.789001 440.190674,756.276306 
	C442.572266,759.104614 444.747375,762.178101 447.534332,764.525024 
	C448.010986,764.926453 451.101440,762.223938 453.686066,761.002625 
	C454.473450,758.168274 451.484192,753.000183 447.540771,751.199036 
	C449.005280,754.443909 450.255280,757.213440 451.069885,760.660034 
M472.230103,737.207764 
	C469.475800,740.978638 470.734009,744.192322 473.983185,746.673218 
	C476.634399,748.697815 479.421844,747.915833 481.515076,745.506287 
	C484.034363,742.606323 483.404724,739.534790 480.990936,737.004089 
	C478.495087,734.387512 475.613770,733.823914 472.949127,736.944702 
	C472.949127,736.944702 472.918213,736.870483 472.230103,737.207764 
M497.230103,722.207764 
	C494.475830,725.978638 495.734009,729.192261 498.983154,731.673279 
	C501.634460,733.697754 504.421844,732.915894 506.515076,730.506287 
	C509.034271,727.606323 508.404846,724.534851 505.990936,722.004150 
	C503.495056,719.387451 500.613800,718.823914 497.949127,721.944702 
	C497.949127,721.944702 497.918213,721.870483 497.230103,722.207764 
M511.679016,715.567566 
	C514.447388,717.875000 517.215759,720.182373 521.232605,723.530334 
	C519.656616,720.300110 518.374390,718.338013 517.772705,716.185669 
	C517.419067,714.920715 518.147400,713.353394 518.389099,711.922058 
	C519.616455,712.492554 521.150269,712.778137 522.003967,713.696106 
	C523.523987,715.330688 524.632507,717.347900 525.913147,719.205078 
	C526.382629,718.907227 526.852173,718.609436 527.321655,718.311646 
	C526.005554,715.969727 524.925720,713.440613 523.278076,711.361389 
	C522.395569,710.247681 520.032104,708.951538 519.204834,709.386841 
	C515.794189,711.181824 512.715759,713.608154 508.811981,715.969116 
	C508.204712,716.357544 507.040009,717.035156 507.069946,717.092957 
	C508.796967,720.421753 510.623077,723.699097 512.439514,726.981506 
	C512.808716,726.767029 513.177979,726.552551 513.547180,726.338135 
	C512.681396,722.886169 511.815613,719.434265 511.679016,715.567566 
M464.528931,754.152039 
	C465.317383,754.064087 466.105835,753.976196 467.668091,753.802002 
	C464.483521,748.455200 461.573883,743.570007 458.664246,738.684753 
	C458.196289,738.916809 457.728333,739.148865 457.260345,739.380920 
	C457.894135,741.125427 458.527954,742.869934 459.161865,744.614868 
	C457.755341,745.455750 455.748199,745.956970 455.386200,747.019043 
	C454.653961,749.167297 453.961700,752.040100 454.844208,753.829285 
	C455.739380,755.644043 458.432983,756.964966 460.594788,757.539429 
	C461.310852,757.729736 462.821045,754.931763 463.888611,753.572144 
	C463.888611,753.572144 463.857849,753.675049 464.528931,754.152039 
M408.679291,781.776978 
	C410.400421,783.148804 412.121552,784.520691 413.842682,785.892517 
	C414.292297,785.625671 414.741913,785.358826 415.191528,785.091980 
	C414.350739,781.072937 413.509949,777.053894 412.669159,773.034851 
	C412.122009,773.134827 411.574829,773.234863 411.027679,773.334839 
	C411.311768,775.814087 411.595886,778.293396 411.955200,781.429077 
	C409.405762,779.565491 407.375916,778.081726 404.357605,775.875427 
	C404.678192,779.533325 404.896698,782.026672 405.159119,785.021118 
	C402.713928,783.315308 400.682709,781.898254 398.651489,780.481262 
	C398.338928,780.915283 398.026337,781.349304 397.713776,781.783325 
	C400.700928,784.547485 403.688080,787.311584 407.538025,790.874146 
	C407.775024,786.676086 407.923981,784.037415 408.679291,781.776978 
M393.236359,789.427673 
	C391.551361,788.139038 389.866333,786.850342 387.205139,784.815125 
	C387.615967,788.699707 387.871765,791.118652 388.188263,794.111206 
	C385.505066,792.196472 383.586975,790.827759 381.668884,789.458984 
	C381.352417,789.884460 381.035950,790.309937 380.719513,790.735413 
	C383.695435,793.511414 386.671356,796.287354 389.647278,799.063354 
	C390.087494,798.799194 390.527710,798.535034 390.967926,798.270874 
	C390.712097,795.659363 390.456238,793.047852 390.139832,789.818237 
	C392.768799,791.757568 394.883942,793.317871 396.999084,794.878113 
	C397.414032,794.585083 397.828979,794.291992 398.243958,793.998962 
	C397.384033,790.015564 396.524139,786.032166 395.664215,782.048706 
	C395.232361,782.153748 394.800476,782.258789 394.368591,782.363831 
	C394.210083,784.845032 394.051575,787.326233 393.236359,789.427673 
M378.028046,793.531128 
	C378.386658,795.255371 378.745270,796.979553 379.305298,799.672119 
	C376.350037,797.541077 374.262512,796.035706 371.195435,793.824036 
	C371.614899,797.708679 371.875763,800.124451 372.200623,803.133118 
	C369.493011,801.194275 367.583588,799.827026 365.674164,798.459778 
	C365.356262,798.887451 365.038391,799.315125 364.720490,799.742798 
	C367.696625,802.517029 370.672760,805.291260 373.648895,808.065491 
	C374.088654,807.800049 374.528412,807.534607 374.968140,807.269165 
	C374.712860,804.658142 374.457550,802.047119 374.141937,798.819031 
	C376.776825,800.763184 378.886993,802.320129 380.997162,803.877075 
	C381.434509,803.593750 381.871887,803.310364 382.309235,803.027039 
	C381.498932,799.398987 380.688629,795.770874 379.878326,792.142761 
	C379.232513,792.342529 378.586700,792.542297 378.028046,793.531128 
M434.590546,756.520203 
	C432.468811,759.552185 432.369110,759.635559 438.367767,766.810669 
	C439.256866,767.874084 441.594604,767.750183 443.281219,768.076843 
	C443.413391,768.102356 443.696838,767.346741 443.932220,766.913269 
	C438.996796,765.669983 436.818451,761.888977 438.349152,757.514465 
	C437.293549,757.356201 436.234863,757.197510 434.590546,756.520203 
M489.206543,737.207886 
	C492.854980,739.955811 495.603394,738.694458 497.875427,736.306946 
	C495.043518,735.559753 490.971191,735.526978 490.392273,734.088440 
	C489.523407,731.929260 491.104370,728.784241 491.568024,726.440491 
	C486.663788,727.631653 485.438232,730.906311 489.206543,737.207886 
M471.381409,748.979553 
	C469.713867,746.199341 468.046356,743.419189 466.378815,740.638977 
	C465.738800,741.031372 465.098785,741.423767 464.458771,741.816162 
	C466.333588,744.954285 468.208435,748.092407 470.083252,751.230530 
	C470.641052,750.682007 471.198822,750.133423 471.381409,748.979553 
z"/>
<path fill="#5094CE" opacity="1.000000" stroke="none" 
	d="
M655.820435,203.709015 
	C654.187134,206.502579 652.344421,209.032608 649.931152,211.901779 
	C645.755249,214.134201 642.296936,217.213928 638.515015,217.682907 
	C629.628601,218.784851 620.588318,218.926331 611.608765,218.954834 
	C486.319489,219.352676 361.030060,219.692230 235.740509,219.985001 
	C194.915436,220.080399 154.089951,220.010239 113.264664,219.991943 
	C104.381256,219.987961 95.124100,221.457626 87.994423,214.005569 
	C85.752937,210.851562 83.511444,207.697571 81.104767,204.234528 
	C104.178032,190.356796 127.390823,176.743835 150.664368,163.235565 
	C165.173920,154.814056 179.775253,146.550690 194.802643,138.457153 
	C198.302536,139.419724 201.325836,140.695297 204.369797,140.746704 
	C210.503204,140.850342 216.647751,140.040039 222.787903,140.036926 
	C325.313293,139.985168 427.838715,140.000259 530.364136,139.998093 
	C532.361206,139.998062 534.459351,140.345337 536.325317,139.843094 
	C538.014099,139.388580 539.449463,137.992432 540.996521,137.011490 
	C556.006836,145.542679 571.057129,154.004517 586.018066,162.621506 
	C607.751038,175.138977 629.424072,187.760788 651.106567,200.365707 
	C652.674866,201.277420 654.112610,202.413635 655.820435,203.709015 
z"/>
<path fill="#5898D0" opacity="1.000000" stroke="none" 
	d="
M540.750610,136.807068 
	C539.449463,137.992432 538.014099,139.388580 536.325317,139.843094 
	C534.459351,140.345337 532.361206,139.998062 530.364136,139.998093 
	C427.838715,140.000259 325.313293,139.985168 222.787903,140.036926 
	C216.647751,140.040039 210.503204,140.850342 204.369797,140.746704 
	C201.325836,140.695297 198.302536,139.419724 195.136749,138.354736 
	C200.084473,135.039993 205.165359,132.068466 210.791046,129.032516 
	C211.859177,128.563278 212.382523,128.158463 212.905853,127.753639 
	C226.512909,119.722290 240.066071,111.597946 253.737503,103.677704 
	C289.163177,83.154648 324.716888,62.850903 360.025757,42.129498 
	C366.161865,38.528461 370.799225,38.083946 377.231903,41.886421 
	C417.038147,65.416489 457.129364,88.464622 497.138214,111.651619 
	C509.231110,118.660027 521.363098,125.601074 533.838135,133.047699 
	C535.168152,133.958481 536.137207,134.394501 537.106262,134.830521 
	C538.239075,135.421234 539.371948,136.011948 540.750610,136.807068 
z"/>
<path fill="#5094CE" opacity="1.000000" stroke="none" 
	d="
M536.889282,134.616638 
	C536.137207,134.394501 535.168152,133.958481 534.098145,133.266266 
	C534.888916,133.474289 535.780640,133.938522 536.889282,134.616638 
z"/>
<path fill="#5094CE" opacity="1.000000" stroke="none" 
	d="
M212.641632,127.865280 
	C212.382523,128.158463 211.859177,128.563278 211.123184,128.914978 
	C211.399475,128.566895 211.888443,128.271912 212.641632,127.865280 
z"/>
<path fill="#EDF4FA" opacity="1.000000" stroke="none" 
	d="
M511.181152,462.747681 
	C505.081299,456.910797 503.343658,447.912445 507.210724,440.497833 
	C508.955017,437.153412 511.300812,434.122650 513.894165,431.046570 
	C514.641541,432.103668 514.868469,433.063782 515.317261,434.962524 
	C517.012512,432.225189 518.755432,430.507965 515.139526,429.214325 
	C524.756958,420.603180 536.849487,418.295776 548.927551,415.967529 
	C554.462036,414.900665 560.052734,414.078552 565.522339,412.751312 
	C567.174316,412.350372 569.384583,410.901642 569.835999,409.461670 
	C572.212036,401.881714 574.121338,394.154724 576.139465,386.464813 
	C576.289917,385.891632 576.022827,385.208923 575.809204,383.358795 
	C574.134644,385.368256 573.088684,386.688873 571.974487,387.949219 
	C566.923279,393.662964 562.002197,399.501770 556.748535,405.023712 
	C551.156616,410.901215 543.877563,412.997009 535.963745,413.146240 
	C526.995728,413.315399 520.157043,406.124817 520.517761,397.040100 
	C520.534302,396.624359 520.152283,396.192719 520.023926,395.483948 
	C520.767761,394.736084 521.443542,394.272736 523.060486,393.164062 
	C520.455627,393.164062 519.261902,393.164062 518.068115,393.164062 
	C518.068115,389.868927 518.068115,386.573792 518.068115,383.278687 
	C517.813171,383.149353 517.558167,383.020020 517.303223,382.890686 
	C516.352966,384.476410 515.515625,386.144165 514.433899,387.634521 
	C507.816010,396.752625 501.446533,406.078186 494.337891,414.799622 
	C491.504425,418.275940 487.291718,420.985016 483.195862,423.009338 
	C470.491364,429.288391 458.755463,422.637909 458.181122,408.494019 
	C457.847229,400.271362 458.484650,391.826447 460.057129,383.748657 
	C462.974213,368.763702 466.896759,353.974518 470.879669,338.873901 
	C471.430450,338.544495 471.502167,338.444946 471.573883,338.345398 
	C471.382355,338.231018 471.190826,338.116669 470.999298,338.002319 
	C471.425079,335.632690 471.850861,333.263062 472.521179,330.199799 
	C474.558075,321.182220 471.470673,318.340424 463.214355,320.902191 
	C456.613525,322.950287 451.627197,327.158600 447.981781,332.993652 
	C438.220642,346.754456 432.346893,362.238190 428.105743,378.396454 
	C425.784546,387.239929 423.863037,396.188263 421.183594,405.106812 
	C419.652344,404.701538 418.698730,404.278778 417.774719,403.867737 
	C417.804321,403.879456 417.862915,403.904358 417.789276,403.558533 
	C415.581329,402.502136 413.480957,401.451904 411.297455,401.233734 
	C410.303436,401.134430 409.145020,402.679993 408.061188,403.479431 
	C408.768860,404.404510 409.468201,406.115082 410.185608,406.122681 
	C413.860260,406.161682 417.539551,405.761932 421.217224,405.515564 
	C420.206757,411.856323 419.281555,418.213135 418.092316,424.520172 
	C417.917145,425.449127 416.552155,426.754639 415.632019,426.848297 
	C407.305267,427.695953 398.954956,428.312469 389.528748,429.085510 
	C390.878235,422.536407 392.027283,416.960114 393.377441,410.773376 
	C393.571655,409.339874 393.564697,408.516754 393.557739,407.693634 
	C393.307617,407.985626 393.057495,408.277618 392.807373,408.569641 
	C387.144012,415.499359 381.799316,422.728363 375.686951,429.236359 
	C372.480927,432.649963 368.228333,435.472168 363.925385,437.385345 
	C353.929413,441.829803 345.075104,437.535095 342.235565,427.017334 
	C340.951111,422.259521 340.742706,417.199921 340.191803,412.260986 
	C339.975159,410.318726 340.156342,408.332092 339.229309,405.991730 
	C338.354340,407.451416 337.466949,408.903778 336.606354,410.371918 
	C329.785431,422.007843 323.121521,433.907990 312.216614,442.231903 
	C307.938416,445.497498 302.361237,447.619690 297.049438,448.826202 
	C290.931915,450.215759 285.628082,447.624817 282.540375,441.480347 
	C282.955414,440.983093 283.230377,440.821899 283.505310,440.660706 
	C283.007599,440.428253 282.509888,440.195801 282.012207,439.963318 
	C279.569824,433.793732 278.207367,427.506409 280.335236,420.499451 
	C282.998138,421.066071 285.258026,422.015778 287.517914,422.965485 
	C287.729004,422.259949 287.940094,421.554413 288.151184,420.848907 
	C285.434113,420.242218 282.717041,419.635529 279.999969,419.028839 
	C280.190063,415.832916 280.380157,412.636993 280.978271,409.118744 
	C281.241058,408.586487 281.095764,408.376526 280.950500,408.166595 
	C283.556976,396.662292 286.163452,385.157959 289.208374,373.351105 
	C289.995514,372.868530 290.344208,372.688507 290.692932,372.508484 
	C290.137573,372.313751 289.582214,372.118988 289.026855,371.924225 
	C290.770386,365.175140 292.735077,358.470886 294.118896,351.648834 
	C294.519440,349.674316 293.912415,346.370331 292.569427,345.477325 
	C291.171234,344.547577 288.060303,345.251160 286.154175,346.178009 
	C272.037354,353.042572 262.810364,364.628693 258.034180,379.107880 
	C252.590347,395.611053 248.573975,412.588989 244.069580,429.396057 
	C242.434128,435.498383 241.291306,441.732635 239.661987,447.836823 
	C239.323181,449.106110 237.912567,450.928406 236.851715,451.032990 
	C228.447281,451.861633 220.007904,452.336212 210.799713,452.973541 
	C212.955551,445.967804 214.899750,439.649780 216.921082,433.027405 
	C216.998184,432.723053 217.023071,432.510864 217.023071,432.510864 
	C217.023071,432.510864 216.850922,432.706299 216.850922,432.706299 
	C219.215927,423.297760 221.626266,413.900299 223.924637,404.475525 
	C224.906113,400.450806 225.653976,396.369110 226.950180,392.028656 
	C227.250565,391.530273 227.108795,391.316589 226.967010,391.102875 
	C227.140442,390.174377 227.313873,389.245850 228.008667,388.150085 
	C228.803741,387.897308 229.077438,387.811798 229.351135,387.726288 
	C228.893768,387.506104 228.436417,387.285919 227.979065,387.065704 
	C228.790482,383.642334 229.601898,380.218994 230.880585,376.692993 
	C231.822830,376.376282 232.297791,376.162201 232.772766,375.948090 
	C232.154449,375.736969 231.536133,375.525848 230.917816,375.314728 
	C231.125259,374.024078 231.332703,372.733459 232.022263,371.146729 
	C232.355011,370.516083 232.205658,370.181458 232.056305,369.846863 
	C235.751419,355.295013 239.446518,340.743134 243.472870,325.693390 
	C244.251129,322.723083 244.410110,320.154510 245.197754,317.795837 
	C247.845230,309.867615 250.716675,302.014221 253.676971,293.835022 
	C260.164764,276.705353 266.733093,260.018372 278.213989,245.805695 
	C286.095764,236.048538 295.678802,229.706833 308.689880,229.830414 
	C313.857147,229.879486 318.159760,232.049530 319.478424,237.032806 
	C320.627472,241.375076 320.907166,246.213394 320.342529,250.677155 
	C319.601929,256.531891 317.655579,262.234070 316.062897,268.331238 
	C311.341217,278.443817 306.784454,288.227081 302.016724,298.293854 
	C293.969482,311.159729 286.133240,323.742065 278.105347,336.507874 
	C277.827423,337.042938 277.741150,337.394562 277.654907,337.746185 
	C278.148529,337.547546 278.642151,337.348877 279.462555,337.039001 
	C281.998871,335.473267 284.155182,333.929108 286.427917,332.581207 
	C293.145050,328.597443 300.360107,326.253906 308.248657,326.504517 
	C316.668915,326.772003 321.405060,330.826874 322.073792,339.167542 
	C322.425476,343.553406 322.115509,348.197876 321.035431,352.454315 
	C317.845093,365.026642 313.673523,377.360352 310.760803,389.989227 
	C308.720459,398.835724 307.771057,407.984039 307.008118,417.054260 
	C306.609772,421.790100 309.467133,423.236908 313.876282,421.263885 
	C317.148560,419.799561 320.309204,418.085876 323.644836,416.261963 
	C323.488251,415.729248 323.206360,415.417877 322.840271,414.746765 
	C334.251038,398.503113 342.092438,380.887390 348.088287,362.288788 
	C351.125336,352.868103 354.715454,343.564148 358.857300,334.576904 
	C363.980011,323.461395 372.071777,316.315948 385.521210,317.904999 
	C388.702637,318.280914 392.001465,317.663147 395.194305,317.505035 
	C392.911469,321.404175 389.977448,325.091553 388.429138,329.289948 
	C381.814331,347.226471 375.213715,365.188690 369.440460,383.405426 
	C366.995209,391.120911 364.908142,399.316986 366.933746,407.717621 
	C367.996765,412.126160 370.318634,413.023926 374.064026,410.397278 
	C380.939056,405.575684 386.230804,399.346069 390.145599,391.974152 
	C392.693573,387.176025 394.873871,382.183777 397.377991,377.361053 
	C403.175079,366.196198 410.047577,355.469788 411.730194,342.628418 
	C413.145416,331.827301 417.627655,321.306976 414.334045,309.035156 
	C421.184906,309.035156 427.597992,309.004517 434.010620,309.044037 
	C440.060760,309.081329 442.905792,311.926697 442.822540,317.906647 
	C442.794891,319.894928 442.476837,321.879120 442.195557,324.134766 
	C442.392609,324.832520 442.685669,325.260712 442.978699,325.688904 
	C443.328125,325.129425 443.677551,324.569946 444.341736,323.819794 
	C444.822021,323.447906 444.987488,323.266754 445.319946,323.273132 
	C446.152649,323.479156 446.818329,323.497589 447.484009,323.515991 
	C447.249573,323.012238 447.015167,322.508453 446.876343,321.670013 
	C456.767395,311.416565 468.370819,305.300018 482.404236,303.776123 
	C491.235809,302.817047 497.637878,306.839783 499.123169,315.530212 
	C499.728455,319.071777 500.054352,322.956879 499.249603,326.390930 
	C496.253601,339.175385 492.403473,351.762848 489.524719,364.570557 
	C487.455139,373.778229 485.959900,383.176453 485.102478,392.571289 
	C484.613983,397.923859 488.318451,399.729065 492.396057,396.270813 
	C497.296173,392.114960 502.119476,387.537018 505.745789,382.291382 
	C510.706390,375.115631 514.508057,367.138702 518.988342,359.661255 
	C519.440063,359.730927 519.709961,359.644531 519.979797,359.558105 
	C519.856018,359.469727 519.709229,359.287140 519.612793,359.310699 
	C519.331848,359.379364 519.071106,359.530518 518.825562,359.234436 
	C521.930237,349.901367 524.914978,340.948059 528.132019,332.079041 
	C529.882202,327.253845 532.027161,322.571838 534.271362,317.814911 
	C534.613098,317.243927 534.677490,316.683228 534.880127,315.786743 
	C538.575256,308.566772 543.158752,302.582581 550.232849,298.450073 
	C553.345886,297.502380 556.118408,296.587616 558.890869,295.672852 
	C562.158264,295.178467 565.413452,294.482239 568.698730,294.282501 
	C570.146790,294.194519 572.121155,294.718506 572.973755,295.717865 
	C573.539856,296.381409 572.970398,298.712677 572.179810,299.731262 
	C557.263855,318.947540 550.439514,341.484741 545.636658,364.772736 
	C544.438354,370.582855 544.289490,376.683502 544.330078,382.646027 
	C544.352783,385.982666 545.754089,389.309937 546.310547,391.686554 
	C549.279785,392.524017 551.209229,393.068207 552.931702,393.554047 
	C570.268616,373.401154 583.952637,350.261169 591.375122,323.707977 
	C592.871643,318.354492 594.386169,312.979309 596.360718,307.792450 
	C599.283142,300.115875 603.753418,293.713043 612.712341,292.438202 
	C620.378357,291.347351 628.085083,290.542328 635.965942,290.090363 
	C625.999695,299.734741 622.166138,312.155975 618.739624,324.598328 
	C611.544556,350.725128 604.773132,376.968597 597.827759,403.164185 
	C598.184937,403.475769 598.542053,403.787354 598.899231,404.098969 
	C603.620667,401.031311 608.746277,398.434082 612.979431,394.797974 
	C621.778809,387.239746 630.057617,379.078644 638.643738,371.267822 
	C643.893250,366.492279 649.163330,361.714142 654.724792,357.317322 
	C657.544128,355.088287 660.948425,353.530426 664.232971,351.974579 
	C669.122375,349.658569 673.697021,351.660767 674.286072,357.073273 
	C674.792786,361.729706 674.852417,367.044708 673.090088,371.215149 
	C669.037048,380.806519 664.771179,390.599548 658.789124,399.032043 
	C636.640442,430.253662 610.954651,458.421631 582.231079,483.758698 
	C563.140198,500.598755 540.922729,511.245056 515.771545,514.822144 
	C488.353882,518.721497 460.798157,521.656250 433.294708,524.945190 
	C388.266266,530.329712 343.544128,537.083313 301.402069,555.044861 
	C275.489197,566.089294 252.370285,581.048584 235.011124,603.767944 
	C226.438965,614.987183 220.081543,627.378845 215.926346,640.887939 
	C215.502426,642.266113 214.982635,643.614868 214.133804,646.047974 
	C197.914795,618.853088 176.200897,598.464233 149.576645,583.428711 
	C122.833473,568.325928 94.174744,560.010864 63.024307,560.497131 
	C105.043922,538.849915 149.637131,525.388550 196.683136,518.203613 
	C197.389526,518.230835 197.609024,518.090027 197.828522,517.949219 
	C219.638763,515.468079 241.396973,512.261597 263.272644,510.693085 
	C289.479431,508.814026 315.792877,508.466553 342.048828,507.218353 
	C392.317627,504.828613 442.694031,503.955109 492.647705,496.937592 
	C513.001892,494.078217 533.419373,491.601501 552.312500,482.535767 
	C573.020569,472.599152 590.864685,458.915405 606.074280,441.827118 
	C617.582397,428.897522 628.911621,415.795074 639.897827,402.422424 
	C643.628418,397.881470 646.286743,392.390503 648.961853,387.094635 
	C649.744629,385.545044 648.897766,383.172241 648.797852,381.176697 
	C647.136414,381.675751 645.189148,381.779114 643.860596,382.738892 
	C636.035706,388.391815 628.355042,394.244171 619.990479,400.183228 
	C619.196838,400.712433 619.038635,401.087738 618.880432,401.463074 
	C610.941040,406.377625 602.862488,411.089203 595.169067,416.362549 
	C593.443359,417.545380 592.920898,420.641785 592.089050,422.945526 
	C585.042847,442.459412 572.945801,457.635986 553.394836,465.451508 
	C540.120300,470.758026 526.355530,472.313934 513.072388,464.056641 
	C512.798950,462.984375 512.526917,462.476807 512.254883,461.969238 
	C511.896973,462.228699 511.539062,462.488190 511.181152,462.747681 
M274.918823,322.425232 
	C283.884979,305.588501 293.344910,288.988861 301.594940,271.808258 
	C305.340790,264.007568 306.894226,255.105820 308.978790,246.590118 
	C309.489380,244.504181 308.180298,241.972809 307.707794,239.646210 
	C305.486877,240.815430 302.815765,241.547043 301.152435,243.258240 
	C298.759857,245.719681 296.567993,248.665237 295.220337,251.803467 
	C289.340942,265.494965 283.369324,279.174225 278.257050,293.159790 
	C273.465759,306.267395 269.703064,319.751526 265.522644,333.080872 
	C265.177582,334.181122 265.099823,335.365173 264.897888,336.510254 
	C265.160980,336.594635 265.424072,336.679016 265.687134,336.763397 
	C268.636444,332.188782 271.585724,327.614197 274.918823,322.425232 
M527.559509,434.966522 
	C525.733704,437.535065 522.710754,439.922821 522.290894,442.703674 
	C520.536133,454.324036 530.650146,461.879089 541.744019,457.700958 
	C551.657532,453.967346 563.942261,436.269592 564.217346,424.236145 
	C551.998657,427.741821 540.095703,431.156952 527.559509,434.966522 
M576.714966,383.597198 
	C576.666626,383.308472 576.618286,383.019714 576.569946,382.730988 
	C576.335815,382.788574 576.101746,382.846161 575.867615,382.903717 
	C575.966980,383.273102 576.066345,383.642456 576.714966,383.597198 
z"/>
<path fill="#4A90CC" opacity="1.000000" stroke="none" 
	d="
M316.227814,268.001862 
	C317.655579,262.234070 319.601929,256.531891 320.342529,250.677155 
	C320.907166,246.213394 320.627472,241.375076 319.478424,237.032806 
	C318.159760,232.049530 313.857147,229.879486 308.689880,229.830414 
	C295.678802,229.706833 286.095764,236.048538 278.213989,245.805695 
	C266.733093,260.018372 260.164764,276.705353 253.175140,293.815979 
	C243.151810,294.000549 233.804855,293.907043 224.630814,293.506775 
	C225.737534,292.032715 226.693558,290.882477 227.601517,289.695465 
	C233.175964,282.407806 232.844864,274.962830 225.908066,268.940277 
	C215.352768,259.776123 202.664124,254.957855 188.886078,254.121643 
	C170.671066,253.016205 155.359314,259.414795 143.998352,273.978149 
	C142.249344,272.094482 140.625580,270.545685 139.001816,268.996918 
	C139.001816,268.996918 139.000000,269.000000 138.809555,268.734253 
	C137.080017,267.310516 135.540924,266.152557 134.001831,264.994598 
	C133.786636,264.766724 133.567017,264.543182 132.981323,263.896667 
	C131.080490,262.310913 129.541275,261.152557 128.002075,259.994171 
	C127.166992,259.114868 126.331917,258.235596 125.056046,256.908630 
	C122.410896,254.638641 120.206535,252.816269 118.002182,250.993912 
	C115.848495,248.790207 113.694801,246.586502 111.157890,243.877563 
	C109.183197,241.581360 107.591728,239.790375 106.000267,237.999390 
	C104.839439,236.788605 103.678604,235.577805 102.152054,233.881836 
	C100.857552,232.264435 99.928772,231.132217 99.000000,230.000000 
	C95.410431,224.883286 91.820862,219.766556 88.112854,214.327698 
	C95.124100,221.457626 104.381256,219.987961 113.264664,219.991943 
	C154.089951,220.010239 194.915436,220.080399 235.740509,219.985001 
	C361.030060,219.692230 486.319489,219.352676 611.608765,218.954834 
	C620.588318,218.926331 629.628601,218.784851 638.515015,217.682907 
	C642.296936,217.213928 645.755249,214.134201 649.682861,212.122833 
	C642.604614,221.566711 635.440491,231.325531 627.709351,240.612320 
	C623.481262,245.691315 618.294312,249.972092 612.907776,254.860321 
	C610.240051,256.165344 608.048828,257.003662 606.195007,258.317932 
	C597.618591,264.398132 588.723755,268.226196 577.630249,268.183990 
	C490.497101,267.852783 403.362183,268.001221 316.227814,268.001862 
z"/>
<path fill="#EDF4FA" opacity="1.000000" stroke="none" 
	d="
M144.123611,274.313049 
	C155.359314,259.414795 170.671066,253.016205 188.886078,254.121643 
	C202.664124,254.957855 215.352768,259.776123 225.908066,268.940277 
	C232.844864,274.962830 233.175964,282.407806 227.601517,289.695465 
	C226.693558,290.882477 225.737534,292.032715 224.389160,293.708649 
	C219.790695,298.302887 215.606827,302.388397 210.618393,307.259583 
	C208.029541,302.039948 206.035080,298.018707 204.078690,293.562866 
	C203.284439,288.447540 202.822021,283.660950 201.520309,279.114655 
	C200.093903,274.132843 196.325394,271.090607 191.194366,270.177826 
	C187.953735,269.601379 184.629456,269.222198 181.343185,269.225616 
	C170.727707,269.236755 164.910950,273.622223 161.360779,284.093719 
	C161.008728,285.200470 160.830750,286.037048 160.652771,286.873596 
	C157.445160,296.164886 155.277328,305.709137 160.482147,314.767761 
	C163.732803,320.425323 168.387619,325.290771 172.523438,330.422089 
	C182.207199,342.436798 192.630569,353.919464 201.551880,366.472260 
	C225.672684,400.411499 204.106262,441.958069 172.336929,452.325317 
	C155.789597,457.725220 138.890274,459.856110 121.708519,457.001251 
	C112.070946,455.399963 104.764740,449.661346 100.413467,440.428772 
	C100.902817,439.655212 101.165665,439.263428 101.428513,438.871643 
	C100.949577,438.743835 100.470650,438.616028 99.991722,438.488220 
	C95.819687,433.573700 95.078094,427.569885 96.315285,421.788910 
	C98.152405,413.204742 102.884247,405.875641 109.035507,399.603729 
	C112.681129,395.886597 114.861923,396.501434 116.380272,401.391876 
	C116.674545,402.339722 116.975868,403.318207 117.043716,404.298523 
	C117.984993,417.897675 121.895996,430.360596 131.099274,441.240295 
	C131.285355,441.586273 131.171127,441.254669 131.171127,441.254669 
	C131.171127,441.254669 131.388702,441.514893 131.388702,441.514893 
	C134.553116,443.541443 137.586243,445.820953 140.907867,447.544556 
	C149.121887,451.806824 157.166885,451.056915 164.208771,445.148438 
	C174.641479,436.394897 182.200897,425.911713 181.462265,411.393127 
	C181.314438,408.487640 180.468689,405.617615 180.231842,402.307190 
	C180.879959,401.684662 181.240936,401.486237 181.601913,401.287781 
	C180.735046,400.857239 179.868195,400.426666 179.001343,399.996094 
	C174.396606,392.899506 170.129349,385.553192 165.106522,378.766022 
	C157.917877,369.052216 149.871323,359.969757 142.756760,350.205566 
	C135.454529,340.183838 130.223221,329.120300 129.506775,316.414734 
	C129.433945,315.123383 129.641052,313.816284 129.951431,312.144653 
	C130.184601,311.772827 130.304062,311.481262 130.304062,311.481262 
	C130.304062,311.481262 129.983948,311.383728 129.983948,311.383728 
	C129.346771,302.356232 132.771606,294.341583 136.477936,286.481873 
	C138.233414,282.759155 140.724915,279.383514 143.212189,275.444153 
	C143.842606,274.882172 144.036667,274.640656 144.123611,274.313049 
z"/>
<path fill="#488FCC" opacity="1.000000" stroke="none" 
	d="
M316.062897,268.331238 
	C403.362183,268.001221 490.497101,267.852783 577.630249,268.183990 
	C588.723755,268.226196 597.618591,264.398132 606.195007,258.317932 
	C608.048828,257.003662 610.240051,256.165344 612.638062,255.054230 
	C599.906250,267.523682 585.319946,278.020905 569.733154,287.215637 
	C565.986511,289.425812 562.663879,292.354797 559.018555,295.313019 
	C556.118408,296.587616 553.345886,297.502380 549.699158,298.364807 
	C545.830933,298.208374 542.837097,298.014923 539.843079,298.013550 
	C495.702454,297.993591 451.561676,298.043732 407.421509,297.904846 
	C404.259949,297.894897 401.102600,296.546265 398.122864,295.541412 
	C400.044037,292.328949 403.025757,289.468323 403.204498,286.442169 
	C403.414581,282.886261 402.155487,278.159271 399.719513,275.872650 
	C397.753174,274.026855 392.590027,273.830811 389.719360,275.017609 
	C379.050629,279.428284 377.040436,288.896118 383.784607,298.014038 
	C380.897156,298.409058 378.429413,298.946869 375.960052,298.954376 
	C354.012207,299.021088 332.063965,299.027039 310.116180,298.951233 
	C307.485657,298.942139 304.857147,298.338440 302.227722,298.010315 
	C306.784454,288.227081 311.341217,278.443817 316.062897,268.331238 
z"/>
<path fill="#438BCA" opacity="1.000000" stroke="none" 
	d="
M161.015640,286.980957 
	C160.830750,286.037048 161.008728,285.200470 161.737366,284.207153 
	C175.534256,290.183807 188.893494,295.842926 204.040619,293.997498 
	C206.035080,298.018707 208.029541,302.039948 210.618393,307.259583 
	C215.606827,302.388397 219.790695,298.302887 224.216248,294.015442 
	C233.804855,293.907043 243.151810,294.000549 253.000595,294.113098 
	C250.716675,302.014221 247.845230,309.867615 245.197754,317.795837 
	C244.410110,320.154510 244.251129,322.723083 243.496704,325.315613 
	C240.003952,323.751862 236.986740,321.533691 233.606262,320.470093 
	C210.163345,313.094208 188.125900,302.720459 167.133362,290.023010 
	C165.295700,288.911530 163.300522,288.060394 161.015640,286.980957 
z"/>
<path fill="#438BCA" opacity="1.000000" stroke="none" 
	d="
M448.421753,332.992554 
	C451.627197,327.158600 456.613525,322.950287 463.214355,320.902191 
	C471.470673,318.340424 474.558075,321.182220 472.570465,329.799500 
	C464.537384,331.059082 456.699585,332.025299 448.421753,332.992554 
z"/>
<path fill="#E3EEF7" opacity="1.000000" stroke="none" 
	d="
M408.376099,781.587891 
	C407.923981,784.037415 407.775024,786.676086 407.538025,790.874146 
	C403.688080,787.311584 400.700928,784.547485 397.713776,781.783325 
	C398.026337,781.349304 398.338928,780.915283 398.651489,780.481262 
	C400.682709,781.898254 402.713928,783.315308 405.159119,785.021118 
	C404.896698,782.026672 404.678192,779.533325 404.357605,775.875427 
	C407.375916,778.081726 409.405762,779.565491 411.955200,781.429077 
	C411.595886,778.293396 411.311768,775.814087 411.027679,773.334839 
	C411.574829,773.234863 412.122009,773.134827 412.669159,773.034851 
	C413.509949,777.053894 414.350739,781.072937 415.191528,785.091980 
	C414.741913,785.358826 414.292297,785.625671 413.842682,785.892517 
	C412.121552,784.520691 410.400421,783.148804 408.376099,781.587891 
z"/>
<path fill="#E3EEF7" opacity="1.000000" stroke="none" 
	d="
M393.564728,789.617554 
	C394.051575,787.326233 394.210083,784.845032 394.368591,782.363831 
	C394.800476,782.258789 395.232361,782.153748 395.664215,782.048706 
	C396.524139,786.032166 397.384033,790.015564 398.243958,793.998962 
	C397.828979,794.291992 397.414032,794.585083 396.999084,794.878113 
	C394.883942,793.317871 392.768799,791.757568 390.139832,789.818237 
	C390.456238,793.047852 390.712097,795.659363 390.967926,798.270874 
	C390.527710,798.535034 390.087494,798.799194 389.647278,799.063354 
	C386.671356,796.287354 383.695435,793.511414 380.719513,790.735413 
	C381.035950,790.309937 381.352417,789.884460 381.668884,789.458984 
	C383.586975,790.827759 385.505066,792.196472 388.188263,794.111206 
	C387.871765,791.118652 387.615967,788.699707 387.205139,784.815125 
	C389.866333,786.850342 391.551361,788.139038 393.564728,789.617554 
z"/>
<path fill="#E3EEF7" opacity="1.000000" stroke="none" 
	d="
M377.984497,793.136597 
	C378.586700,792.542297 379.232513,792.342529 379.878326,792.142822 
	C380.688629,795.770874 381.498932,799.398987 382.309235,803.027039 
	C381.871887,803.310364 381.434509,803.593750 380.997162,803.877075 
	C378.886993,802.320129 376.776825,800.763184 374.141937,798.819031 
	C374.457550,802.047119 374.712860,804.658142 374.968140,807.269165 
	C374.528412,807.534607 374.088654,807.800049 373.648895,808.065491 
	C370.672760,805.291260 367.696625,802.517029 364.720490,799.742798 
	C365.038391,799.315125 365.356262,798.887451 365.674164,798.459778 
	C367.583588,799.827026 369.493011,801.194275 372.200623,803.133118 
	C371.875763,800.124451 371.614899,797.708679 371.195435,793.824036 
	C374.262512,796.035706 376.350037,797.541077 379.305298,799.672119 
	C378.745270,796.979553 378.386658,795.255371 377.984497,793.136597 
z"/>
<path fill="#EEF5FA" opacity="1.000000" stroke="none" 
	d="
M463.968170,753.500061 
	C462.821045,754.931763 461.310852,757.729736 460.594788,757.539429 
	C458.432983,756.964966 455.739380,755.644043 454.844208,753.829285 
	C453.961700,752.040100 454.653961,749.167297 455.386200,747.019043 
	C455.748199,745.956970 457.755341,745.455750 459.161865,744.614868 
	C458.527954,742.869934 457.894135,741.125427 457.260345,739.380920 
	C457.728333,739.148865 458.196289,738.916809 458.664246,738.684753 
	C461.573883,743.570007 464.483521,748.455200 467.668091,753.802002 
	C466.105835,753.976196 465.317383,754.064087 464.153839,753.597778 
	C463.496887,752.109375 463.490326,750.886169 462.876007,750.300903 
	C461.579010,749.065308 460.051483,747.947937 458.414795,747.284851 
	C458.033997,747.130493 456.001404,749.206421 456.176788,749.878052 
	C456.670776,751.769470 457.528564,754.084717 459.008392,755.014160 
	C459.966644,755.616028 462.268402,754.078796 463.968170,753.500061 
z"/>
<path fill="#E1ECF6" opacity="1.000000" stroke="none" 
	d="
M509.515228,715.802429 
	C512.715759,713.608154 515.794189,711.181824 519.204834,709.386841 
	C520.032104,708.951538 522.395569,710.247681 523.278076,711.361389 
	C524.925720,713.440613 526.005554,715.969727 527.321655,718.311646 
	C526.852173,718.609436 526.382629,718.907227 525.913147,719.205078 
	C524.632507,717.347900 523.523987,715.330688 522.003967,713.696106 
	C521.150269,712.778137 519.616455,712.492554 518.389099,711.922058 
	C518.147400,713.353394 517.419067,714.920715 517.772705,716.185669 
	C518.374390,718.338013 519.656616,720.300110 521.232605,723.530334 
	C517.215759,720.182373 514.447388,717.875000 510.955902,715.729004 
	C509.993591,715.861023 509.754395,715.831726 509.515228,715.802429 
z"/>
<path fill="#E5EFF8" opacity="1.000000" stroke="none" 
	d="
M497.875549,721.913452 
	C500.613800,718.823914 503.495056,719.387451 505.990936,722.004150 
	C508.404846,724.534851 509.034271,727.606323 506.515076,730.506287 
	C504.421844,732.915894 501.634460,733.697754 498.983154,731.673279 
	C495.734009,729.192261 494.475830,725.978638 497.934174,722.322571 
	C498.465302,723.725159 497.699219,725.412720 498.242035,726.218201 
	C499.398468,727.934082 501.234253,729.192200 502.791626,730.637939 
	C503.765869,729.503967 505.772125,727.979309 505.518768,727.310059 
	C504.788971,725.382263 503.366089,723.541260 501.771454,722.190247 
	C500.969879,721.511230 499.204865,721.969482 497.875549,721.913452 
z"/>
<path fill="#E5EFF8" opacity="1.000000" stroke="none" 
	d="
M472.875549,736.913452 
	C475.613770,733.823914 478.495087,734.387512 480.990936,737.004089 
	C483.404724,739.534790 484.034363,742.606323 481.515076,745.506287 
	C479.421844,747.915833 476.634399,748.697815 473.983185,746.673218 
	C470.734009,744.192322 469.475800,740.978638 472.934204,737.322571 
	C473.465363,738.725159 472.699249,740.412720 473.242065,741.218140 
	C474.398438,742.934143 476.234253,744.192200 477.791626,745.637939 
	C478.765839,744.503967 480.772217,742.979248 480.518829,742.310059 
	C479.789062,740.382263 478.366119,738.541260 476.771423,737.190308 
	C475.969849,736.511292 474.204865,736.969482 472.875549,736.913452 
z"/>
<path fill="#71A8D7" opacity="1.000000" stroke="none" 
	d="
M417.745148,403.856018 
	C418.698730,404.278778 419.652344,404.701538 420.903046,405.394989 
	C421.200165,405.665680 421.125061,405.582642 421.171143,405.549103 
	C417.539551,405.761932 413.860260,406.161682 410.185608,406.122681 
	C409.468201,406.115082 408.768860,404.404510 408.061188,403.479431 
	C409.145020,402.679993 410.303436,401.134430 411.297455,401.233734 
	C413.480957,401.451904 415.581329,402.502136 417.770691,403.691376 
	C417.899780,404.138916 417.973816,404.107758 418.047882,404.076599 
	C417.946991,404.003052 417.846069,403.929535 417.745148,403.856018 
z"/>
<path fill="#E4EEF7" opacity="1.000000" stroke="none" 
	d="
M434.883362,756.779541 
	C436.234863,757.197510 437.293549,757.356201 438.349152,757.514465 
	C436.818451,761.888977 438.996796,765.669983 443.932220,766.913269 
	C443.696838,767.346741 443.413391,768.102356 443.281219,768.076843 
	C441.594604,767.750183 439.256866,767.874084 438.367767,766.810669 
	C432.369110,759.635559 432.468811,759.552185 434.883362,756.779541 
z"/>
<path fill="#DBE9F5" opacity="1.000000" stroke="none" 
	d="
M488.935791,736.929932 
	C485.438232,730.906311 486.663788,727.631653 491.568024,726.440491 
	C491.104370,728.784241 489.523407,731.929260 490.392273,734.088440 
	C490.971191,735.526978 495.043518,735.559753 497.875427,736.306946 
	C495.603394,738.694458 492.854980,739.955811 488.935791,736.929932 
z"/>
<path fill="#DCEAF5" opacity="1.000000" stroke="none" 
	d="
M452.984436,760.955322 
	C451.101440,762.223938 448.010986,764.926453 447.534332,764.525024 
	C444.747375,762.178101 442.572266,759.104614 440.190674,756.276306 
	C440.803528,755.789001 441.416382,755.301636 442.029205,754.814331 
	C443.278656,756.602600 444.540833,758.382080 445.774445,760.181213 
	C447.355774,762.487488 449.027283,763.564331 451.489685,760.414795 
	C452.267822,760.431519 452.626129,760.693420 452.984436,760.955322 
z"/>
<path fill="#DBE9F5" opacity="1.000000" stroke="none" 
	d="
M424.889008,766.571960 
	C421.419159,767.865540 421.235992,770.195129 422.774567,773.126648 
	C423.620575,774.738464 424.370056,776.400940 425.163086,778.040588 
	C424.593109,778.354370 424.023163,778.668213 423.453186,778.981995 
	C421.550659,775.771851 419.648132,772.561707 416.996582,768.087708 
	C419.905701,767.771179 422.026611,767.540405 424.527588,767.065552 
	C424.907654,766.821533 424.889008,766.571960 424.889008,766.571960 
z"/>
<path fill="#E5EFF8" opacity="1.000000" stroke="none" 
	d="
M425.169495,766.937744 
	C424.889008,766.571960 424.907654,766.821533 424.924286,766.883118 
	C425.413177,764.127686 426.591827,762.059387 430.533722,761.994873 
	C429.292816,763.535400 428.399628,764.644348 427.446411,765.827698 
	C430.207886,766.906860 432.683960,767.726379 434.974396,768.906250 
	C435.386200,769.118408 435.032990,770.815735 435.032990,771.670898 
	C431.550537,770.083801 428.500244,768.693726 425.169495,766.937744 
z"/>
<path fill="#DCEAF5" opacity="1.000000" stroke="none" 
	d="
M509.163605,715.885742 
	C509.754395,715.831726 509.993591,715.861023 510.591309,715.936340 
	C511.815613,719.434265 512.681396,722.886169 513.547180,726.338135 
	C513.177979,726.552551 512.808716,726.767029 512.439514,726.981506 
	C510.623077,723.699097 508.796967,720.421753 507.069946,717.092957 
	C507.040009,717.035156 508.204712,716.357544 509.163605,715.885742 
z"/>
<path fill="#E0ECF6" opacity="1.000000" stroke="none" 
	d="
M471.569000,749.282227 
	C471.198822,750.133423 470.641052,750.682007 470.083252,751.230530 
	C468.208435,748.092407 466.333588,744.954285 464.458771,741.816162 
	C465.098785,741.423767 465.738800,741.031372 466.378815,740.638977 
	C468.046356,743.419189 469.713867,746.199341 471.569000,749.282227 
z"/>
<path fill="#E7F0F8" opacity="1.000000" stroke="none" 
	d="
M453.335266,760.979004 
	C452.626129,760.693420 452.267822,760.431519 451.707397,760.076294 
	C450.255280,757.213440 449.005280,754.443909 447.540771,751.199036 
	C451.484192,753.000183 454.473450,758.168274 453.335266,760.979004 
z"/>
<path fill="#438BCA" opacity="1.000000" stroke="none" 
	d="
M118.120476,251.315063 
	C120.206535,252.816269 122.410896,254.638641 124.809128,256.729889 
	C122.748253,255.211258 120.493515,253.423752 118.120476,251.315063 
z"/>
<path fill="#438BCA" opacity="1.000000" stroke="none" 
	d="
M280.005341,419.287292 
	C282.717041,419.635529 285.434113,420.242218 288.151184,420.848907 
	C287.940094,421.554413 287.729004,422.259949 287.517914,422.965485 
	C285.258026,422.015778 282.998138,421.066071 280.380127,420.089478 
	C280.018250,419.890289 280.014465,419.717987 280.005341,419.287292 
z"/>
<path fill="#438BCA" opacity="1.000000" stroke="none" 
	d="
M106.061539,238.347198 
	C107.591728,239.790375 109.183197,241.581360 110.890419,243.685059 
	C109.378387,242.230179 107.750603,240.462585 106.061539,238.347198 
z"/>
<path fill="#438BCA" opacity="1.000000" stroke="none" 
	d="
M143.998352,273.978149 
	C144.036667,274.640656 143.842606,274.882172 143.320312,275.125732 
	C141.810760,273.352936 140.522339,271.492004 139.117859,269.313995 
	C140.625580,270.545685 142.249344,272.094482 143.998352,273.978149 
z"/>
<path fill="#438BCA" opacity="1.000000" stroke="none" 
	d="
M515.000916,429.328613 
	C518.755432,430.507965 517.012512,432.225189 515.317261,434.962524 
	C514.868469,433.063782 514.641541,432.103668 514.210938,430.888794 
	C514.292297,430.236969 514.577271,429.839935 515.000916,429.328613 
z"/>
<path fill="#438BCA" opacity="1.000000" stroke="none" 
	d="
M128.124146,260.311951 
	C129.541275,261.152557 131.080490,262.310913 132.811707,263.733948 
	C131.417892,262.875671 129.832062,261.752716 128.124146,260.311951 
z"/>
<path fill="#438BCA" opacity="1.000000" stroke="none" 
	d="
M134.123962,265.312317 
	C135.540924,266.152557 137.080017,267.310516 138.810806,268.733246 
	C137.417038,267.875336 135.831573,266.752686 134.123962,265.312317 
z"/>
<path fill="#438BCA" opacity="1.000000" stroke="none" 
	d="
M99.062668,230.331680 
	C99.928772,231.132217 100.857552,232.264435 101.894958,233.697784 
	C101.044174,232.887054 100.084763,231.775208 99.062668,230.331680 
z"/>
<path fill="#438BCA" opacity="1.000000" stroke="none" 
	d="
M518.278931,393.514496 
	C519.261902,393.164062 520.455627,393.164062 523.060486,393.164062 
	C521.443542,394.272736 520.767761,394.736084 519.737061,395.215271 
	C519.084717,394.775757 518.787170,394.320343 518.278931,393.514496 
z"/>
<path fill="#438BCA" opacity="1.000000" stroke="none" 
	d="
M179.089630,400.248199 
	C179.868195,400.426666 180.735046,400.857239 181.601913,401.287781 
	C181.240936,401.486237 180.879959,401.684662 180.194244,401.913422 
	C179.638992,401.462616 179.408463,400.981445 179.089630,400.248199 
z"/>
<path fill="#438BCA" opacity="1.000000" stroke="none" 
	d="
M230.925568,375.461670 
	C231.536133,375.525848 232.154449,375.736969 232.772766,375.948090 
	C232.297791,376.162201 231.822830,376.376282 231.155731,376.391846 
	C230.953659,375.998413 230.943573,375.803528 230.925568,375.461670 
z"/>
<path fill="#438BCA" opacity="1.000000" stroke="none" 
	d="
M511.304626,462.905090 
	C511.539062,462.488190 511.896973,462.228699 512.254883,461.969238 
	C512.526917,462.476807 512.798950,462.984375 512.892456,463.744263 
	C512.285278,463.685181 511.856689,463.373840 511.304626,462.905090 
z"/>
<path fill="#438BCA" opacity="1.000000" stroke="none" 
	d="
M100.000656,438.763611 
	C100.470650,438.616028 100.949577,438.743835 101.428513,438.871643 
	C101.165665,439.263428 100.902817,439.655212 100.345154,440.093628 
	C100.036751,439.773163 100.023170,439.406067 100.000656,438.763611 
z"/>
<path fill="#438BCA" opacity="1.000000" stroke="none" 
	d="
M392.895996,409.086060 
	C393.057495,408.277618 393.307617,407.985626 393.557739,407.693634 
	C393.564697,408.516754 393.571655,409.339874 393.371521,410.398987 
	C393.104523,410.290833 393.044586,409.946655 392.895996,409.086060 
z"/>
<path fill="#438BCA" opacity="1.000000" stroke="none" 
	d="
M282.030762,440.284851 
	C282.509888,440.195801 283.007599,440.428253 283.505310,440.660706 
	C283.230377,440.821899 282.955414,440.983093 282.386169,441.196655 
	C282.077698,441.034821 282.063507,440.820587 282.030762,440.284851 
z"/>
<path fill="#438BCA" opacity="1.000000" stroke="none" 
	d="
M227.983643,387.252930 
	C228.436417,387.285919 228.893768,387.506104 229.351135,387.726288 
	C229.077438,387.811798 228.803741,387.897308 228.264252,387.898682 
	C227.998474,387.814545 227.988205,387.440125 227.983643,387.252930 
z"/>
<path fill="#438BCA" opacity="1.000000" stroke="none" 
	d="
M289.019836,372.181213 
	C289.582214,372.118988 290.137573,372.313751 290.692932,372.508484 
	C290.344208,372.688507 289.995514,372.868530 289.323547,373.000397 
	C289.004456,372.780884 289.008606,372.609558 289.019836,372.181213 
z"/>
<path fill="#438BCA" opacity="1.000000" stroke="none" 
	d="
M129.969894,311.472046 
	C129.983948,311.383728 130.304062,311.481262 130.304062,311.481262 
	C130.304062,311.481262 130.184601,311.772827 130.056488,311.754944 
	C129.928375,311.737091 129.955841,311.560364 129.969894,311.472046 
z"/>
<path fill="#438BCA" opacity="1.000000" stroke="none" 
	d="
M470.997284,338.153625 
	C471.190826,338.116669 471.382355,338.231018 471.573883,338.345398 
	C471.502167,338.444946 471.430450,338.544495 471.175842,338.625824 
	C470.992920,338.607605 470.995270,338.304962 470.997284,338.153625 
z"/>
<path fill="#438BCA" opacity="1.000000" stroke="none" 
	d="
M232.040909,370.083130 
	C232.205658,370.181458 232.355011,370.516083 232.252060,370.821411 
	C231.999741,370.792175 232.025513,370.319366 232.040909,370.083130 
z"/>
<path fill="#438BCA" opacity="1.000000" stroke="none" 
	d="
M226.973816,391.249237 
	C227.108795,391.316589 227.250565,391.530273 227.192871,391.716187 
	C226.993408,391.688354 226.980621,391.395599 226.973816,391.249237 
z"/>
<path fill="#438BCA" opacity="1.000000" stroke="none" 
	d="
M619.017700,401.228394 
	C619.038635,401.087738 619.196838,400.712433 619.660095,400.308929 
	C619.695068,400.518372 619.425049,400.756042 619.017700,401.228394 
z"/>
<path fill="#438BCA" opacity="1.000000" stroke="none" 
	d="
M280.961365,408.324219 
	C281.095764,408.376526 281.241058,408.586487 281.190369,408.796692 
	C280.994446,408.796967 280.972229,408.481812 280.961365,408.324219 
z"/>
<path fill="#438BCA" opacity="1.000000" stroke="none" 
	d="
M216.852859,432.668091 
	C216.850922,432.706299 217.023071,432.510864 217.023071,432.510864 
	C217.023071,432.510864 216.998184,432.723053 216.916779,432.639404 
	C216.835358,432.555756 216.854797,432.629852 216.852859,432.668091 
z"/>
<path fill="#438BCA" opacity="1.000000" stroke="none" 
	d="
M197.629150,517.959900 
	C197.609024,518.090027 197.389526,518.230835 197.100449,518.180420 
	C197.030884,517.989136 197.429794,517.970581 197.629150,517.959900 
z"/>
<path fill="#438CCA" opacity="1.000000" stroke="none" 
	d="
M302.016724,298.293884 
	C304.857147,298.338440 307.485657,298.942139 310.116180,298.951233 
	C332.063965,299.027039 354.012207,299.021088 375.960052,298.954376 
	C378.429413,298.946869 380.897156,298.409058 384.146576,298.078735 
	C389.266083,297.300201 393.604706,296.560120 397.943298,295.820038 
	C401.102600,296.546265 404.259949,297.894897 407.421509,297.904846 
	C451.561676,298.043732 495.702454,297.993591 539.843079,298.013550 
	C542.837097,298.014923 545.830933,298.208374 549.358582,298.397766 
	C543.158752,302.582581 538.575256,308.566772 534.759033,315.986176 
	C534.331116,316.956024 534.162598,317.390625 533.994019,317.825226 
	C532.027161,322.571838 529.882202,327.253845 528.132019,332.079041 
	C524.914978,340.948059 521.930237,349.901367 518.841187,359.198425 
	C518.833679,359.577332 518.806458,359.505188 518.806458,359.505188 
	C514.508057,367.138702 510.706390,375.115631 505.745789,382.291382 
	C502.119476,387.537018 497.296173,392.114960 492.396057,396.270813 
	C488.318451,399.729065 484.613983,397.923859 485.102478,392.571289 
	C485.959900,383.176453 487.455139,373.778229 489.524719,364.570557 
	C492.403473,351.762848 496.253601,339.175385 499.249603,326.390930 
	C500.054352,322.956879 499.728455,319.071777 499.123169,315.530212 
	C497.637878,306.839783 491.235809,302.817047 482.404236,303.776123 
	C468.370819,305.300018 456.767395,311.416565 446.691132,321.741638 
	C445.991180,322.460449 445.572052,322.772980 445.152954,323.085571 
	C444.987488,323.266754 444.822021,323.447906 443.908081,323.781281 
	C442.870239,323.910706 442.580872,323.887939 442.291565,323.865204 
	C442.476837,321.879120 442.794891,319.894928 442.822540,317.906647 
	C442.905792,311.926697 440.060760,309.081329 434.010620,309.044037 
	C427.597992,309.004517 421.184906,309.035156 414.334045,309.035156 
	C417.627655,321.306976 413.145416,331.827301 411.730194,342.628418 
	C410.047577,355.469788 403.175079,366.196198 397.377991,377.361053 
	C394.873871,382.183777 392.693573,387.176025 390.145599,391.974152 
	C386.230804,399.346069 380.939056,405.575684 374.064026,410.397278 
	C370.318634,413.023926 367.996765,412.126160 366.933746,407.717621 
	C364.908142,399.316986 366.995209,391.120911 369.440460,383.405426 
	C375.213715,365.188690 381.814331,347.226471 388.429138,329.289948 
	C389.977448,325.091553 392.911469,321.404175 395.194305,317.505035 
	C392.001465,317.663147 388.702637,318.280914 385.521210,317.904999 
	C372.071777,316.315948 363.980011,323.461395 358.857300,334.576904 
	C354.715454,343.564148 351.125336,352.868103 348.088287,362.288788 
	C342.092438,380.887390 334.251038,398.503113 322.879517,414.719116 
	C323.002991,415.051147 323.083710,414.999054 323.003632,414.826416 
	C322.881531,415.031342 322.839508,415.408905 322.976929,415.961761 
	C323.277405,416.252502 323.398499,416.367889 323.519562,416.483246 
	C320.309204,418.085876 317.148560,419.799561 313.876282,421.263885 
	C309.467133,423.236908 306.609772,421.790100 307.008118,417.054260 
	C307.771057,407.984039 308.720459,398.835724 310.760803,389.989227 
	C313.673523,377.360352 317.845093,365.026642 321.035431,352.454315 
	C322.115509,348.197876 322.425476,343.553406 322.073792,339.167542 
	C321.405060,330.826874 316.668915,326.772003 308.248657,326.504517 
	C300.360107,326.253906 293.145050,328.597443 286.427917,332.581207 
	C284.155182,333.929108 281.998871,335.473267 279.253052,336.832336 
	C278.576813,336.599426 278.436920,336.461914 278.296997,336.324402 
	C286.133240,323.742065 293.969482,311.159729 302.016724,298.293884 
z"/>
<path fill="#4C91CD" opacity="1.000000" stroke="none" 
	d="
M274.726929,322.732422 
	C271.585724,327.614197 268.636444,332.188782 265.687134,336.763397 
	C265.424072,336.679016 265.160980,336.594635 264.897888,336.510254 
	C265.099823,335.365173 265.177582,334.181122 265.522644,333.080872 
	C269.703064,319.751526 273.465759,306.267395 278.257050,293.159790 
	C283.369324,279.174225 289.340942,265.494965 295.220337,251.803467 
	C296.567993,248.665237 298.759857,245.719681 301.152435,243.258240 
	C302.815765,241.547043 305.486877,240.815430 307.707794,239.646210 
	C308.180298,241.972809 309.489380,244.504181 308.978790,246.590118 
	C306.894226,255.105820 305.340790,264.007568 301.594940,271.808258 
	C293.344910,288.988861 283.884979,305.588501 274.726929,322.732422 
z"/>
<path fill="#458DCB" opacity="1.000000" stroke="none" 
	d="
M527.876099,434.769287 
	C540.095703,431.156952 551.998657,427.741821 564.217346,424.236145 
	C563.942261,436.269592 551.657532,453.967346 541.744019,457.700958 
	C530.650146,461.879089 520.536133,454.324036 522.290894,442.703674 
	C522.710754,439.922821 525.733704,437.535065 527.876099,434.769287 
z"/>
<path fill="#488FCC" opacity="1.000000" stroke="none" 
	d="
M445.319946,323.273132 
	C445.572052,322.772980 445.991180,322.460449 446.595520,322.076294 
	C447.015167,322.508453 447.249573,323.012238 447.484009,323.515991 
	C446.818329,323.497589 446.152649,323.479156 445.319946,323.273132 
z"/>
<path fill="#488FCC" opacity="1.000000" stroke="none" 
	d="
M534.271362,317.814911 
	C534.162598,317.390625 534.331116,316.956024 534.620728,316.321991 
	C534.677490,316.683228 534.613098,317.243927 534.271362,317.814911 
z"/>
<path fill="#488FCC" opacity="1.000000" stroke="none" 
	d="
M442.195557,324.134766 
	C442.580872,323.887939 442.870239,323.910706 443.593262,323.971985 
	C443.677551,324.569946 443.328125,325.129425 442.978699,325.688904 
	C442.685669,325.260712 442.392609,324.832520 442.195557,324.134766 
z"/>
<path fill="#438CCA" opacity="1.000000" stroke="none" 
	d="
M278.926270,336.943573 
	C278.642151,337.348877 278.148529,337.547546 277.654907,337.746185 
	C277.741150,337.394562 277.827423,337.042938 278.105347,336.507874 
	C278.436920,336.461914 278.576813,336.599426 278.926270,336.943573 
z"/>
<path fill="#488FCC" opacity="1.000000" stroke="none" 
	d="
M518.988342,359.661255 
	C518.806458,359.505188 518.833679,359.577332 518.818054,359.613342 
	C519.071106,359.530518 519.331848,359.379364 519.612793,359.310699 
	C519.709229,359.287140 519.856018,359.469727 519.979797,359.558105 
	C519.709961,359.644531 519.440063,359.730927 518.988342,359.661255 
z"/>
<path fill="#438BCA" opacity="1.000000" stroke="none" 
	d="
M576.440308,383.804504 
	C576.066345,383.642456 575.966980,383.273102 575.867615,382.903717 
	C576.101746,382.846161 576.335815,382.788574 576.569946,382.730988 
	C576.618286,383.019714 576.666626,383.308472 576.440308,383.804504 
z"/>
<path fill="#438CCA" opacity="1.000000" stroke="none" 
	d="
M322.963745,415.078796 
	C323.206360,415.417877 323.488251,415.729248 323.644836,416.261963 
	C323.398499,416.367889 323.277405,416.252502 323.017029,415.753479 
	C322.877747,415.369904 323.083710,414.999054 323.083710,414.999054 
	C323.083710,414.999054 323.002991,415.051147 322.963745,415.078796 
z"/>
<path fill="#4A90CC" opacity="1.000000" stroke="none" 
	d="
M204.078690,293.562866 
	C188.893494,295.842926 175.534256,290.183807 161.911407,283.936951 
	C164.910950,273.622223 170.727707,269.236755 181.343185,269.225616 
	C184.629456,269.222198 187.953735,269.601379 191.194366,270.177826 
	C196.325394,271.090607 200.093903,274.132843 201.520309,279.114655 
	C202.822021,283.660950 203.284439,288.447540 204.078690,293.562866 
z"/>
<path fill="#438BCA" opacity="1.000000" stroke="none" 
	d="
M131.391144,441.487549 
	C131.388702,441.514893 131.171127,441.254669 131.171127,441.254669 
	C131.171127,441.254669 131.285355,441.586273 131.364197,441.514252 
	C131.443039,441.442230 131.393570,441.460236 131.391144,441.487549 
z"/>
<path fill="#ECF3F9" opacity="1.000000" stroke="none" 
	d="
M398.122864,295.541412 
	C393.604706,296.560120 389.266083,297.300201 384.565552,297.975586 
	C377.040436,288.896118 379.050629,279.428284 389.719360,275.017609 
	C392.590027,273.830811 397.753174,274.026855 399.719513,275.872650 
	C402.155487,278.159271 403.414581,282.886261 403.204498,286.442169 
	C403.025757,289.468323 400.044037,292.328949 398.122864,295.541412 
z"/>
<path fill="#5295CF" opacity="1.000000" stroke="none" 
	d="
M463.928406,753.536133 
	C462.268402,754.078796 459.966644,755.616028 459.008392,755.014160 
	C457.528564,754.084717 456.670776,751.769470 456.176788,749.878052 
	C456.001404,749.206421 458.033997,747.130493 458.414795,747.284851 
	C460.051483,747.947937 461.579010,749.065308 462.876007,750.300903 
	C463.490326,750.886169 463.496887,752.109375 463.818298,753.359314 
	C463.857849,753.675049 463.888611,753.572144 463.928406,753.536133 
z"/>
<path fill="#5093CE" opacity="1.000000" stroke="none" 
	d="
M497.912354,721.929077 
	C499.204865,721.969482 500.969879,721.511230 501.771454,722.190247 
	C503.366089,723.541260 504.788971,725.382263 505.518768,727.310059 
	C505.772125,727.979309 503.765869,729.503967 502.791626,730.637939 
	C501.234253,729.192200 499.398468,727.934082 498.242035,726.218201 
	C497.699219,725.412720 498.465302,723.725159 498.278229,722.153931 
	C497.918213,721.870483 497.949127,721.944702 497.912354,721.929077 
z"/>
<path fill="#5093CE" opacity="1.000000" stroke="none" 
	d="
M472.912354,736.929077 
	C474.204865,736.969482 475.969849,736.511292 476.771423,737.190308 
	C478.366119,738.541260 479.789062,740.382263 480.518829,742.310059 
	C480.772217,742.979248 478.765839,744.503967 477.791626,745.637939 
	C476.234253,744.192200 474.398438,742.934143 473.242065,741.218140 
	C472.699249,740.412720 473.465363,738.725159 473.278259,737.153931 
	C472.918213,736.870483 472.949127,736.944702 472.912354,736.929077 
z"/>
<path fill="#EDF4FA" opacity="1.000000" stroke="none" 
	d="
M417.774719,403.867737 
	C417.846069,403.929535 417.946991,404.003052 418.047882,404.076599 
	C417.973816,404.107758 417.899780,404.138916 417.844299,404.037231 
	C417.862915,403.904358 417.804321,403.879456 417.774719,403.867737 
z"/>
<path fill="#EDF4FA" opacity="1.000000" stroke="none" 
	d="
M323.003632,414.826416 
	C323.083710,414.999054 322.877747,415.369904 322.837646,415.578186 
	C322.839508,415.408905 322.881531,415.031342 323.003632,414.826416 
z"/>
</svg>